{"glyphs":{"0":{"ha":694,"x_min":115,"x_max":694,"o":"m 347 347 l 347 579 l 463 579 l 463 347 l 347 347 m 232 926 l 579 926 l 579 810 l 232 810 l 232 926 m 579 810 l 694 810 l 694 115 l 579 115 l 579 810 m 232 810 l 232 115 l 115 115 l 115 810 l 232 810 m 579 115 l 579 0 l 232 0 l 232 115 l 579 115 z "},"1":{"ha":694,"x_min":115,"x_max":694,"o":"m 115 579 l 115 694 l 232 694 l 232 810 l 347 810 l 347 926 l 463 926 l 463 115 l 694 115 l 694 0 l 115 0 l 115 115 l 347 115 l 347 694 l 232 694 l 232 579 l 115 579 z "},"2":{"ha":694,"x_min":115,"x_max":694,"o":"m 115 694 l 115 810 l 232 810 l 232 926 l 579 926 l 579 810 l 232 810 l 232 694 l 115 694 m 579 810 l 694 810 l 694 579 l 579 579 l 579 810 m 579 579 l 579 463 l 463 463 l 463 579 l 579 579 m 463 463 l 463 347 l 347 347 l 347 463 l 463 463 m 347 347 l 347 232 l 232 232 l 232 347 l 347 347 m 232 232 l 232 115 l 694 115 l 694 0 l 115 0 l 115 232 l 232 232 z "},"3":{"ha":694,"x_min":115,"x_max":694,"o":"m 115 694 l 115 810 l 232 810 l 232 926 l 579 926 l 579 810 l 232 810 l 232 694 l 115 694 m 579 810 l 694 810 l 694 579 l 579 579 l 579 810 m 579 579 l 579 463 l 347 463 l 347 579 l 579 579 m 579 463 l 694 463 l 694 115 l 579 115 l 579 463 m 579 115 l 579 0 l 232 0 l 232 115 l 115 115 l 115 232 l 232 232 l 232 115 l 579 115 z "},"4":{"ha":694,"x_min":115,"x_max":810,"o":"m 579 0 l 579 232 l 115 232 l 115 463 l 232 463 l 232 579 l 347 579 l 347 694 l 463 694 l 463 579 l 347 579 l 347 463 l 232 463 l 232 347 l 579 347 l 579 694 l 463 694 l 463 810 l 579 810 l 579 926 l 694 926 l 694 347 l 810 347 l 810 232 l 694 232 l 694 0 l 579 0 z "},"5":{"ha":694,"x_min":115,"x_max":694,"o":"m 115 926 l 694 926 l 694 810 l 232 810 l 232 579 l 579 579 l 579 463 l 115 463 l 115 926 m 579 463 l 694 463 l 694 115 l 579 115 l 579 463 m 579 115 l 579 0 l 232 0 l 232 115 l 115 115 l 115 232 l 232 232 l 232 115 l 579 115 z "},"6":{"ha":694,"x_min":115,"x_max":694,"o":"m 347 926 l 579 926 l 579 810 l 347 810 l 347 926 m 347 810 l 347 694 l 232 694 l 232 810 l 347 810 m 232 694 l 232 579 l 579 579 l 579 463 l 232 463 l 232 115 l 115 115 l 115 694 l 232 694 m 579 463 l 694 463 l 694 115 l 579 115 l 579 463 m 579 115 l 579 0 l 232 0 l 232 115 l 579 115 z "},"7":{"ha":694,"x_min":115,"x_max":694,"o":"m 232 0 l 232 232 l 347 232 l 347 463 l 463 463 l 463 694 l 579 694 l 579 810 l 115 810 l 115 926 l 694 926 l 694 694 l 579 694 l 579 463 l 463 463 l 463 232 l 347 232 l 347 0 l 232 0 z "},"8":{"ha":694,"x_min":115,"x_max":694,"o":"m 232 926 l 579 926 l 579 810 l 232 810 l 232 926 m 579 810 l 694 810 l 694 579 l 579 579 l 579 810 m 232 810 l 232 579 l 115 579 l 115 810 l 232 810 m 579 579 l 579 463 l 232 463 l 232 579 l 579 579 m 579 463 l 694 463 l 694 115 l 579 115 l 579 463 m 232 463 l 232 115 l 115 115 l 115 463 l 232 463 m 579 115 l 579 0 l 232 0 l 232 115 l 579 115 z "},"9":{"ha":694,"x_min":115,"x_max":694,"o":"m 232 926 l 579 926 l 579 810 l 232 810 l 232 926 m 579 810 l 694 810 l 694 232 l 579 232 l 579 347 l 232 347 l 232 463 l 115 463 l 115 810 l 232 810 l 232 463 l 579 463 l 579 810 m 579 232 l 579 115 l 463 115 l 463 232 l 579 232 m 463 115 l 463 0 l 232 0 l 232 115 l 463 115 z "},"\u0000":{"ha":694,"x_min":0,"x_max":810,"o":"m 694 1042 l 694 1157 l 810 1157 l 810 1042 l 694 1042 m 463 1042 l 463 1157 l 579 1157 l 579 1042 l 463 1042 m 232 1042 l 232 1157 l 347 1157 l 347 1042 l 232 1042 m 0 1042 l 0 1157 l 115 1157 l 115 1042 l 0 1042 m 694 810 l 694 926 l 810 926 l 810 810 l 694 810 m 0 810 l 0 926 l 115 926 l 115 810 l 0 810 m 694 579 l 694 694 l 810 694 l 810 579 l 694 579 m 0 579 l 0 694 l 115 694 l 115 579 l 0 579 m 694 347 l 694 463 l 810 463 l 810 347 l 694 347 m 0 347 l 0 463 l 115 463 l 115 347 l 0 347 m 694 115 l 694 232 l 810 232 l 810 115 l 694 115 m 0 115 l 0 232 l 115 232 l 115 115 l 0 115 m 694 -115 l 694 0 l 810 0 l 810 -115 l 694 -115 m 0 -115 l 0 0 l 115 0 l 115 -115 l 0 -115 m 694 -347 l 694 -232 l 810 -232 l 810 -347 l 694 -347 m 463 -347 l 463 -232 l 579 -232 l 579 -347 l 463 -347 m 232 -347 l 232 -232 l 347 -232 l 347 -347 l 232 -347 m 0 -347 l 0 -232 l 115 -232 l 115 -347 l 0 -347 z "},"\r":{"ha":694,"x_min":115,"x_max":694,"o":"m 115 810 l 694 810 l 694 115 l 115 115 l 115 810 m 579 694 l 232 694 l 232 232 l 579 232 l 579 694 z "},"\u0001":{"ha":694,"x_min":115,"x_max":694,"o":"m 115 810 l 694 810 l 694 115 l 115 115 l 115 810 m 579 694 l 232 694 l 232 232 l 579 232 l 579 694 z "},"\u0002":{"ha":694,"x_min":115,"x_max":694,"o":"m 115 810 l 694 810 l 694 115 l 115 115 l 115 810 m 579 694 l 232 694 l 232 232 l 579 232 l 579 694 z "},"\u0003":{"ha":694,"x_min":115,"x_max":694,"o":"m 115 810 l 694 810 l 694 115 l 115 115 l 115 810 m 579 694 l 232 694 l 232 232 l 579 232 l 579 694 z "},"\u0004":{"ha":694,"x_min":115,"x_max":694,"o":"m 115 810 l 694 810 l 694 115 l 115 115 l 115 810 m 579 694 l 232 694 l 232 232 l 579 232 l 579 694 z "},"\u0005":{"ha":694,"x_min":115,"x_max":694,"o":"m 115 810 l 694 810 l 694 115 l 115 115 l 115 810 m 579 694 l 232 694 l 232 232 l 579 232 l 579 694 z "},"\u0006":{"ha":694,"x_min":115,"x_max":694,"o":"m 115 810 l 694 810 l 694 115 l 115 115 l 115 810 m 579 694 l 232 694 l 232 232 l 579 232 l 579 694 z "},"\u0007":{"ha":694,"x_min":115,"x_max":694,"o":"m 115 810 l 694 810 l 694 115 l 115 115 l 115 810 m 579 694 l 232 694 l 232 232 l 579 232 l 579 694 z "},"\b":{"ha":694,"x_min":115,"x_max":694,"o":"m 115 810 l 694 810 l 694 115 l 115 115 l 115 810 m 579 694 l 232 694 l 232 232 l 579 232 l 579 694 z "},"\t":{"ha":694,"x_min":0,"x_max":0,"o":""},"\n":{"ha":694,"x_min":115,"x_max":694,"o":"m 115 810 l 694 810 l 694 115 l 115 115 l 115 810 m 579 694 l 232 694 l 232 232 l 579 232 l 579 694 z "},"\u000b":{"ha":694,"x_min":115,"x_max":694,"o":"m 115 810 l 694 810 l 694 115 l 115 115 l 115 810 m 579 694 l 232 694 l 232 232 l 579 232 l 579 694 z "},"\f":{"ha":694,"x_min":115,"x_max":694,"o":"m 115 810 l 694 810 l 694 115 l 115 115 l 115 810 m 579 694 l 232 694 l 232 232 l 579 232 l 579 694 z "},"\u000e":{"ha":694,"x_min":0,"x_max":463,"o":"m 347 463 l 347 1157 l 463 1157 l 463 347 l 0 347 l 0 463 l 347 463 z "},"\u000f":{"ha":694,"x_min":347,"x_max":810,"o":"m 347 347 l 347 1157 l 463 1157 l 463 463 l 810 463 l 810 347 l 347 347 z "},"\u0010":{"ha":694,"x_min":347,"x_max":810,"o":"m 347 -347 l 347 463 l 810 463 l 810 347 l 463 347 l 463 -347 l 347 -347 z "},"\u0011":{"ha":694,"x_min":0,"x_max":463,"o":"m 347 -347 l 347 347 l 0 347 l 0 463 l 463 463 l 463 -347 l 347 -347 z "},"\u0012":{"ha":694,"x_min":0,"x_max":810,"o":"m 0 463 l 810 463 l 810 347 l 0 347 l 0 463 z "},"\u0013":{"ha":694,"x_min":347,"x_max":463,"o":"m 347 -347 l 347 1157 l 463 1157 l 463 -347 l 347 -347 z "},"\u0014":{"ha":694,"x_min":0,"x_max":463,"o":"m 347 -347 l 347 347 l 0 347 l 0 463 l 347 463 l 347 1157 l 463 1157 l 463 -347 l 347 -347 z "},"\u0015":{"ha":694,"x_min":0,"x_max":810,"o":"m 347 463 l 347 1157 l 463 1157 l 463 463 l 810 463 l 810 347 l 0 347 l 0 463 l 347 463 z "},"\u0016":{"ha":694,"x_min":347,"x_max":810,"o":"m 347 -347 l 347 1157 l 463 1157 l 463 463 l 810 463 l 810 347 l 463 347 l 463 -347 l 347 -347 z "},"\u0017":{"ha":694,"x_min":0,"x_max":810,"o":"m 347 -347 l 347 347 l 0 347 l 0 463 l 810 463 l 810 347 l 463 347 l 463 -347 l 347 -347 z "},"\u0018":{"ha":694,"x_min":0,"x_max":810,"o":"m 347 -347 l 347 347 l 0 347 l 0 463 l 347 463 l 347 1157 l 463 1157 l 463 463 l 810 463 l 810 347 l 463 347 l 463 -347 l 347 -347 z "},"\u0019":{"ha":694,"x_min":0,"x_max":810,"o":"m 694 -347 l 694 -232 l 579 -232 l 579 -115 l 463 -115 l 463 0 l 347 0 l 347 115 l 232 115 l 232 232 l 115 232 l 115 347 l 0 347 l 0 463 l 115 463 l 115 347 l 232 347 l 232 232 l 347 232 l 347 115 l 463 115 l 463 0 l 579 0 l 579 -115 l 694 -115 l 694 0 l 579 0 l 579 115 l 463 115 l 463 232 l 347 232 l 347 347 l 232 347 l 232 463 l 115 463 l 115 579 l 0 579 l 0 694 l 115 694 l 115 579 l 232 579 l 232 463 l 347 463 l 347 347 l 463 347 l 463 232 l 579 232 l 579 115 l 694 115 l 694 232 l 579 232 l 579 347 l 463 347 l 463 463 l 347 463 l 347 579 l 232 579 l 232 694 l 115 694 l 115 810 l 0 810 l 0 926 l 115 926 l 115 810 l 232 810 l 232 694 l 347 694 l 347 579 l 463 579 l 463 463 l 579 463 l 579 347 l 694 347 l 694 463 l 579 463 l 579 579 l 463 579 l 463 694 l 347 694 l 347 810 l 232 810 l 232 926 l 115 926 l 115 1042 l 0 1042 l 0 1157 l 115 1157 l 115 1042 l 232 1042 l 232 926 l 347 926 l 347 810 l 463 810 l 463 694 l 579 694 l 579 579 l 694 579 l 694 694 l 579 694 l 579 810 l 463 810 l 463 926 l 347 926 l 347 1042 l 232 1042 l 232 1157 l 347 1157 l 347 1042 l 463 1042 l 463 926 l 579 926 l 579 810 l 694 810 l 694 926 l 579 926 l 579 1042 l 463 1042 l 463 1157 l 579 1157 l 579 1042 l 694 1042 l 694 1157 l 810 1157 l 810 1042 l 694 1042 l 694 926 l 810 926 l 810 810 l 694 810 l 694 694 l 810 694 l 810 579 l 694 579 l 694 463 l 810 463 l 810 347 l 694 347 l 694 232 l 810 232 l 810 115 l 694 115 l 694 0 l 810 0 l 810 -115 l 694 -115 l 694 -232 l 810 -232 l 810 -347 l 694 -347 m 463 -347 l 463 -232 l 347 -232 l 347 -115 l 232 -115 l 232 0 l 115 0 l 115 115 l 0 115 l 0 232 l 115 232 l 115 115 l 232 115 l 232 0 l 347 0 l 347 -115 l 463 -115 l 463 -232 l 579 -232 l 579 -347 l 463 -347 m 232 -347 l 232 -232 l 115 -232 l 115 -115 l 0 -115 l 0 0 l 115 0 l 115 -115 l 232 -115 l 232 -232 l 347 -232 l 347 -347 l 232 -347 m 0 -347 l 0 -232 l 115 -232 l 115 -347 l 0 -347 z "},"\u001a":{"ha":694,"x_min":115,"x_max":694,"o":"m 232 115 l 232 232 l 115 232 l 115 347 l 347 347 l 347 463 l 115 463 l 115 579 l 463 579 l 463 694 l 579 694 l 579 579 l 694 579 l 694 463 l 463 463 l 463 347 l 694 347 l 694 232 l 347 232 l 347 115 l 232 115 z "},"\u001b":{"ha":694,"x_min":115,"x_max":694,"o":"m 463 810 l 694 810 l 694 694 l 463 694 l 463 810 m 463 694 l 463 579 l 232 579 l 232 694 l 463 694 m 232 579 l 232 463 l 115 463 l 115 579 l 232 579 m 232 463 l 463 463 l 463 347 l 232 347 l 232 463 m 463 347 l 694 347 l 694 232 l 463 232 l 463 347 m 115 115 l 694 115 l 694 0 l 115 0 l 115 115 z "},"\u001c":{"ha":694,"x_min":115,"x_max":694,"o":"m 463 0 l 463 579 l 347 579 l 347 0 l 232 0 l 232 579 l 115 579 l 115 694 l 694 694 l 694 579 l 579 579 l 579 0 l 463 0 z "},"\u001d":{"ha":694,"x_min":115,"x_max":694,"o":"m 115 810 l 347 810 l 347 694 l 115 694 l 115 810 m 347 694 l 579 694 l 579 579 l 347 579 l 347 694 m 579 579 l 694 579 l 694 463 l 579 463 l 579 579 m 579 463 l 579 347 l 347 347 l 347 463 l 579 463 m 347 347 l 347 232 l 115 232 l 115 347 l 347 347 m 115 115 l 694 115 l 694 0 l 115 0 l 115 115 z "},"\u001e":{"ha":694,"x_min":115,"x_max":694,"o":"m 347 926 l 579 926 l 579 810 l 347 810 l 347 926 m 347 810 l 347 579 l 579 579 l 579 463 l 347 463 l 347 232 l 232 232 l 232 463 l 115 463 l 115 579 l 232 579 l 232 810 l 347 810 m 232 232 l 232 115 l 694 115 l 694 0 l 115 0 l 115 232 l 232 232 z "},"\u001f":{"ha":694,"x_min":232,"x_max":579,"o":"m 232 463 l 579 463 l 579 347 l 232 347 l 232 463 z "}," ":{"ha":694,"x_min":0,"x_max":0,"o":""},"!":{"ha":694,"x_min":347,"x_max":463,"o":"m 347 232 l 347 926 l 463 926 l 463 232 l 347 232 m 347 0 l 347 115 l 463 115 l 463 0 l 347 0 z "},"\"":{"ha":694,"x_min":232,"x_max":579,"o":"m 463 694 l 463 1042 l 579 1042 l 579 694 l 463 694 m 232 694 l 232 1042 l 347 1042 l 347 694 l 232 694 z "},"#":{"ha":694,"x_min":115,"x_max":694,"o":"m 463 0 l 463 232 l 347 232 l 347 0 l 232 0 l 232 232 l 115 232 l 115 347 l 232 347 l 232 579 l 115 579 l 115 694 l 232 694 l 232 926 l 347 926 l 347 694 l 463 694 l 463 926 l 579 926 l 579 694 l 694 694 l 694 579 l 579 579 l 579 347 l 694 347 l 694 232 l 579 232 l 579 0 l 463 0 m 463 579 l 347 579 l 347 347 l 463 347 l 463 579 z "},"$":{"ha":694,"x_min":115,"x_max":694,"o":"m 579 694 l 579 810 l 463 810 l 463 579 l 579 579 l 579 463 l 694 463 l 694 115 l 579 115 l 579 0 l 463 0 l 463 -115 l 347 -115 l 347 0 l 232 0 l 232 115 l 115 115 l 115 232 l 232 232 l 232 115 l 347 115 l 347 463 l 232 463 l 232 579 l 115 579 l 115 810 l 232 810 l 232 579 l 347 579 l 347 810 l 232 810 l 232 926 l 347 926 l 347 1042 l 463 1042 l 463 926 l 579 926 l 579 810 l 694 810 l 694 694 l 579 694 m 579 463 l 463 463 l 463 115 l 579 115 l 579 463 z "},"%":{"ha":694,"x_min":115,"x_max":694,"o":"m 232 694 l 232 810 l 115 810 l 115 926 l 232 926 l 232 810 l 347 810 l 347 926 l 232 926 l 232 1042 l 347 1042 l 347 926 l 463 926 l 463 810 l 347 810 l 347 694 l 232 694 m 115 232 l 115 347 l 232 347 l 232 463 l 347 463 l 347 579 l 463 579 l 463 694 l 579 694 l 579 810 l 694 810 l 694 694 l 579 694 l 579 579 l 463 579 l 463 463 l 347 463 l 347 347 l 232 347 l 232 232 l 115 232 m 463 0 l 463 115 l 347 115 l 347 232 l 463 232 l 463 115 l 579 115 l 579 232 l 463 232 l 463 347 l 579 347 l 579 232 l 694 232 l 694 115 l 579 115 l 579 0 l 463 0 z "},"&":{"ha":694,"x_min":115,"x_max":694,"o":"m 579 0 l 579 115 l 463 115 l 463 463 l 232 463 l 232 579 l 347 579 l 347 694 l 232 694 l 232 926 l 347 926 l 347 694 l 463 694 l 463 926 l 347 926 l 347 1042 l 463 1042 l 463 926 l 579 926 l 579 694 l 463 694 l 463 463 l 579 463 l 579 579 l 694 579 l 694 463 l 579 463 l 579 115 l 694 115 l 694 0 l 579 0 m 232 463 l 232 115 l 115 115 l 115 463 l 232 463 m 463 115 l 463 0 l 232 0 l 232 115 l 463 115 z "},"'":{"ha":694,"x_min":347,"x_max":463,"o":"m 347 694 l 347 1042 l 463 1042 l 463 694 l 347 694 z "},"(":{"ha":694,"x_min":232,"x_max":579,"o":"m 463 -232 l 463 -115 l 347 -115 l 347 115 l 232 115 l 232 694 l 347 694 l 347 926 l 463 926 l 463 1042 l 579 1042 l 579 926 l 463 926 l 463 694 l 347 694 l 347 115 l 463 115 l 463 -115 l 579 -115 l 579 -232 l 463 -232 z "},")":{"ha":694,"x_min":232,"x_max":579,"o":"m 232 -232 l 232 -115 l 347 -115 l 347 115 l 463 115 l 463 694 l 347 694 l 347 926 l 232 926 l 232 1042 l 347 1042 l 347 926 l 463 926 l 463 694 l 579 694 l 579 115 l 463 115 l 463 -115 l 347 -115 l 347 -232 l 232 -232 z "},"*":{"ha":694,"x_min":115,"x_max":694,"o":"m 463 115 l 463 232 l 347 232 l 347 347 l 115 347 l 115 463 l 347 463 l 347 579 l 232 579 l 232 694 l 347 694 l 347 579 l 463 579 l 463 694 l 579 694 l 579 579 l 463 579 l 463 463 l 694 463 l 694 347 l 463 347 l 463 232 l 579 232 l 579 115 l 463 115 m 232 115 l 232 232 l 347 232 l 347 115 l 232 115 z "},"+":{"ha":694,"x_min":115,"x_max":694,"o":"m 347 115 l 347 347 l 115 347 l 115 463 l 347 463 l 347 694 l 463 694 l 463 463 l 694 463 l 694 347 l 463 347 l 463 115 l 347 115 z "},",":{"ha":694,"x_min":232,"x_max":463,"o":"m 232 -232 l 232 -115 l 347 -115 l 347 0 l 232 0 l 232 232 l 463 232 l 463 -115 l 347 -115 l 347 -232 l 232 -232 z "},"-":{"ha":694,"x_min":115,"x_max":694,"o":"m 115 463 l 694 463 l 694 347 l 115 347 l 115 463 z "},".":{"ha":694,"x_min":232,"x_max":463,"o":"m 232 232 l 463 232 l 463 0 l 232 0 l 232 232 z "},"/":{"ha":694,"x_min":115,"x_max":694,"o":"m 115 -115 l 115 115 l 232 115 l 232 347 l 347 347 l 347 579 l 463 579 l 463 810 l 579 810 l 579 1042 l 694 1042 l 694 810 l 579 810 l 579 579 l 463 579 l 463 347 l 347 347 l 347 115 l 232 115 l 232 -115 l 115 -115 z "},":":{"ha":694,"x_min":232,"x_max":463,"o":"m 232 694 l 463 694 l 463 463 l 232 463 l 232 694 m 232 232 l 463 232 l 463 0 l 232 0 l 232 232 z "},";":{"ha":694,"x_min":232,"x_max":463,"o":"m 232 -232 l 232 -115 l 347 -115 l 347 0 l 232 0 l 232 232 l 463 232 l 463 -115 l 347 -115 l 347 -232 l 232 -232 m 232 694 l 463 694 l 463 463 l 232 463 l 232 694 z "},"<":{"ha":694,"x_min":232,"x_max":694,"o":"m 579 0 l 579 115 l 463 115 l 463 232 l 347 232 l 347 347 l 232 347 l 232 463 l 347 463 l 347 579 l 463 579 l 463 694 l 579 694 l 579 810 l 694 810 l 694 694 l 579 694 l 579 579 l 463 579 l 463 463 l 347 463 l 347 347 l 463 347 l 463 232 l 579 232 l 579 115 l 694 115 l 694 0 l 579 0 z "},"=":{"ha":694,"x_min":115,"x_max":694,"o":"m 115 579 l 694 579 l 694 463 l 115 463 l 115 579 m 115 347 l 694 347 l 694 232 l 115 232 l 115 347 z "},">":{"ha":694,"x_min":115,"x_max":579,"o":"m 115 0 l 115 115 l 232 115 l 232 232 l 347 232 l 347 347 l 463 347 l 463 463 l 347 463 l 347 579 l 232 579 l 232 694 l 115 694 l 115 810 l 232 810 l 232 694 l 347 694 l 347 579 l 463 579 l 463 463 l 579 463 l 579 347 l 463 347 l 463 232 l 347 232 l 347 115 l 232 115 l 232 0 l 115 0 z "},"?":{"ha":694,"x_min":115,"x_max":694,"o":"m 115 694 l 115 810 l 232 810 l 232 926 l 579 926 l 579 810 l 232 810 l 232 694 l 115 694 m 347 232 l 347 463 l 463 463 l 463 579 l 579 579 l 579 810 l 694 810 l 694 579 l 579 579 l 579 463 l 463 463 l 463 232 l 347 232 m 347 0 l 347 115 l 463 115 l 463 0 l 347 0 z "},"@":{"ha":694,"x_min":115,"x_max":694,"o":"m 232 926 l 579 926 l 579 810 l 232 810 l 232 926 m 579 810 l 694 810 l 694 232 l 347 232 l 347 579 l 579 579 l 579 810 m 232 810 l 232 115 l 115 115 l 115 810 l 232 810 m 579 463 l 463 463 l 463 347 l 579 347 l 579 463 m 232 115 l 694 115 l 694 0 l 232 0 l 232 115 z "},"A":{"ha":694,"x_min":115,"x_max":694,"o":"m 579 0 l 579 347 l 232 347 l 232 0 l 115 0 l 115 810 l 232 810 l 232 463 l 579 463 l 579 810 l 232 810 l 232 926 l 579 926 l 579 810 l 694 810 l 694 0 l 579 0 z "},"B":{"ha":694,"x_min":115,"x_max":694,"o":"m 115 926 l 579 926 l 579 810 l 694 810 l 694 579 l 579 579 l 579 463 l 694 463 l 694 115 l 579 115 l 579 0 l 115 0 l 115 926 m 579 810 l 232 810 l 232 579 l 579 579 l 579 810 m 579 463 l 232 463 l 232 115 l 579 115 l 579 463 z "},"C":{"ha":694,"x_min":115,"x_max":694,"o":"m 579 694 l 579 810 l 232 810 l 232 926 l 579 926 l 579 810 l 694 810 l 694 694 l 579 694 m 232 810 l 232 115 l 115 115 l 115 810 l 232 810 m 579 115 l 579 232 l 694 232 l 694 115 l 579 115 m 579 115 l 579 0 l 232 0 l 232 115 l 579 115 z "},"D":{"ha":694,"x_min":115,"x_max":694,"o":"m 115 926 l 463 926 l 463 810 l 579 810 l 579 694 l 694 694 l 694 232 l 579 232 l 579 115 l 463 115 l 463 0 l 115 0 l 115 926 m 463 810 l 232 810 l 232 115 l 463 115 l 463 232 l 579 232 l 579 694 l 463 694 l 463 810 z "},"E":{"ha":694,"x_min":115,"x_max":694,"o":"m 115 926 l 694 926 l 694 810 l 232 810 l 232 579 l 579 579 l 579 463 l 232 463 l 232 115 l 694 115 l 694 0 l 115 0 l 115 926 z "},"F":{"ha":694,"x_min":115,"x_max":694,"o":"m 115 0 l 115 926 l 694 926 l 694 810 l 232 810 l 232 579 l 579 579 l 579 463 l 232 463 l 232 0 l 115 0 z "},"G":{"ha":694,"x_min":115,"x_max":694,"o":"m 579 694 l 579 810 l 232 810 l 232 926 l 579 926 l 579 810 l 694 810 l 694 694 l 579 694 m 232 810 l 232 115 l 115 115 l 115 810 l 232 810 m 463 463 l 694 463 l 694 115 l 579 115 l 579 347 l 463 347 l 463 463 m 579 115 l 579 0 l 232 0 l 232 115 l 579 115 z "},"H":{"ha":694,"x_min":115,"x_max":694,"o":"m 579 0 l 579 463 l 232 463 l 232 0 l 115 0 l 115 926 l 232 926 l 232 579 l 579 579 l 579 926 l 694 926 l 694 0 l 579 0 z "},"I":{"ha":694,"x_min":232,"x_max":579,"o":"m 232 926 l 579 926 l 579 810 l 463 810 l 463 115 l 579 115 l 579 0 l 232 0 l 232 115 l 347 115 l 347 810 l 232 810 l 232 926 z "},"J":{"ha":694,"x_min":115,"x_max":694,"o":"m 347 926 l 694 926 l 694 115 l 579 115 l 579 810 l 347 810 l 347 926 m 115 115 l 115 347 l 232 347 l 232 115 l 115 115 m 579 115 l 579 0 l 232 0 l 232 115 l 579 115 z "},"K":{"ha":694,"x_min":115,"x_max":694,"o":"m 579 0 l 579 232 l 463 232 l 463 463 l 232 463 l 232 0 l 115 0 l 115 926 l 232 926 l 232 579 l 347 579 l 347 694 l 463 694 l 463 810 l 579 810 l 579 926 l 694 926 l 694 810 l 579 810 l 579 694 l 463 694 l 463 463 l 579 463 l 579 232 l 694 232 l 694 0 l 579 0 z "},"L":{"ha":694,"x_min":115,"x_max":694,"o":"m 115 0 l 115 926 l 232 926 l 232 115 l 694 115 l 694 0 l 115 0 z "},"M":{"ha":694,"x_min":115,"x_max":694,"o":"m 347 463 l 347 694 l 232 694 l 232 0 l 115 0 l 115 926 l 232 926 l 232 810 l 347 810 l 347 694 l 463 694 l 463 810 l 579 810 l 579 926 l 694 926 l 694 0 l 579 0 l 579 694 l 463 694 l 463 463 l 347 463 z "},"N":{"ha":694,"x_min":115,"x_max":694,"o":"m 579 0 l 579 115 l 463 115 l 463 347 l 347 347 l 347 579 l 232 579 l 232 0 l 115 0 l 115 926 l 232 926 l 232 810 l 347 810 l 347 579 l 463 579 l 463 347 l 579 347 l 579 926 l 694 926 l 694 0 l 579 0 z "},"O":{"ha":694,"x_min":115,"x_max":694,"o":"m 232 926 l 579 926 l 579 810 l 232 810 l 232 926 m 579 810 l 694 810 l 694 115 l 579 115 l 579 810 m 232 810 l 232 115 l 115 115 l 115 810 l 232 810 m 579 115 l 579 0 l 232 0 l 232 115 l 579 115 z "},"P":{"ha":694,"x_min":115,"x_max":694,"o":"m 115 0 l 115 926 l 579 926 l 579 810 l 694 810 l 694 463 l 579 463 l 579 347 l 232 347 l 232 0 l 115 0 m 579 810 l 232 810 l 232 463 l 579 463 l 579 810 z "},"Q":{"ha":694,"x_min":115,"x_max":694,"o":"m 579 -115 l 579 115 l 463 115 l 463 232 l 579 232 l 579 810 l 232 810 l 232 926 l 579 926 l 579 810 l 694 810 l 694 232 l 579 232 l 579 115 l 694 115 l 694 -115 l 579 -115 m 232 810 l 232 115 l 115 115 l 115 810 l 232 810 m 463 115 l 463 0 l 232 0 l 232 115 l 463 115 z "},"R":{"ha":694,"x_min":115,"x_max":694,"o":"m 579 0 l 579 347 l 463 347 l 463 463 l 232 463 l 232 0 l 115 0 l 115 926 l 579 926 l 579 810 l 694 810 l 694 579 l 579 579 l 579 347 l 694 347 l 694 0 l 579 0 m 579 810 l 232 810 l 232 579 l 579 579 l 579 810 z "},"S":{"ha":694,"x_min":115,"x_max":694,"o":"m 579 694 l 579 810 l 232 810 l 232 926 l 579 926 l 579 810 l 694 810 l 694 694 l 579 694 m 232 810 l 232 579 l 115 579 l 115 810 l 232 810 m 232 579 l 579 579 l 579 463 l 232 463 l 232 579 m 579 463 l 694 463 l 694 115 l 579 115 l 579 463 m 579 115 l 579 0 l 232 0 l 232 115 l 115 115 l 115 232 l 232 232 l 232 115 l 579 115 z "},"T":{"ha":694,"x_min":115,"x_max":694,"o":"m 347 0 l 347 810 l 115 810 l 115 926 l 694 926 l 694 810 l 463 810 l 463 0 l 347 0 z "},"U":{"ha":694,"x_min":115,"x_max":694,"o":"m 579 115 l 579 926 l 694 926 l 694 115 l 579 115 m 115 115 l 115 926 l 232 926 l 232 115 l 115 115 m 579 115 l 579 0 l 232 0 l 232 115 l 579 115 z "},"V":{"ha":694,"x_min":115,"x_max":694,"o":"m 347 0 l 347 232 l 232 232 l 232 579 l 115 579 l 115 926 l 232 926 l 232 579 l 347 579 l 347 232 l 463 232 l 463 579 l 579 579 l 579 926 l 694 926 l 694 579 l 579 579 l 579 232 l 463 232 l 463 0 l 347 0 z "},"W":{"ha":694,"x_min":115,"x_max":694,"o":"m 463 0 l 463 232 l 347 232 l 347 0 l 232 0 l 232 347 l 115 347 l 115 926 l 232 926 l 232 347 l 347 347 l 347 579 l 463 579 l 463 347 l 579 347 l 579 926 l 694 926 l 694 347 l 579 347 l 579 0 l 463 0 z "},"X":{"ha":694,"x_min":115,"x_max":694,"o":"m 579 0 l 579 232 l 463 232 l 463 347 l 347 347 l 347 579 l 232 579 l 232 694 l 115 694 l 115 926 l 232 926 l 232 694 l 347 694 l 347 579 l 463 579 l 463 694 l 579 694 l 579 926 l 694 926 l 694 694 l 579 694 l 579 579 l 463 579 l 463 347 l 579 347 l 579 232 l 694 232 l 694 0 l 579 0 m 115 0 l 115 232 l 232 232 l 232 347 l 347 347 l 347 232 l 232 232 l 232 0 l 115 0 z "},"Y":{"ha":694,"x_min":115,"x_max":694,"o":"m 347 0 l 347 463 l 232 463 l 232 579 l 115 579 l 115 926 l 232 926 l 232 579 l 347 579 l 347 463 l 463 463 l 463 579 l 579 579 l 579 926 l 694 926 l 694 579 l 579 579 l 579 463 l 463 463 l 463 0 l 347 0 z "},"Z":{"ha":694,"x_min":115,"x_max":694,"o":"m 115 926 l 694 926 l 694 810 l 579 810 l 579 694 l 463 694 l 463 810 l 115 810 l 115 926 m 463 694 l 463 463 l 347 463 l 347 694 l 463 694 m 347 463 l 347 232 l 232 232 l 232 463 l 347 463 m 232 232 l 232 115 l 694 115 l 694 0 l 115 0 l 115 232 l 232 232 z "},"[":{"ha":694,"x_min":232,"x_max":579,"o":"m 232 1042 l 579 1042 l 579 926 l 347 926 l 347 -115 l 579 -115 l 579 -232 l 232 -232 l 232 1042 z "},"\\":{"ha":694,"x_min":115,"x_max":694,"o":"m 579 -115 l 579 115 l 463 115 l 463 347 l 347 347 l 347 579 l 232 579 l 232 810 l 115 810 l 115 1042 l 232 1042 l 232 810 l 347 810 l 347 579 l 463 579 l 463 347 l 579 347 l 579 115 l 694 115 l 694 -115 l 579 -115 z "},"]":{"ha":694,"x_min":232,"x_max":579,"o":"m 232 1042 l 579 1042 l 579 -232 l 232 -232 l 232 -115 l 463 -115 l 463 926 l 232 926 l 232 1042 z "},"^":{"ha":694,"x_min":115,"x_max":694,"o":"m 579 810 l 579 926 l 463 926 l 463 1042 l 347 1042 l 347 1157 l 463 1157 l 463 1042 l 579 1042 l 579 926 l 694 926 l 694 810 l 579 810 m 115 810 l 115 926 l 232 926 l 232 1042 l 347 1042 l 347 926 l 232 926 l 232 810 l 115 810 z "},"_":{"ha":694,"x_min":115,"x_max":694,"o":"m 115 0 l 694 0 l 694 -115 l 115 -115 l 115 0 z "},"`":{"ha":694,"x_min":232,"x_max":463,"o":"m 347 810 l 347 926 l 232 926 l 232 1042 l 347 1042 l 347 926 l 463 926 l 463 810 l 347 810 z "},"a":{"ha":694,"x_min":115,"x_max":694,"o":"m 579 0 l 579 115 l 463 115 l 463 232 l 579 232 l 579 579 l 232 579 l 232 694 l 694 694 l 694 0 l 579 0 m 232 579 l 232 115 l 115 115 l 115 579 l 232 579 m 463 115 l 463 0 l 232 0 l 232 115 l 463 115 z "},"b":{"ha":694,"x_min":115,"x_max":694,"o":"m 115 0 l 115 1042 l 232 1042 l 232 694 l 579 694 l 579 579 l 694 579 l 694 115 l 579 115 l 579 0 l 115 0 m 579 579 l 232 579 l 232 115 l 579 115 l 579 579 z "},"c":{"ha":694,"x_min":115,"x_max":694,"o":"m 579 463 l 579 579 l 232 579 l 232 694 l 579 694 l 579 579 l 694 579 l 694 463 l 579 463 m 232 579 l 232 115 l 115 115 l 115 579 l 232 579 m 579 115 l 579 232 l 694 232 l 694 115 l 579 115 m 579 115 l 579 0 l 232 0 l 232 115 l 579 115 z "},"d":{"ha":694,"x_min":115,"x_max":694,"o":"m 579 694 l 579 1042 l 694 1042 l 694 0 l 232 0 l 232 115 l 115 115 l 115 579 l 232 579 l 232 115 l 579 115 l 579 579 l 232 579 l 232 694 l 579 694 z "},"e":{"ha":694,"x_min":115,"x_max":694,"o":"m 232 694 l 579 694 l 579 579 l 232 579 l 232 694 m 579 579 l 694 579 l 694 347 l 232 347 l 232 115 l 115 115 l 115 579 l 232 579 l 232 463 l 579 463 l 579 579 m 579 115 l 579 232 l 694 232 l 694 115 l 579 115 m 579 115 l 579 0 l 232 0 l 232 115 l 579 115 z "},"f":{"ha":694,"x_min":115,"x_max":694,"o":"m 232 0 l 232 579 l 115 579 l 115 694 l 232 694 l 232 926 l 347 926 l 347 1042 l 694 1042 l 694 926 l 347 926 l 347 694 l 579 694 l 579 579 l 347 579 l 347 0 l 232 0 z "},"g":{"ha":694,"x_min":115,"x_max":694,"o":"m 232 694 l 694 694 l 694 -232 l 579 -232 l 579 0 l 232 0 l 232 115 l 115 115 l 115 579 l 232 579 l 232 115 l 579 115 l 579 579 l 232 579 l 232 694 m 579 -232 l 579 -347 l 232 -347 l 232 -232 l 579 -232 z "},"h":{"ha":694,"x_min":115,"x_max":694,"o":"m 579 0 l 579 579 l 232 579 l 232 0 l 115 0 l 115 1042 l 232 1042 l 232 694 l 579 694 l 579 579 l 694 579 l 694 0 l 579 0 z "},"i":{"ha":694,"x_min":232,"x_max":694,"o":"m 347 810 l 347 926 l 463 926 l 463 810 l 347 810 m 232 694 l 463 694 l 463 115 l 347 115 l 347 579 l 232 579 l 232 694 m 463 115 l 694 115 l 694 0 l 463 0 l 463 115 z "},"j":{"ha":694,"x_min":232,"x_max":579,"o":"m 463 810 l 463 926 l 579 926 l 579 810 l 463 810 m 347 -232 l 347 -115 l 232 -115 l 232 0 l 347 0 l 347 -115 l 463 -115 l 463 579 l 347 579 l 347 694 l 579 694 l 579 -115 l 463 -115 l 463 -232 l 347 -232 z "},"k":{"ha":694,"x_min":115,"x_max":694,"o":"m 579 0 l 579 115 l 463 115 l 463 232 l 232 232 l 232 0 l 115 0 l 115 1042 l 232 1042 l 232 347 l 347 347 l 347 463 l 463 463 l 463 579 l 579 579 l 579 694 l 694 694 l 694 579 l 579 579 l 579 463 l 463 463 l 463 232 l 579 232 l 579 115 l 694 115 l 694 0 l 579 0 z "},"l":{"ha":694,"x_min":232,"x_max":579,"o":"m 232 1042 l 463 1042 l 463 115 l 579 115 l 579 0 l 347 0 l 347 926 l 232 926 l 232 1042 z "},"m":{"ha":694,"x_min":115,"x_max":694,"o":"m 579 0 l 579 579 l 463 579 l 463 694 l 579 694 l 579 579 l 694 579 l 694 0 l 579 0 m 347 0 l 347 579 l 232 579 l 232 0 l 115 0 l 115 694 l 347 694 l 347 579 l 463 579 l 463 0 l 347 0 z "},"n":{"ha":694,"x_min":115,"x_max":694,"o":"m 579 0 l 579 579 l 232 579 l 232 0 l 115 0 l 115 694 l 579 694 l 579 579 l 694 579 l 694 0 l 579 0 z "},"o":{"ha":694,"x_min":115,"x_max":694,"o":"m 232 694 l 579 694 l 579 579 l 232 579 l 232 694 m 579 579 l 694 579 l 694 115 l 579 115 l 579 579 m 232 579 l 232 115 l 115 115 l 115 579 l 232 579 m 579 115 l 579 0 l 232 0 l 232 115 l 579 115 z "},"p":{"ha":694,"x_min":115,"x_max":694,"o":"m 115 -347 l 115 694 l 579 694 l 579 579 l 694 579 l 694 115 l 579 115 l 579 0 l 232 0 l 232 -347 l 115 -347 m 579 579 l 232 579 l 232 115 l 579 115 l 579 579 z "},"q":{"ha":694,"x_min":115,"x_max":810,"o":"m 232 694 l 694 694 l 694 -232 l 810 -232 l 810 -347 l 579 -347 l 579 0 l 232 0 l 232 115 l 115 115 l 115 579 l 232 579 l 232 115 l 579 115 l 579 579 l 232 579 l 232 694 z "},"r":{"ha":694,"x_min":115,"x_max":694,"o":"m 579 463 l 579 579 l 232 579 l 232 0 l 115 0 l 115 694 l 579 694 l 579 579 l 694 579 l 694 463 l 579 463 z "},"s":{"ha":694,"x_min":115,"x_max":694,"o":"m 232 694 l 694 694 l 694 579 l 232 579 l 232 694 m 232 579 l 232 463 l 115 463 l 115 579 l 232 579 m 232 463 l 579 463 l 579 347 l 232 347 l 232 463 m 579 347 l 694 347 l 694 115 l 579 115 l 579 347 m 579 115 l 579 0 l 115 0 l 115 115 l 579 115 z "},"t":{"ha":694,"x_min":115,"x_max":694,"o":"m 232 694 l 232 926 l 347 926 l 347 694 l 579 694 l 579 579 l 347 579 l 347 115 l 232 115 l 232 579 l 115 579 l 115 694 l 232 694 m 347 115 l 694 115 l 694 0 l 347 0 l 347 115 z "},"u":{"ha":694,"x_min":115,"x_max":694,"o":"m 579 115 l 579 694 l 694 694 l 694 0 l 232 0 l 232 115 l 115 115 l 115 694 l 232 694 l 232 115 l 579 115 z "},"v":{"ha":694,"x_min":115,"x_max":694,"o":"m 347 0 l 347 232 l 232 232 l 232 463 l 115 463 l 115 694 l 232 694 l 232 463 l 347 463 l 347 232 l 463 232 l 463 463 l 579 463 l 579 694 l 694 694 l 694 463 l 579 463 l 579 232 l 463 232 l 463 0 l 347 0 z "},"w":{"ha":694,"x_min":115,"x_max":694,"o":"m 463 0 l 463 232 l 347 232 l 347 463 l 463 463 l 463 232 l 579 232 l 579 694 l 694 694 l 694 232 l 579 232 l 579 0 l 463 0 m 232 0 l 232 232 l 115 232 l 115 694 l 232 694 l 232 232 l 347 232 l 347 0 l 232 0 z "},"x":{"ha":694,"x_min":115,"x_max":694,"o":"m 579 0 l 579 115 l 463 115 l 463 232 l 347 232 l 347 463 l 232 463 l 232 579 l 115 579 l 115 694 l 232 694 l 232 579 l 347 579 l 347 463 l 463 463 l 463 579 l 579 579 l 579 694 l 694 694 l 694 579 l 579 579 l 579 463 l 463 463 l 463 232 l 579 232 l 579 115 l 694 115 l 694 0 l 579 0 m 115 0 l 115 115 l 232 115 l 232 232 l 347 232 l 347 115 l 232 115 l 232 0 l 115 0 z "},"y":{"ha":694,"x_min":115,"x_max":694,"o":"m 579 115 l 579 694 l 694 694 l 694 -232 l 579 -232 l 579 0 l 232 0 l 232 115 l 115 115 l 115 694 l 232 694 l 232 115 l 579 115 m 579 -232 l 579 -347 l 232 -347 l 232 -232 l 579 -232 z "},"z":{"ha":694,"x_min":115,"x_max":694,"o":"m 115 694 l 694 694 l 694 579 l 579 579 l 579 463 l 463 463 l 463 579 l 115 579 l 115 694 m 463 463 l 463 347 l 347 347 l 347 463 l 463 463 m 347 347 l 347 232 l 232 232 l 232 347 l 347 347 m 232 232 l 232 115 l 694 115 l 694 0 l 115 0 l 115 232 l 232 232 z "},"{":{"ha":694,"x_min":115,"x_max":694,"o":"m 463 1042 l 694 1042 l 694 926 l 463 926 l 463 1042 m 463 926 l 463 463 l 347 463 l 347 926 l 463 926 m 347 463 l 347 347 l 115 347 l 115 463 l 347 463 m 347 347 l 463 347 l 463 -115 l 347 -115 l 347 347 m 463 -115 l 694 -115 l 694 -232 l 463 -232 l 463 -115 z "},"|":{"ha":694,"x_min":347,"x_max":463,"o":"m 347 -232 l 347 1042 l 463 1042 l 463 -232 l 347 -232 z "},"}":{"ha":694,"x_min":115,"x_max":694,"o":"m 115 1042 l 347 1042 l 347 926 l 115 926 l 115 1042 m 347 926 l 463 926 l 463 463 l 347 463 l 347 926 m 463 463 l 694 463 l 694 347 l 463 347 l 463 463 m 463 347 l 463 -115 l 347 -115 l 347 347 l 463 347 m 347 -115 l 347 -232 l 115 -232 l 115 -115 l 347 -115 z "},"~":{"ha":694,"x_min":115,"x_max":694,"o":"m 463 232 l 463 347 l 347 347 l 347 463 l 232 463 l 232 579 l 347 579 l 347 463 l 463 463 l 463 347 l 579 347 l 579 579 l 694 579 l 694 347 l 579 347 l 579 232 l 463 232 m 115 232 l 115 463 l 232 463 l 232 232 l 115 232 z "},"":{"ha":694,"x_min":0,"x_max":0,"o":""}," ":{"ha":694,"x_min":0,"x_max":0,"o":""},"¡":{"ha":694,"x_min":347,"x_max":463,"o":"m 347 579 l 347 694 l 463 694 l 463 579 l 347 579 m 347 -232 l 347 463 l 463 463 l 463 -232 l 347 -232 z "},"¢":{"ha":694,"x_min":115,"x_max":694,"o":"m 579 463 l 579 579 l 463 579 l 463 115 l 579 115 l 579 232 l 694 232 l 694 115 l 579 115 l 579 0 l 463 0 l 463 -115 l 347 -115 l 347 0 l 232 0 l 232 115 l 115 115 l 115 579 l 232 579 l 232 115 l 347 115 l 347 579 l 232 579 l 232 694 l 347 694 l 347 810 l 463 810 l 463 694 l 579 694 l 579 579 l 694 579 l 694 463 l 579 463 z "},"£":{"ha":694,"x_min":115,"x_max":694,"o":"m 115 0 l 115 115 l 232 115 l 232 463 l 115 463 l 115 579 l 232 579 l 232 810 l 347 810 l 347 926 l 579 926 l 579 810 l 347 810 l 347 579 l 579 579 l 579 463 l 347 463 l 347 115 l 232 115 l 232 0 l 115 0 m 347 115 l 694 115 l 694 0 l 347 0 l 347 115 z "},"¤":{"ha":694,"x_min":115,"x_max":694,"o":"m 579 0 l 579 115 l 232 115 l 232 579 l 115 579 l 115 694 l 232 694 l 232 579 l 579 579 l 579 694 l 694 694 l 694 579 l 579 579 l 579 115 l 694 115 l 694 0 l 579 0 m 115 0 l 115 115 l 232 115 l 232 0 l 115 0 m 463 463 l 347 463 l 347 232 l 463 232 l 463 463 z "},"¥":{"ha":694,"x_min":115,"x_max":694,"o":"m 347 0 l 347 115 l 115 115 l 115 232 l 347 232 l 347 347 l 115 347 l 115 463 l 347 463 l 347 579 l 232 579 l 232 694 l 115 694 l 115 1042 l 232 1042 l 232 694 l 347 694 l 347 579 l 463 579 l 463 694 l 579 694 l 579 1042 l 694 1042 l 694 694 l 579 694 l 579 579 l 463 579 l 463 463 l 694 463 l 694 347 l 463 347 l 463 232 l 694 232 l 694 115 l 463 115 l 463 0 l 347 0 z "},"¦":{"ha":694,"x_min":347,"x_max":463,"o":"m 347 579 l 347 1042 l 463 1042 l 463 579 l 347 579 m 347 -232 l 347 232 l 463 232 l 463 -232 l 347 -232 z "},"§":{"ha":694,"x_min":115,"x_max":694,"o":"m 579 810 l 579 926 l 232 926 l 232 1042 l 579 1042 l 579 926 l 694 926 l 694 810 l 579 810 m 232 926 l 232 694 l 115 694 l 115 926 l 232 926 m 232 694 l 463 694 l 463 579 l 347 579 l 347 347 l 232 347 l 232 694 m 463 579 l 579 579 l 579 232 l 347 232 l 347 347 l 463 347 l 463 579 m 579 232 l 694 232 l 694 0 l 579 0 l 579 232 m 579 0 l 579 -115 l 232 -115 l 232 0 l 115 0 l 115 115 l 232 115 l 232 0 l 579 0 z "},"¨":{"ha":694,"x_min":232,"x_max":579,"o":"m 463 926 l 463 1042 l 579 1042 l 579 926 l 463 926 m 232 926 l 232 1042 l 347 1042 l 347 926 l 232 926 z "},"©":{"ha":694,"x_min":0,"x_max":810,"o":"m 232 810 l 579 810 l 579 694 l 232 694 l 232 810 m 579 694 l 694 694 l 694 579 l 579 579 l 579 694 m 232 694 l 232 579 l 115 579 l 115 694 l 232 694 m 694 579 l 810 579 l 810 232 l 694 232 l 694 579 m 579 579 l 579 463 l 347 463 l 347 347 l 579 347 l 579 232 l 232 232 l 232 579 l 579 579 m 115 579 l 115 232 l 0 232 l 0 579 l 115 579 m 579 232 l 694 232 l 694 115 l 579 115 l 579 232 m 115 232 l 232 232 l 232 115 l 115 115 l 115 232 m 579 115 l 579 0 l 232 0 l 232 115 l 579 115 z "},"ª":{"ha":694,"x_min":232,"x_max":694,"o":"m 347 926 l 579 926 l 579 810 l 347 810 l 347 926 m 579 810 l 694 810 l 694 347 l 347 347 l 347 463 l 232 463 l 232 579 l 347 579 l 347 463 l 579 463 l 579 579 l 347 579 l 347 694 l 579 694 l 579 810 z "},"«":{"ha":694,"x_min":115,"x_max":694,"o":"m 579 115 l 579 232 l 463 232 l 463 347 l 347 347 l 347 463 l 232 463 l 232 579 l 347 579 l 347 463 l 463 463 l 463 579 l 347 579 l 347 694 l 463 694 l 463 579 l 579 579 l 579 694 l 694 694 l 694 579 l 579 579 l 579 463 l 463 463 l 463 347 l 579 347 l 579 232 l 694 232 l 694 115 l 579 115 m 347 115 l 347 232 l 232 232 l 232 347 l 115 347 l 115 463 l 232 463 l 232 347 l 347 347 l 347 232 l 463 232 l 463 115 l 347 115 z "},"¬":{"ha":694,"x_min":115,"x_max":579,"o":"m 463 0 l 463 347 l 115 347 l 115 463 l 579 463 l 579 0 l 463 0 z "},"­":{"ha":694,"x_min":232,"x_max":579,"o":"m 232 463 l 579 463 l 579 347 l 232 347 l 232 463 z "},"®":{"ha":694,"x_min":0,"x_max":810,"o":"m 232 810 l 579 810 l 579 694 l 232 694 l 232 810 m 579 694 l 694 694 l 694 579 l 579 579 l 579 694 m 232 694 l 232 579 l 115 579 l 115 694 l 232 694 m 694 579 l 810 579 l 810 232 l 694 232 l 694 579 m 579 579 l 579 463 l 347 463 l 347 232 l 232 232 l 232 579 l 579 579 m 115 579 l 115 232 l 0 232 l 0 579 l 115 579 m 694 232 l 694 115 l 579 115 l 579 232 l 694 232 m 115 232 l 232 232 l 232 115 l 115 115 l 115 232 m 579 115 l 579 0 l 232 0 l 232 115 l 579 115 z "},"¯":{"ha":694,"x_min":0,"x_max":810,"o":"m 0 1157 l 810 1157 l 810 1042 l 0 1042 l 0 1157 z "},"°":{"ha":694,"x_min":115,"x_max":579,"o":"m 232 926 l 463 926 l 463 810 l 232 810 l 232 926 m 463 810 l 579 810 l 579 579 l 463 579 l 463 810 m 232 810 l 232 579 l 115 579 l 115 810 l 232 810 m 463 579 l 463 463 l 232 463 l 232 579 l 463 579 z "},"±":{"ha":694,"x_min":115,"x_max":694,"o":"m 347 232 l 347 463 l 115 463 l 115 579 l 347 579 l 347 810 l 463 810 l 463 579 l 694 579 l 694 463 l 463 463 l 463 232 l 347 232 m 115 115 l 694 115 l 694 0 l 115 0 l 115 115 z "},"²":{"ha":694,"x_min":115,"x_max":579,"o":"m 115 810 l 115 926 l 232 926 l 232 1042 l 463 1042 l 463 926 l 232 926 l 232 810 l 115 810 m 463 926 l 579 926 l 579 810 l 463 810 l 463 926 m 463 810 l 463 694 l 347 694 l 347 810 l 463 810 m 347 694 l 347 579 l 579 579 l 579 463 l 115 463 l 115 579 l 232 579 l 232 694 l 347 694 z "},"³":{"ha":694,"x_min":115,"x_max":579,"o":"m 115 1042 l 463 1042 l 463 926 l 115 926 l 115 1042 m 463 926 l 579 926 l 579 810 l 463 810 l 463 926 m 463 810 l 463 694 l 232 694 l 232 810 l 463 810 m 463 694 l 579 694 l 579 579 l 463 579 l 463 694 m 463 579 l 463 463 l 115 463 l 115 579 l 463 579 z "},"´":{"ha":694,"x_min":347,"x_max":579,"o":"m 347 810 l 347 926 l 463 926 l 463 1042 l 579 1042 l 579 926 l 463 926 l 463 810 l 347 810 z "},"µ":{"ha":694,"x_min":115,"x_max":694,"o":"m 463 0 l 463 115 l 347 115 l 347 -115 l 232 -115 l 232 694 l 347 694 l 347 232 l 463 232 l 463 115 l 579 115 l 579 694 l 694 694 l 694 115 l 579 115 l 579 0 l 463 0 m 115 -232 l 115 -115 l 232 -115 l 232 -232 l 115 -232 z "},"¶":{"ha":694,"x_min":115,"x_max":694,"o":"m 579 -115 l 579 810 l 463 810 l 463 -115 l 347 -115 l 347 463 l 232 463 l 232 579 l 115 579 l 115 810 l 232 810 l 232 926 l 694 926 l 694 -115 l 579 -115 z "},"·":{"ha":694,"x_min":232,"x_max":579,"o":"m 347 232 l 347 347 l 232 347 l 232 463 l 347 463 l 347 579 l 463 579 l 463 463 l 579 463 l 579 347 l 463 347 l 463 232 l 347 232 z "},"¸":{"ha":694,"x_min":232,"x_max":579,"o":"m 463 0 l 347 0 l 347 115 l 463 115 l 463 0 m 463 0 l 579 0 l 579 -115 l 463 -115 l 463 0 m 463 -115 l 463 -232 l 232 -232 l 232 -115 l 463 -115 z "},"¹":{"ha":694,"x_min":115,"x_max":463,"o":"m 347 1042 l 347 579 l 463 579 l 463 463 l 115 463 l 115 579 l 232 579 l 232 810 l 115 810 l 115 926 l 232 926 l 232 1042 l 347 1042 z "},"º":{"ha":694,"x_min":347,"x_max":694,"o":"m 463 579 l 463 694 l 347 694 l 347 810 l 463 810 l 463 694 l 579 694 l 579 810 l 463 810 l 463 926 l 579 926 l 579 810 l 694 810 l 694 694 l 579 694 l 579 579 l 463 579 m 347 463 l 694 463 l 694 347 l 347 347 l 347 463 z "},"»":{"ha":694,"x_min":115,"x_max":694,"o":"m 347 115 l 347 232 l 232 232 l 232 347 l 347 347 l 347 232 l 463 232 l 463 347 l 347 347 l 347 463 l 232 463 l 232 579 l 115 579 l 115 694 l 232 694 l 232 579 l 347 579 l 347 463 l 463 463 l 463 347 l 579 347 l 579 463 l 463 463 l 463 579 l 347 579 l 347 694 l 463 694 l 463 579 l 579 579 l 579 463 l 694 463 l 694 347 l 579 347 l 579 232 l 463 232 l 463 115 l 347 115 m 115 115 l 115 232 l 232 232 l 232 115 l 115 115 z "},"¼":{"ha":694,"x_min":115,"x_max":694,"o":"m 115 579 l 115 1042 l 232 1042 l 232 579 l 115 579 m 579 0 l 579 115 l 347 115 l 347 232 l 232 232 l 232 463 l 347 463 l 347 694 l 463 694 l 463 926 l 579 926 l 579 1042 l 694 1042 l 694 926 l 579 926 l 579 694 l 463 694 l 463 463 l 347 463 l 347 232 l 463 232 l 463 347 l 579 347 l 579 463 l 694 463 l 694 0 l 579 0 m 115 0 l 115 232 l 232 232 l 232 0 l 115 0 z "},"½":{"ha":694,"x_min":115,"x_max":694,"o":"m 115 579 l 115 1042 l 232 1042 l 232 579 l 115 579 m 115 0 l 115 232 l 232 232 l 232 463 l 347 463 l 347 694 l 463 694 l 463 926 l 579 926 l 579 1042 l 694 1042 l 694 926 l 579 926 l 579 694 l 463 694 l 463 463 l 347 463 l 347 232 l 232 232 l 232 0 l 115 0 m 463 463 l 579 463 l 579 347 l 463 347 l 463 463 m 579 347 l 694 347 l 694 232 l 579 232 l 579 347 m 579 232 l 579 115 l 694 115 l 694 0 l 463 0 l 463 232 l 579 232 z "},"¾":{"ha":694,"x_min":115,"x_max":694,"o":"m 579 0 l 579 115 l 347 115 l 347 232 l 232 232 l 232 463 l 115 463 l 115 579 l 232 579 l 232 694 l 115 694 l 115 810 l 232 810 l 232 926 l 115 926 l 115 1042 l 347 1042 l 347 810 l 232 810 l 232 694 l 463 694 l 463 926 l 579 926 l 579 1042 l 694 1042 l 694 926 l 579 926 l 579 694 l 463 694 l 463 463 l 347 463 l 347 232 l 463 232 l 463 347 l 579 347 l 579 463 l 694 463 l 694 0 l 579 0 m 115 0 l 115 232 l 232 232 l 232 0 l 115 0 z "},"¿":{"ha":694,"x_min":115,"x_max":694,"o":"m 347 579 l 347 694 l 463 694 l 463 579 l 347 579 m 347 232 l 347 463 l 463 463 l 463 232 l 347 232 m 347 232 l 347 115 l 232 115 l 232 232 l 347 232 m 232 115 l 232 -115 l 115 -115 l 115 115 l 232 115 m 579 -115 l 579 0 l 694 0 l 694 -115 l 579 -115 m 579 -115 l 579 -232 l 232 -232 l 232 -115 l 579 -115 z "},"À":{"ha":694,"x_min":115,"x_max":694,"o":"m 347 926 l 347 1042 l 232 1042 l 232 1157 l 347 1157 l 347 1042 l 463 1042 l 463 926 l 347 926 m 579 0 l 579 347 l 232 347 l 232 0 l 115 0 l 115 694 l 232 694 l 232 463 l 579 463 l 579 694 l 232 694 l 232 810 l 579 810 l 579 694 l 694 694 l 694 0 l 579 0 z "},"Á":{"ha":694,"x_min":115,"x_max":694,"o":"m 347 926 l 347 1042 l 463 1042 l 463 1157 l 579 1157 l 579 1042 l 463 1042 l 463 926 l 347 926 m 579 0 l 579 347 l 232 347 l 232 0 l 115 0 l 115 694 l 232 694 l 232 463 l 579 463 l 579 694 l 232 694 l 232 810 l 579 810 l 579 694 l 694 694 l 694 0 l 579 0 z "},"Â":{"ha":694,"x_min":115,"x_max":694,"o":"m 463 926 l 463 1042 l 347 1042 l 347 1157 l 463 1157 l 463 1042 l 579 1042 l 579 926 l 463 926 m 232 926 l 232 1042 l 347 1042 l 347 926 l 232 926 m 579 0 l 579 347 l 232 347 l 232 0 l 115 0 l 115 694 l 232 694 l 232 463 l 579 463 l 579 694 l 232 694 l 232 810 l 579 810 l 579 694 l 694 694 l 694 0 l 579 0 z "},"Ã":{"ha":694,"x_min":115,"x_max":694,"o":"m 115 926 l 115 1042 l 232 1042 l 232 1157 l 463 1157 l 463 1042 l 579 1042 l 579 1157 l 694 1157 l 694 1042 l 579 1042 l 579 926 l 347 926 l 347 1042 l 232 1042 l 232 926 l 115 926 m 579 0 l 579 347 l 232 347 l 232 0 l 115 0 l 115 694 l 232 694 l 232 463 l 579 463 l 579 694 l 232 694 l 232 810 l 579 810 l 579 694 l 694 694 l 694 0 l 579 0 z "},"Ä":{"ha":694,"x_min":115,"x_max":694,"o":"m 463 926 l 463 1042 l 579 1042 l 579 926 l 463 926 m 232 926 l 232 1042 l 347 1042 l 347 926 l 232 926 m 579 0 l 579 347 l 232 347 l 232 0 l 115 0 l 115 694 l 232 694 l 232 463 l 579 463 l 579 694 l 232 694 l 232 810 l 579 810 l 579 694 l 694 694 l 694 0 l 579 0 z "},"Å":{"ha":694,"x_min":115,"x_max":694,"o":"m 347 810 l 347 926 l 232 926 l 232 1042 l 347 1042 l 347 926 l 463 926 l 463 1042 l 347 1042 l 347 1157 l 463 1157 l 463 1042 l 579 1042 l 579 926 l 463 926 l 463 810 l 347 810 m 579 0 l 579 232 l 232 232 l 232 0 l 115 0 l 115 579 l 232 579 l 232 347 l 579 347 l 579 579 l 232 579 l 232 694 l 579 694 l 579 579 l 694 579 l 694 0 l 579 0 z "},"Æ":{"ha":694,"x_min":115,"x_max":694,"o":"m 115 0 l 115 810 l 232 810 l 232 463 l 347 463 l 347 810 l 232 810 l 232 926 l 694 926 l 694 810 l 463 810 l 463 579 l 694 579 l 694 463 l 463 463 l 463 115 l 694 115 l 694 0 l 347 0 l 347 347 l 232 347 l 232 0 l 115 0 z "},"Ç":{"ha":694,"x_min":115,"x_max":694,"o":"m 579 694 l 579 810 l 232 810 l 232 926 l 579 926 l 579 810 l 694 810 l 694 694 l 579 694 m 232 -347 l 232 -232 l 347 -232 l 347 0 l 232 0 l 232 115 l 115 115 l 115 810 l 232 810 l 232 115 l 579 115 l 579 232 l 694 232 l 694 115 l 579 115 l 579 0 l 463 0 l 463 -232 l 347 -232 l 347 -347 l 232 -347 z "},"È":{"ha":694,"x_min":115,"x_max":694,"o":"m 347 926 l 347 1042 l 232 1042 l 232 1157 l 347 1157 l 347 1042 l 463 1042 l 463 926 l 347 926 m 115 810 l 694 810 l 694 694 l 232 694 l 232 463 l 579 463 l 579 347 l 232 347 l 232 115 l 694 115 l 694 0 l 115 0 l 115 810 z "},"É":{"ha":694,"x_min":115,"x_max":694,"o":"m 347 926 l 347 1042 l 463 1042 l 463 1157 l 579 1157 l 579 1042 l 463 1042 l 463 926 l 347 926 m 115 810 l 694 810 l 694 694 l 232 694 l 232 463 l 579 463 l 579 347 l 232 347 l 232 115 l 694 115 l 694 0 l 115 0 l 115 810 z "},"Ê":{"ha":694,"x_min":115,"x_max":694,"o":"m 463 926 l 463 1042 l 347 1042 l 347 1157 l 463 1157 l 463 1042 l 579 1042 l 579 926 l 463 926 m 232 926 l 232 1042 l 347 1042 l 347 926 l 232 926 m 115 810 l 694 810 l 694 694 l 232 694 l 232 463 l 579 463 l 579 347 l 232 347 l 232 115 l 694 115 l 694 0 l 115 0 l 115 810 z "},"Ë":{"ha":694,"x_min":115,"x_max":694,"o":"m 463 926 l 463 1042 l 579 1042 l 579 926 l 463 926 m 232 926 l 232 1042 l 347 1042 l 347 926 l 232 926 m 115 810 l 694 810 l 694 694 l 232 694 l 232 463 l 579 463 l 579 347 l 232 347 l 232 115 l 694 115 l 694 0 l 115 0 l 115 810 z "},"Ì":{"ha":694,"x_min":232,"x_max":579,"o":"m 347 926 l 347 1042 l 232 1042 l 232 1157 l 347 1157 l 347 1042 l 463 1042 l 463 926 l 347 926 m 232 810 l 579 810 l 579 694 l 463 694 l 463 115 l 579 115 l 579 0 l 232 0 l 232 115 l 347 115 l 347 694 l 232 694 l 232 810 z "},"Í":{"ha":694,"x_min":232,"x_max":579,"o":"m 347 926 l 347 1042 l 463 1042 l 463 1157 l 579 1157 l 579 1042 l 463 1042 l 463 926 l 347 926 m 232 810 l 579 810 l 579 694 l 463 694 l 463 115 l 579 115 l 579 0 l 232 0 l 232 115 l 347 115 l 347 694 l 232 694 l 232 810 z "},"Î":{"ha":694,"x_min":232,"x_max":579,"o":"m 463 926 l 463 1042 l 347 1042 l 347 1157 l 463 1157 l 463 1042 l 579 1042 l 579 926 l 463 926 m 232 926 l 232 1042 l 347 1042 l 347 926 l 232 926 m 232 810 l 579 810 l 579 694 l 463 694 l 463 115 l 579 115 l 579 0 l 232 0 l 232 115 l 347 115 l 347 694 l 232 694 l 232 810 z "},"Ï":{"ha":694,"x_min":232,"x_max":579,"o":"m 463 926 l 463 1042 l 579 1042 l 579 926 l 463 926 m 232 926 l 232 1042 l 347 1042 l 347 926 l 232 926 m 232 810 l 579 810 l 579 694 l 463 694 l 463 115 l 579 115 l 579 0 l 232 0 l 232 115 l 347 115 l 347 694 l 232 694 l 232 810 z "},"Ð":{"ha":694,"x_min":115,"x_max":694,"o":"m 232 810 l 579 810 l 579 694 l 694 694 l 694 115 l 579 115 l 579 0 l 232 0 l 232 347 l 115 347 l 115 463 l 232 463 l 232 810 m 579 694 l 347 694 l 347 463 l 463 463 l 463 347 l 347 347 l 347 115 l 579 115 l 579 694 z "},"Ñ":{"ha":694,"x_min":115,"x_max":694,"o":"m 115 926 l 115 1042 l 232 1042 l 232 1157 l 463 1157 l 463 1042 l 579 1042 l 579 1157 l 694 1157 l 694 1042 l 579 1042 l 579 926 l 347 926 l 347 1042 l 232 1042 l 232 926 l 115 926 m 579 0 l 579 115 l 463 115 l 463 347 l 347 347 l 347 463 l 232 463 l 232 0 l 115 0 l 115 810 l 232 810 l 232 694 l 347 694 l 347 463 l 463 463 l 463 347 l 579 347 l 579 810 l 694 810 l 694 0 l 579 0 z "},"Ò":{"ha":694,"x_min":115,"x_max":694,"o":"m 347 926 l 347 1042 l 232 1042 l 232 1157 l 347 1157 l 347 1042 l 463 1042 l 463 926 l 347 926 m 232 810 l 579 810 l 579 694 l 232 694 l 232 810 m 579 694 l 694 694 l 694 115 l 579 115 l 579 694 m 232 694 l 232 115 l 115 115 l 115 694 l 232 694 m 579 115 l 579 0 l 232 0 l 232 115 l 579 115 z "},"Ó":{"ha":694,"x_min":115,"x_max":694,"o":"m 347 926 l 347 1042 l 463 1042 l 463 1157 l 579 1157 l 579 1042 l 463 1042 l 463 926 l 347 926 m 232 810 l 579 810 l 579 694 l 232 694 l 232 810 m 579 694 l 694 694 l 694 115 l 579 115 l 579 694 m 232 694 l 232 115 l 115 115 l 115 694 l 232 694 m 579 115 l 579 0 l 232 0 l 232 115 l 579 115 z "},"Ô":{"ha":694,"x_min":115,"x_max":694,"o":"m 463 926 l 463 1042 l 347 1042 l 347 1157 l 463 1157 l 463 1042 l 579 1042 l 579 926 l 463 926 m 232 926 l 232 1042 l 347 1042 l 347 926 l 232 926 m 232 810 l 579 810 l 579 694 l 232 694 l 232 810 m 579 694 l 694 694 l 694 115 l 579 115 l 579 694 m 232 694 l 232 115 l 115 115 l 115 694 l 232 694 m 579 115 l 579 0 l 232 0 l 232 115 l 579 115 z "},"Õ":{"ha":694,"x_min":115,"x_max":694,"o":"m 115 926 l 115 1042 l 232 1042 l 232 1157 l 463 1157 l 463 1042 l 579 1042 l 579 1157 l 694 1157 l 694 1042 l 579 1042 l 579 926 l 347 926 l 347 1042 l 232 1042 l 232 926 l 115 926 m 232 810 l 579 810 l 579 694 l 232 694 l 232 810 m 579 694 l 694 694 l 694 115 l 579 115 l 579 694 m 232 694 l 232 115 l 115 115 l 115 694 l 232 694 m 579 115 l 579 0 l 232 0 l 232 115 l 579 115 z "},"Ö":{"ha":694,"x_min":115,"x_max":694,"o":"m 463 1042 l 463 1157 l 579 1157 l 579 1042 l 463 1042 m 232 1042 l 232 1157 l 347 1157 l 347 1042 l 232 1042 m 232 926 l 579 926 l 579 810 l 232 810 l 232 926 m 579 810 l 694 810 l 694 115 l 579 115 l 579 810 m 232 810 l 232 115 l 115 115 l 115 810 l 232 810 m 579 115 l 579 0 l 232 0 l 232 115 l 579 115 z "},"×":{"ha":694,"x_min":115,"x_max":694,"o":"m 579 115 l 579 232 l 463 232 l 463 347 l 347 347 l 347 463 l 232 463 l 232 579 l 115 579 l 115 694 l 232 694 l 232 579 l 347 579 l 347 463 l 463 463 l 463 579 l 579 579 l 579 694 l 694 694 l 694 579 l 579 579 l 579 463 l 463 463 l 463 347 l 579 347 l 579 232 l 694 232 l 694 115 l 579 115 m 115 115 l 115 232 l 232 232 l 232 347 l 347 347 l 347 232 l 232 232 l 232 115 l 115 115 z "},"Ø":{"ha":694,"x_min":115,"x_max":694,"o":"m 115 -115 l 115 0 l 232 0 l 232 115 l 115 115 l 115 810 l 232 810 l 232 347 l 347 347 l 347 579 l 463 579 l 463 347 l 347 347 l 347 115 l 579 115 l 579 579 l 463 579 l 463 810 l 232 810 l 232 926 l 579 926 l 579 1042 l 694 1042 l 694 926 l 579 926 l 579 810 l 694 810 l 694 115 l 579 115 l 579 0 l 232 0 l 232 -115 l 115 -115 z "},"Ù":{"ha":694,"x_min":115,"x_max":694,"o":"m 347 926 l 347 1042 l 232 1042 l 232 1157 l 347 1157 l 347 1042 l 463 1042 l 463 926 l 347 926 m 579 115 l 579 810 l 694 810 l 694 115 l 579 115 m 115 115 l 115 810 l 232 810 l 232 115 l 115 115 m 579 115 l 579 0 l 232 0 l 232 115 l 579 115 z "},"Ú":{"ha":694,"x_min":115,"x_max":694,"o":"m 347 926 l 347 1042 l 463 1042 l 463 1157 l 579 1157 l 579 1042 l 463 1042 l 463 926 l 347 926 m 579 115 l 579 810 l 694 810 l 694 115 l 579 115 m 115 115 l 115 810 l 232 810 l 232 115 l 115 115 m 579 115 l 579 0 l 232 0 l 232 115 l 579 115 z "},"Û":{"ha":694,"x_min":115,"x_max":694,"o":"m 463 926 l 463 1042 l 347 1042 l 347 1157 l 463 1157 l 463 1042 l 579 1042 l 579 926 l 463 926 m 232 926 l 232 1042 l 347 1042 l 347 926 l 232 926 m 579 115 l 579 810 l 694 810 l 694 115 l 579 115 m 115 115 l 115 810 l 232 810 l 232 115 l 115 115 m 579 115 l 579 0 l 232 0 l 232 115 l 579 115 z "},"Ü":{"ha":694,"x_min":115,"x_max":694,"o":"m 463 926 l 463 1042 l 579 1042 l 579 926 l 463 926 m 232 926 l 232 1042 l 347 1042 l 347 926 l 232 926 m 579 115 l 579 810 l 694 810 l 694 115 l 579 115 m 115 115 l 115 810 l 232 810 l 232 115 l 115 115 m 579 115 l 579 0 l 232 0 l 232 115 l 579 115 z "},"Ý":{"ha":694,"x_min":115,"x_max":694,"o":"m 347 926 l 347 1042 l 463 1042 l 463 1157 l 579 1157 l 579 1042 l 463 1042 l 463 926 l 347 926 m 347 0 l 347 347 l 232 347 l 232 463 l 115 463 l 115 810 l 232 810 l 232 463 l 347 463 l 347 347 l 463 347 l 463 463 l 579 463 l 579 810 l 694 810 l 694 463 l 579 463 l 579 347 l 463 347 l 463 0 l 347 0 z "},"Þ":{"ha":694,"x_min":115,"x_max":694,"o":"m 115 0 l 115 926 l 232 926 l 232 694 l 579 694 l 579 579 l 694 579 l 694 347 l 579 347 l 579 232 l 232 232 l 232 0 l 115 0 m 579 579 l 232 579 l 232 347 l 579 347 l 579 579 z "},"ß":{"ha":694,"x_min":115,"x_max":694,"o":"m 115 0 l 115 810 l 232 810 l 232 926 l 463 926 l 463 810 l 232 810 l 232 0 l 115 0 m 463 810 l 579 810 l 579 579 l 463 579 l 463 810 m 463 579 l 463 463 l 347 463 l 347 579 l 463 579 m 463 463 l 694 463 l 694 115 l 579 115 l 579 347 l 463 347 l 463 463 m 579 115 l 579 0 l 347 0 l 347 115 l 579 115 z "},"à":{"ha":694,"x_min":115,"x_max":694,"o":"m 347 810 l 347 926 l 232 926 l 232 1042 l 347 1042 l 347 926 l 463 926 l 463 810 l 347 810 m 579 0 l 579 115 l 463 115 l 463 232 l 579 232 l 579 579 l 232 579 l 232 694 l 694 694 l 694 0 l 579 0 m 232 579 l 232 115 l 115 115 l 115 579 l 232 579 m 463 115 l 463 0 l 232 0 l 232 115 l 463 115 z "},"á":{"ha":694,"x_min":115,"x_max":694,"o":"m 347 810 l 347 926 l 463 926 l 463 1042 l 579 1042 l 579 926 l 463 926 l 463 810 l 347 810 m 579 0 l 579 115 l 463 115 l 463 232 l 579 232 l 579 579 l 232 579 l 232 694 l 694 694 l 694 0 l 579 0 m 232 579 l 232 115 l 115 115 l 115 579 l 232 579 m 463 115 l 463 0 l 232 0 l 232 115 l 463 115 z "},"â":{"ha":694,"x_min":115,"x_max":694,"o":"m 463 810 l 463 926 l 347 926 l 347 1042 l 463 1042 l 463 926 l 579 926 l 579 810 l 463 810 m 232 810 l 232 926 l 347 926 l 347 810 l 232 810 m 579 0 l 579 115 l 463 115 l 463 232 l 579 232 l 579 579 l 232 579 l 232 694 l 694 694 l 694 0 l 579 0 m 232 579 l 232 115 l 115 115 l 115 579 l 232 579 m 463 115 l 463 0 l 232 0 l 232 115 l 463 115 z "},"ã":{"ha":694,"x_min":115,"x_max":694,"o":"m 115 810 l 115 926 l 232 926 l 232 1042 l 463 1042 l 463 926 l 579 926 l 579 1042 l 694 1042 l 694 926 l 579 926 l 579 810 l 347 810 l 347 926 l 232 926 l 232 810 l 115 810 m 579 0 l 579 115 l 463 115 l 463 232 l 579 232 l 579 579 l 232 579 l 232 694 l 694 694 l 694 0 l 579 0 m 232 579 l 232 115 l 115 115 l 115 579 l 232 579 m 463 115 l 463 0 l 232 0 l 232 115 l 463 115 z "},"ä":{"ha":694,"x_min":115,"x_max":694,"o":"m 463 926 l 463 1042 l 579 1042 l 579 926 l 463 926 m 232 926 l 232 1042 l 347 1042 l 347 926 l 232 926 m 579 0 l 579 115 l 463 115 l 463 232 l 579 232 l 579 579 l 232 579 l 232 694 l 694 694 l 694 0 l 579 0 m 232 579 l 232 115 l 115 115 l 115 579 l 232 579 m 463 115 l 463 0 l 232 0 l 232 115 l 463 115 z "},"å":{"ha":694,"x_min":115,"x_max":694,"o":"m 347 810 l 347 926 l 232 926 l 232 1042 l 347 1042 l 347 926 l 463 926 l 463 1042 l 347 1042 l 347 1157 l 463 1157 l 463 1042 l 579 1042 l 579 926 l 463 926 l 463 810 l 347 810 m 579 0 l 579 115 l 463 115 l 463 232 l 579 232 l 579 579 l 232 579 l 232 694 l 694 694 l 694 0 l 579 0 m 232 579 l 232 115 l 115 115 l 115 579 l 232 579 m 463 115 l 463 0 l 232 0 l 232 115 l 463 115 z "},"æ":{"ha":694,"x_min":115,"x_max":694,"o":"m 463 0 l 463 115 l 347 115 l 347 579 l 232 579 l 232 694 l 579 694 l 579 579 l 694 579 l 694 347 l 463 347 l 463 115 l 579 115 l 579 232 l 694 232 l 694 115 l 579 115 l 579 0 l 463 0 m 232 0 l 232 115 l 115 115 l 115 579 l 232 579 l 232 115 l 347 115 l 347 0 l 232 0 m 579 579 l 463 579 l 463 463 l 579 463 l 579 579 z "},"ç":{"ha":694,"x_min":115,"x_max":694,"o":"m 579 463 l 579 579 l 232 579 l 232 694 l 579 694 l 579 579 l 694 579 l 694 463 l 579 463 m 232 -347 l 232 -232 l 347 -232 l 347 0 l 232 0 l 232 115 l 115 115 l 115 579 l 232 579 l 232 115 l 579 115 l 579 232 l 694 232 l 694 115 l 579 115 l 579 0 l 463 0 l 463 -232 l 347 -232 l 347 -347 l 232 -347 z "},"è":{"ha":694,"x_min":115,"x_max":694,"o":"m 347 810 l 347 926 l 232 926 l 232 1042 l 347 1042 l 347 926 l 463 926 l 463 810 l 347 810 m 232 694 l 579 694 l 579 579 l 232 579 l 232 694 m 579 579 l 694 579 l 694 347 l 232 347 l 232 115 l 115 115 l 115 579 l 232 579 l 232 463 l 579 463 l 579 579 m 579 115 l 579 232 l 694 232 l 694 115 l 579 115 m 579 115 l 579 0 l 232 0 l 232 115 l 579 115 z "},"é":{"ha":694,"x_min":115,"x_max":694,"o":"m 347 810 l 347 926 l 463 926 l 463 1042 l 579 1042 l 579 926 l 463 926 l 463 810 l 347 810 m 232 694 l 579 694 l 579 579 l 232 579 l 232 694 m 579 579 l 694 579 l 694 347 l 232 347 l 232 115 l 115 115 l 115 579 l 232 579 l 232 463 l 579 463 l 579 579 m 579 115 l 579 232 l 694 232 l 694 115 l 579 115 m 579 115 l 579 0 l 232 0 l 232 115 l 579 115 z "},"ê":{"ha":694,"x_min":115,"x_max":694,"o":"m 463 810 l 463 926 l 347 926 l 347 1042 l 463 1042 l 463 926 l 579 926 l 579 810 l 463 810 m 232 810 l 232 926 l 347 926 l 347 810 l 232 810 m 232 694 l 579 694 l 579 579 l 232 579 l 232 694 m 579 579 l 694 579 l 694 347 l 232 347 l 232 115 l 115 115 l 115 579 l 232 579 l 232 463 l 579 463 l 579 579 m 579 115 l 579 232 l 694 232 l 694 115 l 579 115 m 579 115 l 579 0 l 232 0 l 232 115 l 579 115 z "},"ë":{"ha":694,"x_min":115,"x_max":694,"o":"m 463 926 l 463 1042 l 579 1042 l 579 926 l 463 926 m 232 926 l 232 1042 l 347 1042 l 347 926 l 232 926 m 232 694 l 579 694 l 579 579 l 232 579 l 232 694 m 579 579 l 694 579 l 694 347 l 232 347 l 232 115 l 115 115 l 115 579 l 232 579 l 232 463 l 579 463 l 579 579 m 579 115 l 579 232 l 694 232 l 694 115 l 579 115 m 579 115 l 579 0 l 232 0 l 232 115 l 579 115 z "},"ì":{"ha":694,"x_min":232,"x_max":694,"o":"m 347 810 l 347 926 l 232 926 l 232 1042 l 347 1042 l 347 926 l 463 926 l 463 810 l 347 810 m 232 694 l 463 694 l 463 115 l 347 115 l 347 579 l 232 579 l 232 694 m 463 115 l 694 115 l 694 0 l 463 0 l 463 115 z "},"í":{"ha":694,"x_min":232,"x_max":694,"o":"m 347 810 l 347 926 l 463 926 l 463 1042 l 579 1042 l 579 926 l 463 926 l 463 810 l 347 810 m 232 694 l 463 694 l 463 115 l 347 115 l 347 579 l 232 579 l 232 694 m 463 115 l 694 115 l 694 0 l 463 0 l 463 115 z "},"î":{"ha":694,"x_min":232,"x_max":694,"o":"m 463 810 l 463 926 l 347 926 l 347 1042 l 463 1042 l 463 926 l 579 926 l 579 810 l 463 810 m 232 810 l 232 926 l 347 926 l 347 810 l 232 810 m 232 694 l 463 694 l 463 115 l 347 115 l 347 579 l 232 579 l 232 694 m 463 115 l 694 115 l 694 0 l 463 0 l 463 115 z "},"ï":{"ha":694,"x_min":232,"x_max":694,"o":"m 463 926 l 463 1042 l 579 1042 l 579 926 l 463 926 m 232 926 l 232 1042 l 347 1042 l 347 926 l 232 926 m 232 694 l 463 694 l 463 115 l 347 115 l 347 579 l 232 579 l 232 694 m 463 115 l 694 115 l 694 0 l 463 0 l 463 115 z "},"ð":{"ha":694,"x_min":115,"x_max":694,"o":"m 347 694 l 347 810 l 463 810 l 463 926 l 232 926 l 232 1042 l 463 1042 l 463 926 l 579 926 l 579 1042 l 694 1042 l 694 926 l 579 926 l 579 810 l 463 810 l 463 694 l 347 694 m 579 810 l 694 810 l 694 115 l 579 115 l 579 463 l 232 463 l 232 579 l 579 579 l 579 810 m 232 463 l 232 115 l 115 115 l 115 463 l 232 463 m 579 115 l 579 0 l 232 0 l 232 115 l 579 115 z "},"ñ":{"ha":694,"x_min":115,"x_max":694,"o":"m 115 810 l 115 926 l 232 926 l 232 1042 l 463 1042 l 463 926 l 579 926 l 579 1042 l 694 1042 l 694 926 l 579 926 l 579 810 l 347 810 l 347 926 l 232 926 l 232 810 l 115 810 m 579 0 l 579 579 l 232 579 l 232 0 l 115 0 l 115 694 l 579 694 l 579 579 l 694 579 l 694 0 l 579 0 z "},"ò":{"ha":694,"x_min":115,"x_max":694,"o":"m 347 694 l 347 810 l 232 810 l 232 926 l 347 926 l 347 810 l 463 810 l 463 694 l 347 694 m 232 579 l 579 579 l 579 463 l 232 463 l 232 579 m 579 463 l 694 463 l 694 115 l 579 115 l 579 463 m 232 463 l 232 115 l 115 115 l 115 463 l 232 463 m 579 115 l 579 0 l 232 0 l 232 115 l 579 115 z "},"ó":{"ha":694,"x_min":115,"x_max":694,"o":"m 347 694 l 347 810 l 463 810 l 463 926 l 579 926 l 579 810 l 463 810 l 463 694 l 347 694 m 232 579 l 579 579 l 579 463 l 232 463 l 232 579 m 579 463 l 694 463 l 694 115 l 579 115 l 579 463 m 232 463 l 232 115 l 115 115 l 115 463 l 232 463 m 579 115 l 579 0 l 232 0 l 232 115 l 579 115 z "},"ô":{"ha":694,"x_min":115,"x_max":694,"o":"m 463 694 l 463 810 l 347 810 l 347 926 l 463 926 l 463 810 l 579 810 l 579 694 l 463 694 m 232 694 l 232 810 l 347 810 l 347 694 l 232 694 m 232 579 l 579 579 l 579 463 l 232 463 l 232 579 m 579 463 l 694 463 l 694 115 l 579 115 l 579 463 m 232 463 l 232 115 l 115 115 l 115 463 l 232 463 m 579 115 l 579 0 l 232 0 l 232 115 l 579 115 z "},"õ":{"ha":694,"x_min":115,"x_max":694,"o":"m 115 694 l 115 810 l 232 810 l 232 926 l 463 926 l 463 810 l 579 810 l 579 926 l 694 926 l 694 810 l 579 810 l 579 694 l 347 694 l 347 810 l 232 810 l 232 694 l 115 694 m 232 579 l 579 579 l 579 463 l 232 463 l 232 579 m 579 463 l 694 463 l 694 115 l 579 115 l 579 463 m 232 463 l 232 115 l 115 115 l 115 463 l 232 463 m 579 115 l 579 0 l 232 0 l 232 115 l 579 115 z "},"ö":{"ha":694,"x_min":115,"x_max":694,"o":"m 463 694 l 463 810 l 579 810 l 579 694 l 463 694 m 232 694 l 232 810 l 347 810 l 347 694 l 232 694 m 232 579 l 579 579 l 579 463 l 232 463 l 232 579 m 579 463 l 694 463 l 694 115 l 579 115 l 579 463 m 232 463 l 232 115 l 115 115 l 115 463 l 232 463 m 579 115 l 579 0 l 232 0 l 232 115 l 579 115 z "},"÷":{"ha":694,"x_min":115,"x_max":694,"o":"m 347 579 l 347 694 l 463 694 l 463 579 l 347 579 m 347 115 l 347 232 l 463 232 l 463 115 l 347 115 m 115 463 l 694 463 l 694 347 l 115 347 l 115 463 z "},"ø":{"ha":694,"x_min":115,"x_max":694,"o":"m 115 -115 l 115 0 l 232 0 l 232 115 l 115 115 l 115 579 l 232 579 l 232 232 l 347 232 l 347 463 l 463 463 l 463 232 l 347 232 l 347 115 l 579 115 l 579 463 l 463 463 l 463 579 l 232 579 l 232 694 l 579 694 l 579 810 l 694 810 l 694 694 l 579 694 l 579 579 l 694 579 l 694 115 l 579 115 l 579 0 l 232 0 l 232 -115 l 115 -115 z "},"ù":{"ha":694,"x_min":115,"x_max":694,"o":"m 347 810 l 347 926 l 232 926 l 232 1042 l 347 1042 l 347 926 l 463 926 l 463 810 l 347 810 m 579 115 l 579 694 l 694 694 l 694 0 l 232 0 l 232 115 l 115 115 l 115 694 l 232 694 l 232 115 l 579 115 z "},"ú":{"ha":694,"x_min":115,"x_max":694,"o":"m 347 810 l 347 926 l 463 926 l 463 1042 l 579 1042 l 579 926 l 463 926 l 463 810 l 347 810 m 579 115 l 579 694 l 694 694 l 694 0 l 232 0 l 232 115 l 115 115 l 115 694 l 232 694 l 232 115 l 579 115 z "},"û":{"ha":694,"x_min":115,"x_max":694,"o":"m 463 810 l 463 926 l 347 926 l 347 1042 l 463 1042 l 463 926 l 579 926 l 579 810 l 463 810 m 232 810 l 232 926 l 347 926 l 347 810 l 232 810 m 579 115 l 579 694 l 694 694 l 694 0 l 232 0 l 232 115 l 115 115 l 115 694 l 232 694 l 232 115 l 579 115 z "},"ü":{"ha":694,"x_min":115,"x_max":694,"o":"m 463 926 l 463 1042 l 579 1042 l 579 926 l 463 926 m 232 926 l 232 1042 l 347 1042 l 347 926 l 232 926 m 579 115 l 579 694 l 694 694 l 694 0 l 232 0 l 232 115 l 115 115 l 115 694 l 232 694 l 232 115 l 579 115 z "},"ý":{"ha":694,"x_min":115,"x_max":694,"o":"m 347 810 l 347 926 l 463 926 l 463 1042 l 579 1042 l 579 926 l 463 926 l 463 810 l 347 810 m 579 115 l 579 694 l 694 694 l 694 -232 l 579 -232 l 579 0 l 232 0 l 232 115 l 115 115 l 115 694 l 232 694 l 232 115 l 579 115 m 579 -232 l 579 -347 l 232 -347 l 232 -232 l 579 -232 z "},"þ":{"ha":694,"x_min":115,"x_max":694,"o":"m 115 -232 l 115 926 l 232 926 l 232 694 l 579 694 l 579 579 l 694 579 l 694 115 l 579 115 l 579 0 l 232 0 l 232 -232 l 115 -232 m 579 579 l 232 579 l 232 115 l 579 115 l 579 579 z "},"ÿ":{"ha":694,"x_min":115,"x_max":694,"o":"m 463 810 l 463 926 l 579 926 l 579 810 l 463 810 m 232 810 l 232 926 l 347 926 l 347 810 l 232 810 m 579 115 l 579 694 l 694 694 l 694 -232 l 579 -232 l 579 0 l 232 0 l 232 115 l 115 115 l 115 694 l 232 694 l 232 115 l 579 115 m 579 -232 l 579 -347 l 232 -347 l 232 -232 l 579 -232 z "},"Ā":{"ha":694,"x_min":115,"x_max":694,"o":"m 579 0 l 579 347 l 232 347 l 232 0 l 115 0 l 115 694 l 232 694 l 232 463 l 579 463 l 579 694 l 232 694 l 232 810 l 579 810 l 579 694 l 694 694 l 694 0 l 579 0 m 232 1042 l 579 1042 l 579 926 l 232 926 l 232 1042 z "},"ā":{"ha":694,"x_min":115,"x_max":694,"o":"m 579 0 l 579 115 l 463 115 l 463 232 l 579 232 l 579 579 l 232 579 l 232 694 l 694 694 l 694 0 l 579 0 m 232 926 l 579 926 l 579 810 l 232 810 l 232 926 m 232 579 l 232 115 l 115 115 l 115 579 l 232 579 m 463 115 l 463 0 l 232 0 l 232 115 l 463 115 z "},"Ă":{"ha":694,"x_min":115,"x_max":694,"o":"m 579 0 l 579 347 l 232 347 l 232 0 l 115 0 l 115 694 l 232 694 l 232 463 l 579 463 l 579 694 l 232 694 l 232 810 l 579 810 l 579 694 l 694 694 l 694 0 l 579 0 m 579 1157 l 579 926 l 232 926 l 232 1157 l 347 1157 l 347 1042 l 463 1042 l 463 1157 l 579 1157 z "},"ă":{"ha":694,"x_min":115,"x_max":694,"o":"m 579 0 l 579 115 l 463 115 l 463 232 l 579 232 l 579 579 l 232 579 l 232 694 l 694 694 l 694 0 l 579 0 m 579 1042 l 579 810 l 232 810 l 232 1042 l 347 1042 l 347 926 l 463 926 l 463 1042 l 579 1042 m 232 579 l 232 115 l 115 115 l 115 579 l 232 579 m 463 115 l 463 0 l 232 0 l 232 115 l 463 115 z "},"Ą":{"ha":694,"x_min":115,"x_max":694,"o":"m 115 0 l 115 810 l 232 810 l 232 463 l 579 463 l 579 810 l 232 810 l 232 926 l 579 926 l 579 810 l 694 810 l 694 0 l 579 0 l 579 347 l 232 347 l 232 0 l 115 0 m 579 0 l 579 -115 l 694 -115 l 694 -232 l 463 -232 l 463 0 l 579 0 z "},"ą":{"ha":694,"x_min":115,"x_max":694,"o":"m 232 694 l 579 694 l 579 579 l 232 579 l 232 694 m 579 579 l 694 579 l 694 0 l 579 0 l 579 115 l 463 115 l 463 232 l 579 232 l 579 579 m 232 579 l 232 115 l 115 115 l 115 579 l 232 579 m 463 115 l 463 0 l 232 0 l 232 115 l 463 115 m 463 0 l 579 0 l 579 -115 l 694 -115 l 694 -232 l 463 -232 l 463 0 z "},"Ć":{"ha":694,"x_min":115,"x_max":694,"o":"m 347 926 l 347 1042 l 463 1042 l 463 1157 l 579 1157 l 579 1042 l 463 1042 l 463 926 l 347 926 m 579 579 l 579 694 l 232 694 l 232 810 l 579 810 l 579 694 l 694 694 l 694 579 l 579 579 m 232 694 l 232 115 l 115 115 l 115 694 l 232 694 m 579 115 l 579 232 l 694 232 l 694 115 l 579 115 m 579 115 l 579 0 l 232 0 l 232 115 l 579 115 z "},"ć":{"ha":694,"x_min":115,"x_max":694,"o":"m 347 810 l 347 926 l 463 926 l 463 1042 l 579 1042 l 579 926 l 463 926 l 463 810 l 347 810 m 579 463 l 579 579 l 232 579 l 232 694 l 579 694 l 579 579 l 694 579 l 694 463 l 579 463 m 232 579 l 232 115 l 115 115 l 115 579 l 232 579 m 579 115 l 579 232 l 694 232 l 694 115 l 579 115 m 579 115 l 579 0 l 232 0 l 232 115 l 579 115 z "},"Ĉ":{"ha":694,"x_min":115,"x_max":694,"o":"m 463 926 l 463 1042 l 347 1042 l 347 1157 l 463 1157 l 463 1042 l 579 1042 l 579 926 l 463 926 m 232 926 l 232 1042 l 347 1042 l 347 926 l 232 926 m 579 579 l 579 694 l 232 694 l 232 810 l 579 810 l 579 694 l 694 694 l 694 579 l 579 579 m 232 694 l 232 115 l 115 115 l 115 694 l 232 694 m 579 115 l 579 232 l 694 232 l 694 115 l 579 115 m 579 115 l 579 0 l 232 0 l 232 115 l 579 115 z "},"ĉ":{"ha":694,"x_min":115,"x_max":694,"o":"m 463 810 l 463 926 l 347 926 l 347 1042 l 463 1042 l 463 926 l 579 926 l 579 810 l 463 810 m 232 810 l 232 926 l 347 926 l 347 810 l 232 810 m 579 463 l 579 579 l 232 579 l 232 694 l 579 694 l 579 579 l 694 579 l 694 463 l 579 463 m 232 579 l 232 115 l 115 115 l 115 579 l 232 579 m 579 115 l 579 232 l 694 232 l 694 115 l 579 115 m 579 115 l 579 0 l 232 0 l 232 115 l 579 115 z "},"Ċ":{"ha":694,"x_min":115,"x_max":694,"o":"m 347 1042 l 347 1157 l 463 1157 l 463 1042 l 347 1042 m 579 694 l 579 810 l 232 810 l 232 926 l 579 926 l 579 810 l 694 810 l 694 694 l 579 694 m 232 810 l 232 115 l 115 115 l 115 810 l 232 810 m 579 115 l 579 232 l 694 232 l 694 115 l 579 115 m 579 115 l 579 0 l 232 0 l 232 115 l 579 115 z "},"ċ":{"ha":694,"x_min":115,"x_max":694,"o":"m 347 810 l 347 926 l 463 926 l 463 810 l 347 810 m 579 463 l 579 579 l 232 579 l 232 694 l 579 694 l 579 579 l 694 579 l 694 463 l 579 463 m 232 579 l 232 115 l 115 115 l 115 579 l 232 579 m 579 115 l 579 232 l 694 232 l 694 115 l 579 115 m 579 115 l 579 0 l 232 0 l 232 115 l 579 115 z "},"Č":{"ha":694,"x_min":115,"x_max":694,"o":"m 347 926 l 347 1042 l 232 1042 l 232 1157 l 347 1157 l 347 1042 l 463 1042 l 463 1157 l 579 1157 l 579 1042 l 463 1042 l 463 926 l 347 926 m 579 579 l 579 694 l 232 694 l 232 810 l 579 810 l 579 694 l 694 694 l 694 579 l 579 579 m 232 694 l 232 115 l 115 115 l 115 694 l 232 694 m 579 115 l 579 232 l 694 232 l 694 115 l 579 115 m 579 115 l 579 0 l 232 0 l 232 115 l 579 115 z "},"č":{"ha":694,"x_min":115,"x_max":694,"o":"m 347 810 l 347 926 l 232 926 l 232 1042 l 347 1042 l 347 926 l 463 926 l 463 1042 l 579 1042 l 579 926 l 463 926 l 463 810 l 347 810 m 579 463 l 579 579 l 232 579 l 232 694 l 579 694 l 579 579 l 694 579 l 694 463 l 579 463 m 232 579 l 232 115 l 115 115 l 115 579 l 232 579 m 579 115 l 579 232 l 694 232 l 694 115 l 579 115 m 579 115 l 579 0 l 232 0 l 232 115 l 579 115 z "},"Ď":{"ha":694,"x_min":115,"x_max":694,"o":"m 347 926 l 347 1042 l 232 1042 l 232 1157 l 347 1157 l 347 1042 l 463 1042 l 463 1157 l 579 1157 l 579 1042 l 463 1042 l 463 926 l 347 926 m 115 810 l 463 810 l 463 694 l 579 694 l 579 579 l 694 579 l 694 232 l 579 232 l 579 115 l 463 115 l 463 0 l 115 0 l 115 810 m 463 694 l 232 694 l 232 115 l 463 115 l 463 232 l 579 232 l 579 579 l 463 579 l 463 694 z "},"ď":{"ha":694,"x_min":115,"x_max":810,"o":"m 694 926 l 694 1042 l 810 1042 l 810 926 l 694 926 m 694 926 l 694 810 l 579 810 l 579 0 l 232 0 l 232 115 l 115 115 l 115 579 l 232 579 l 232 115 l 463 115 l 463 579 l 232 579 l 232 694 l 463 694 l 463 1042 l 579 1042 l 579 926 l 694 926 z "},"Đ":{"ha":694,"x_min":115,"x_max":694,"o":"m 232 926 l 463 926 l 463 810 l 579 810 l 579 694 l 694 694 l 694 232 l 579 232 l 579 115 l 463 115 l 463 0 l 232 0 l 232 463 l 115 463 l 115 579 l 232 579 l 232 926 m 463 810 l 347 810 l 347 579 l 463 579 l 463 463 l 347 463 l 347 115 l 463 115 l 463 232 l 579 232 l 579 694 l 463 694 l 463 810 z "},"đ":{"ha":694,"x_min":115,"x_max":694,"o":"m 579 926 l 694 926 l 694 810 l 579 810 l 579 0 l 232 0 l 232 115 l 115 115 l 115 579 l 232 579 l 232 115 l 463 115 l 463 579 l 232 579 l 232 694 l 463 694 l 463 810 l 232 810 l 232 926 l 463 926 l 463 1042 l 579 1042 l 579 926 z "},"Ē":{"ha":694,"x_min":115,"x_max":694,"o":"m 232 1157 l 579 1157 l 579 1042 l 232 1042 l 232 1157 m 115 926 l 694 926 l 694 810 l 232 810 l 232 579 l 579 579 l 579 463 l 232 463 l 232 115 l 694 115 l 694 0 l 115 0 l 115 926 z "},"ē":{"ha":694,"x_min":115,"x_max":694,"o":"m 232 926 l 579 926 l 579 810 l 232 810 l 232 926 m 232 694 l 579 694 l 579 579 l 232 579 l 232 694 m 579 579 l 694 579 l 694 347 l 232 347 l 232 115 l 115 115 l 115 579 l 232 579 l 232 463 l 579 463 l 579 579 m 579 115 l 579 232 l 694 232 l 694 115 l 579 115 m 579 115 l 579 0 l 232 0 l 232 115 l 579 115 z "},"Ĕ":{"ha":694,"x_min":115,"x_max":694,"o":"m 579 1157 l 579 926 l 232 926 l 232 1157 l 347 1157 l 347 1042 l 463 1042 l 463 1157 l 579 1157 m 115 810 l 694 810 l 694 694 l 232 694 l 232 463 l 579 463 l 579 347 l 232 347 l 232 115 l 694 115 l 694 0 l 115 0 l 115 810 z "},"ĕ":{"ha":694,"x_min":115,"x_max":694,"o":"m 579 1042 l 579 810 l 232 810 l 232 1042 l 347 1042 l 347 926 l 463 926 l 463 1042 l 579 1042 m 232 694 l 579 694 l 579 579 l 232 579 l 232 694 m 579 579 l 694 579 l 694 347 l 232 347 l 232 115 l 115 115 l 115 579 l 232 579 l 232 463 l 579 463 l 579 579 m 579 115 l 579 232 l 694 232 l 694 115 l 579 115 m 579 115 l 579 0 l 232 0 l 232 115 l 579 115 z "},"Ė":{"ha":694,"x_min":115,"x_max":694,"o":"m 347 1042 l 347 1157 l 463 1157 l 463 1042 l 347 1042 m 115 926 l 694 926 l 694 810 l 232 810 l 232 579 l 579 579 l 579 463 l 232 463 l 232 115 l 694 115 l 694 0 l 115 0 l 115 926 z "},"ė":{"ha":694,"x_min":115,"x_max":694,"o":"m 347 810 l 347 926 l 463 926 l 463 810 l 347 810 m 232 694 l 579 694 l 579 579 l 232 579 l 232 694 m 579 579 l 694 579 l 694 347 l 232 347 l 232 115 l 115 115 l 115 579 l 232 579 l 232 463 l 579 463 l 579 579 m 579 115 l 579 232 l 694 232 l 694 115 l 579 115 m 579 115 l 579 0 l 232 0 l 232 115 l 579 115 z "},"Ę":{"ha":694,"x_min":115,"x_max":694,"o":"m 115 926 l 694 926 l 694 810 l 232 810 l 232 579 l 579 579 l 579 463 l 232 463 l 232 115 l 694 115 l 694 0 l 579 0 l 579 -115 l 694 -115 l 694 -232 l 463 -232 l 463 0 l 115 0 l 115 926 z "},"ę":{"ha":694,"x_min":115,"x_max":694,"o":"m 232 694 l 579 694 l 579 579 l 232 579 l 232 694 m 579 579 l 694 579 l 694 347 l 232 347 l 232 115 l 115 115 l 115 579 l 232 579 l 232 463 l 579 463 l 579 579 m 579 115 l 579 232 l 694 232 l 694 115 l 579 115 m 579 115 l 579 -115 l 694 -115 l 694 -232 l 463 -232 l 463 0 l 232 0 l 232 115 l 579 115 z "},"Ě":{"ha":694,"x_min":115,"x_max":694,"o":"m 347 926 l 347 1042 l 232 1042 l 232 1157 l 347 1157 l 347 1042 l 463 1042 l 463 1157 l 579 1157 l 579 1042 l 463 1042 l 463 926 l 347 926 m 115 810 l 694 810 l 694 694 l 232 694 l 232 463 l 579 463 l 579 347 l 232 347 l 232 115 l 694 115 l 694 0 l 115 0 l 115 810 z "},"ě":{"ha":694,"x_min":115,"x_max":694,"o":"m 347 810 l 347 926 l 232 926 l 232 1042 l 347 1042 l 347 926 l 463 926 l 463 1042 l 579 1042 l 579 926 l 463 926 l 463 810 l 347 810 m 232 694 l 579 694 l 579 579 l 232 579 l 232 694 m 579 579 l 694 579 l 694 347 l 232 347 l 232 115 l 115 115 l 115 579 l 232 579 l 232 463 l 579 463 l 579 579 m 579 115 l 579 232 l 694 232 l 694 115 l 579 115 m 579 115 l 579 0 l 232 0 l 232 115 l 579 115 z "},"Ĝ":{"ha":694,"x_min":115,"x_max":694,"o":"m 463 926 l 463 1042 l 347 1042 l 347 1157 l 463 1157 l 463 1042 l 579 1042 l 579 926 l 463 926 m 232 926 l 232 1042 l 347 1042 l 347 926 l 232 926 m 579 579 l 579 694 l 232 694 l 232 810 l 579 810 l 579 694 l 694 694 l 694 579 l 579 579 m 232 694 l 232 115 l 115 115 l 115 694 l 232 694 m 463 463 l 694 463 l 694 115 l 579 115 l 579 347 l 463 347 l 463 463 m 579 115 l 579 0 l 232 0 l 232 115 l 579 115 z "},"ĝ":{"ha":694,"x_min":115,"x_max":694,"o":"m 463 810 l 463 926 l 347 926 l 347 1042 l 463 1042 l 463 926 l 579 926 l 579 810 l 463 810 m 232 810 l 232 926 l 347 926 l 347 810 l 232 810 m 232 694 l 694 694 l 694 -232 l 579 -232 l 579 0 l 232 0 l 232 115 l 115 115 l 115 579 l 232 579 l 232 115 l 579 115 l 579 579 l 232 579 l 232 694 m 579 -232 l 579 -347 l 232 -347 l 232 -232 l 579 -232 z "},"Ğ":{"ha":694,"x_min":115,"x_max":694,"o":"m 579 579 l 579 694 l 232 694 l 232 810 l 579 810 l 579 694 l 694 694 l 694 579 l 579 579 m 579 1157 l 579 926 l 232 926 l 232 1157 l 347 1157 l 347 1042 l 463 1042 l 463 1157 l 579 1157 m 232 694 l 232 115 l 115 115 l 115 694 l 232 694 m 463 463 l 694 463 l 694 115 l 579 115 l 579 347 l 463 347 l 463 463 m 579 115 l 579 0 l 232 0 l 232 115 l 579 115 z "},"ğ":{"ha":694,"x_min":115,"x_max":694,"o":"m 579 1042 l 579 810 l 232 810 l 232 1042 l 347 1042 l 347 926 l 463 926 l 463 1042 l 579 1042 m 232 694 l 694 694 l 694 -232 l 579 -232 l 579 0 l 232 0 l 232 115 l 115 115 l 115 579 l 232 579 l 232 115 l 579 115 l 579 579 l 232 579 l 232 694 m 579 -232 l 579 -347 l 232 -347 l 232 -232 l 579 -232 z "},"Ġ":{"ha":694,"x_min":115,"x_max":694,"o":"m 347 1042 l 347 1157 l 463 1157 l 463 1042 l 347 1042 m 579 694 l 579 810 l 232 810 l 232 926 l 579 926 l 579 810 l 694 810 l 694 694 l 579 694 m 232 810 l 232 115 l 115 115 l 115 810 l 232 810 m 463 463 l 694 463 l 694 115 l 579 115 l 579 347 l 463 347 l 463 463 m 579 115 l 579 0 l 232 0 l 232 115 l 579 115 z "},"ġ":{"ha":694,"x_min":115,"x_max":694,"o":"m 347 810 l 347 926 l 463 926 l 463 810 l 347 810 m 232 694 l 694 694 l 694 -232 l 579 -232 l 579 0 l 232 0 l 232 115 l 115 115 l 115 579 l 232 579 l 232 115 l 579 115 l 579 579 l 232 579 l 232 694 m 579 -232 l 579 -347 l 232 -347 l 232 -232 l 579 -232 z "},"Ģ":{"ha":694,"x_min":115,"x_max":694,"o":"m 579 694 l 579 810 l 232 810 l 232 926 l 579 926 l 579 810 l 694 810 l 694 694 l 579 694 m 232 -347 l 232 -232 l 347 -232 l 347 -115 l 463 -115 l 463 -232 l 347 -232 l 347 -347 l 232 -347 m 232 810 l 232 115 l 115 115 l 115 810 l 232 810 m 463 463 l 694 463 l 694 115 l 579 115 l 579 347 l 463 347 l 463 463 m 579 115 l 579 0 l 232 0 l 232 115 l 579 115 z "},"ģ":{"ha":694,"x_min":115,"x_max":694,"o":"m 347 810 l 347 926 l 463 926 l 463 1042 l 579 1042 l 579 926 l 463 926 l 463 810 l 347 810 m 232 694 l 694 694 l 694 -232 l 579 -232 l 579 0 l 232 0 l 232 115 l 115 115 l 115 579 l 232 579 l 232 115 l 579 115 l 579 579 l 232 579 l 232 694 m 579 -232 l 579 -347 l 232 -347 l 232 -232 l 579 -232 z "},"Ĥ":{"ha":694,"x_min":115,"x_max":694,"o":"m 463 926 l 463 1042 l 347 1042 l 347 1157 l 463 1157 l 463 1042 l 579 1042 l 579 926 l 463 926 m 232 926 l 232 1042 l 347 1042 l 347 926 l 232 926 m 579 0 l 579 347 l 232 347 l 232 0 l 115 0 l 115 810 l 232 810 l 232 463 l 579 463 l 579 810 l 694 810 l 694 0 l 579 0 z "},"ĥ":{"ha":694,"x_min":115,"x_max":694,"o":"m 347 926 l 347 1042 l 232 1042 l 232 1157 l 347 1157 l 347 1042 l 463 1042 l 463 926 l 347 926 m 115 926 l 115 1042 l 232 1042 l 232 926 l 115 926 m 579 0 l 579 463 l 347 463 l 347 0 l 232 0 l 232 810 l 347 810 l 347 579 l 579 579 l 579 463 l 694 463 l 694 0 l 579 0 z "},"Ħ":{"ha":694,"x_min":0,"x_max":810,"o":"m 579 0 l 579 463 l 232 463 l 232 0 l 115 0 l 115 694 l 0 694 l 0 810 l 115 810 l 115 926 l 232 926 l 232 810 l 579 810 l 579 926 l 694 926 l 694 810 l 810 810 l 810 694 l 694 694 l 694 0 l 579 0 m 579 694 l 232 694 l 232 579 l 579 579 l 579 694 z "},"ħ":{"ha":694,"x_min":115,"x_max":694,"o":"m 579 0 l 579 579 l 347 579 l 347 0 l 232 0 l 232 810 l 115 810 l 115 926 l 232 926 l 232 1042 l 347 1042 l 347 926 l 463 926 l 463 810 l 347 810 l 347 694 l 579 694 l 579 579 l 694 579 l 694 0 l 579 0 z "},"Ĩ":{"ha":694,"x_min":115,"x_max":694,"o":"m 115 926 l 115 1042 l 232 1042 l 232 1157 l 463 1157 l 463 1042 l 579 1042 l 579 1157 l 694 1157 l 694 1042 l 579 1042 l 579 926 l 347 926 l 347 1042 l 232 1042 l 232 926 l 115 926 m 232 810 l 579 810 l 579 694 l 463 694 l 463 115 l 579 115 l 579 0 l 232 0 l 232 115 l 347 115 l 347 694 l 232 694 l 232 810 z "},"ĩ":{"ha":694,"x_min":115,"x_max":694,"o":"m 115 810 l 115 926 l 232 926 l 232 1042 l 463 1042 l 463 926 l 579 926 l 579 1042 l 694 1042 l 694 926 l 579 926 l 579 810 l 347 810 l 347 926 l 232 926 l 232 810 l 115 810 m 232 694 l 463 694 l 463 115 l 347 115 l 347 579 l 232 579 l 232 694 m 463 115 l 694 115 l 694 0 l 463 0 l 463 115 z "},"Ī":{"ha":694,"x_min":232,"x_max":579,"o":"m 232 1157 l 579 1157 l 579 1042 l 232 1042 l 232 1157 m 232 926 l 579 926 l 579 810 l 463 810 l 463 115 l 579 115 l 579 0 l 232 0 l 232 115 l 347 115 l 347 810 l 232 810 l 232 926 z "},"ī":{"ha":694,"x_min":232,"x_max":694,"o":"m 232 1042 l 579 1042 l 579 926 l 232 926 l 232 1042 m 232 694 l 463 694 l 463 115 l 347 115 l 347 579 l 232 579 l 232 694 m 463 115 l 694 115 l 694 0 l 463 0 l 463 115 z "},"Ĭ":{"ha":694,"x_min":232,"x_max":579,"o":"m 579 1157 l 579 926 l 232 926 l 232 1157 l 347 1157 l 347 1042 l 463 1042 l 463 1157 l 579 1157 m 232 810 l 579 810 l 579 694 l 463 694 l 463 115 l 579 115 l 579 0 l 232 0 l 232 115 l 347 115 l 347 694 l 232 694 l 232 810 z "},"ĭ":{"ha":694,"x_min":232,"x_max":694,"o":"m 579 1042 l 579 810 l 232 810 l 232 1042 l 347 1042 l 347 926 l 463 926 l 463 1042 l 579 1042 m 232 694 l 463 694 l 463 115 l 347 115 l 347 579 l 232 579 l 232 694 m 463 115 l 694 115 l 694 0 l 463 0 l 463 115 z "},"Į":{"ha":694,"x_min":232,"x_max":579,"o":"m 232 926 l 579 926 l 579 810 l 463 810 l 463 115 l 579 115 l 579 0 l 463 0 l 463 -115 l 579 -115 l 579 -232 l 347 -232 l 347 0 l 232 0 l 232 115 l 347 115 l 347 810 l 232 810 l 232 926 z "},"į":{"ha":694,"x_min":232,"x_max":694,"o":"m 347 810 l 347 926 l 463 926 l 463 810 l 347 810 m 232 694 l 463 694 l 463 115 l 347 115 l 347 579 l 232 579 l 232 694 m 463 115 l 694 115 l 694 0 l 579 0 l 579 -115 l 694 -115 l 694 -232 l 463 -232 l 463 115 z "},"İ":{"ha":694,"x_min":232,"x_max":579,"o":"m 347 1042 l 347 1157 l 463 1157 l 463 1042 l 347 1042 m 232 926 l 579 926 l 579 810 l 463 810 l 463 115 l 579 115 l 579 0 l 232 0 l 232 115 l 347 115 l 347 810 l 232 810 l 232 926 z "},"ı":{"ha":694,"x_min":232,"x_max":694,"o":"m 232 694 l 463 694 l 463 115 l 347 115 l 347 579 l 232 579 l 232 694 m 463 115 l 694 115 l 694 0 l 463 0 l 463 115 z "},"Ĳ":{"ha":694,"x_min":115,"x_max":694,"o":"m 463 -232 l 463 -115 l 579 -115 l 579 926 l 347 926 l 347 115 l 463 115 l 463 0 l 115 0 l 115 115 l 232 115 l 232 926 l 115 926 l 115 1042 l 694 1042 l 694 -115 l 579 -115 l 579 -232 l 463 -232 z "},"ĳ":{"ha":694,"x_min":115,"x_max":694,"o":"m 579 810 l 579 926 l 694 926 l 694 810 l 579 810 m 232 810 l 232 926 l 347 926 l 347 810 l 232 810 m 347 0 l 347 115 l 232 115 l 232 579 l 115 579 l 115 694 l 347 694 l 347 115 l 463 115 l 463 0 l 347 0 m 463 -232 l 463 -115 l 579 -115 l 579 579 l 463 579 l 463 694 l 694 694 l 694 -115 l 579 -115 l 579 -232 l 463 -232 z "},"Ĵ":{"ha":694,"x_min":115,"x_max":694,"o":"m 579 926 l 579 1042 l 463 1042 l 463 1157 l 579 1157 l 579 1042 l 694 1042 l 694 926 l 579 926 m 347 926 l 347 1042 l 463 1042 l 463 926 l 347 926 m 347 810 l 694 810 l 694 115 l 579 115 l 579 694 l 347 694 l 347 810 m 115 115 l 115 347 l 232 347 l 232 115 l 115 115 m 579 115 l 579 0 l 232 0 l 232 115 l 579 115 z "},"ĵ":{"ha":694,"x_min":115,"x_max":694,"o":"m 579 810 l 579 926 l 463 926 l 463 1042 l 579 1042 l 579 926 l 694 926 l 694 810 l 579 810 m 347 810 l 347 926 l 463 926 l 463 810 l 347 810 m 347 694 l 579 694 l 579 -115 l 463 -115 l 463 579 l 347 579 l 347 694 m 463 -115 l 463 -232 l 115 -232 l 115 -115 l 463 -115 z "},"Ķ":{"ha":694,"x_min":115,"x_max":694,"o":"m 579 0 l 579 232 l 463 232 l 463 463 l 232 463 l 232 0 l 115 0 l 115 926 l 232 926 l 232 579 l 347 579 l 347 694 l 463 694 l 463 810 l 579 810 l 579 926 l 694 926 l 694 810 l 579 810 l 579 694 l 463 694 l 463 463 l 579 463 l 579 232 l 694 232 l 694 0 l 579 0 m 232 -232 l 232 -115 l 347 -115 l 347 0 l 463 0 l 463 -115 l 347 -115 l 347 -232 l 232 -232 z "},"ķ":{"ha":694,"x_min":115,"x_max":694,"o":"m 579 0 l 579 115 l 463 115 l 463 232 l 232 232 l 232 0 l 115 0 l 115 1042 l 232 1042 l 232 347 l 347 347 l 347 463 l 463 463 l 463 579 l 579 579 l 579 694 l 694 694 l 694 579 l 579 579 l 579 463 l 463 463 l 463 232 l 579 232 l 579 115 l 694 115 l 694 0 l 579 0 m 232 -232 l 232 -115 l 347 -115 l 347 0 l 463 0 l 463 -115 l 347 -115 l 347 -232 l 232 -232 z "},"ĸ":{"ha":694,"x_min":115,"x_max":694,"o":"m 579 0 l 579 115 l 463 115 l 463 232 l 232 232 l 232 0 l 115 0 l 115 694 l 232 694 l 232 347 l 347 347 l 347 463 l 463 463 l 463 579 l 579 579 l 579 694 l 694 694 l 694 579 l 579 579 l 579 463 l 463 463 l 463 232 l 579 232 l 579 115 l 694 115 l 694 0 l 579 0 z "},"Ĺ":{"ha":694,"x_min":115,"x_max":694,"o":"m 115 926 l 115 1042 l 232 1042 l 232 1157 l 347 1157 l 347 1042 l 232 1042 l 232 926 l 115 926 m 115 0 l 115 810 l 232 810 l 232 115 l 694 115 l 694 0 l 115 0 z "},"ĺ":{"ha":694,"x_min":232,"x_max":579,"o":"m 347 926 l 347 1042 l 463 1042 l 463 1157 l 579 1157 l 579 1042 l 463 1042 l 463 926 l 347 926 m 232 810 l 463 810 l 463 115 l 579 115 l 579 0 l 347 0 l 347 694 l 232 694 l 232 810 z "},"Ļ":{"ha":694,"x_min":115,"x_max":694,"o":"m 232 -347 l 232 -232 l 347 -232 l 347 -115 l 463 -115 l 463 -232 l 347 -232 l 347 -347 l 232 -347 m 115 0 l 115 926 l 232 926 l 232 115 l 694 115 l 694 0 l 115 0 z "},"ļ":{"ha":694,"x_min":232,"x_max":579,"o":"m 232 -347 l 232 -232 l 347 -232 l 347 -115 l 463 -115 l 463 -232 l 347 -232 l 347 -347 l 232 -347 m 232 1042 l 463 1042 l 463 115 l 579 115 l 579 0 l 347 0 l 347 926 l 232 926 l 232 1042 z "},"Ľ":{"ha":694,"x_min":115,"x_max":694,"o":"m 347 810 l 347 1042 l 463 1042 l 463 810 l 347 810 m 115 0 l 115 926 l 232 926 l 232 115 l 694 115 l 694 0 l 115 0 z "},"ľ":{"ha":694,"x_min":232,"x_max":694,"o":"m 579 926 l 579 1157 l 694 1157 l 694 926 l 579 926 m 232 1042 l 463 1042 l 463 115 l 579 115 l 579 0 l 347 0 l 347 926 l 232 926 l 232 1042 z "},"Ŀ":{"ha":694,"x_min":115,"x_max":694,"o":"m 347 463 l 347 579 l 463 579 l 463 463 l 347 463 m 115 0 l 115 926 l 232 926 l 232 115 l 694 115 l 694 0 l 115 0 z "},"ŀ":{"ha":694,"x_min":232,"x_max":694,"o":"m 579 463 l 579 579 l 694 579 l 694 463 l 579 463 m 232 1042 l 463 1042 l 463 115 l 579 115 l 579 0 l 347 0 l 347 926 l 232 926 l 232 1042 z "},"Ł":{"ha":694,"x_min":115,"x_max":694,"o":"m 232 347 l 232 926 l 347 926 l 347 579 l 463 579 l 463 694 l 579 694 l 579 579 l 463 579 l 463 463 l 347 463 l 347 115 l 694 115 l 694 0 l 232 0 l 232 232 l 115 232 l 115 347 l 232 347 z "},"ł":{"ha":694,"x_min":232,"x_max":579,"o":"m 232 1042 l 463 1042 l 463 694 l 579 694 l 579 579 l 463 579 l 463 115 l 579 115 l 579 0 l 347 0 l 347 463 l 232 463 l 232 579 l 347 579 l 347 926 l 232 926 l 232 1042 z "},"Ń":{"ha":694,"x_min":115,"x_max":694,"o":"m 347 926 l 347 1042 l 463 1042 l 463 1157 l 579 1157 l 579 1042 l 463 1042 l 463 926 l 347 926 m 579 0 l 579 115 l 463 115 l 463 347 l 347 347 l 347 463 l 232 463 l 232 0 l 115 0 l 115 810 l 232 810 l 232 694 l 347 694 l 347 463 l 463 463 l 463 347 l 579 347 l 579 810 l 694 810 l 694 0 l 579 0 z "},"ń":{"ha":694,"x_min":115,"x_max":694,"o":"m 347 810 l 347 926 l 463 926 l 463 1042 l 579 1042 l 579 926 l 463 926 l 463 810 l 347 810 m 579 0 l 579 579 l 232 579 l 232 0 l 115 0 l 115 694 l 579 694 l 579 579 l 694 579 l 694 0 l 579 0 z "},"Ņ":{"ha":694,"x_min":115,"x_max":694,"o":"m 579 0 l 579 115 l 463 115 l 463 347 l 347 347 l 347 579 l 232 579 l 232 0 l 115 0 l 115 926 l 232 926 l 232 810 l 347 810 l 347 579 l 463 579 l 463 347 l 579 347 l 579 926 l 694 926 l 694 0 l 579 0 m 232 -347 l 232 -232 l 347 -232 l 347 -115 l 463 -115 l 463 -232 l 347 -232 l 347 -347 l 232 -347 z "},"ņ":{"ha":694,"x_min":115,"x_max":694,"o":"m 579 0 l 579 579 l 232 579 l 232 0 l 115 0 l 115 694 l 579 694 l 579 579 l 694 579 l 694 0 l 579 0 m 232 -232 l 232 -115 l 347 -115 l 347 0 l 463 0 l 463 -115 l 347 -115 l 347 -232 l 232 -232 z "},"Ň":{"ha":694,"x_min":115,"x_max":694,"o":"m 347 926 l 347 1042 l 232 1042 l 232 1157 l 347 1157 l 347 1042 l 463 1042 l 463 1157 l 579 1157 l 579 1042 l 463 1042 l 463 926 l 347 926 m 579 0 l 579 115 l 463 115 l 463 347 l 347 347 l 347 579 l 232 579 l 232 0 l 115 0 l 115 926 l 232 926 l 232 810 l 347 810 l 347 579 l 463 579 l 463 347 l 579 347 l 579 926 l 694 926 l 694 0 l 579 0 z "},"ň":{"ha":694,"x_min":115,"x_max":694,"o":"m 347 810 l 347 926 l 232 926 l 232 1042 l 347 1042 l 347 926 l 463 926 l 463 1042 l 579 1042 l 579 926 l 463 926 l 463 810 l 347 810 m 579 0 l 579 579 l 232 579 l 232 0 l 115 0 l 115 694 l 579 694 l 579 579 l 694 579 l 694 0 l 579 0 z "},"ŉ":{"ha":694,"x_min":115,"x_max":694,"o":"m 115 810 l 115 1042 l 232 1042 l 232 810 l 115 810 m 579 0 l 579 579 l 347 579 l 347 0 l 232 0 l 232 694 l 579 694 l 579 579 l 694 579 l 694 0 l 579 0 z "},"Ŋ":{"ha":694,"x_min":115,"x_max":694,"o":"m 115 0 l 115 926 l 232 926 l 232 810 l 347 810 l 347 926 l 579 926 l 579 810 l 347 810 l 347 694 l 232 694 l 232 0 l 115 0 m 463 -232 l 463 -115 l 579 -115 l 579 810 l 694 810 l 694 -115 l 579 -115 l 579 -232 l 463 -232 z "},"ŋ":{"ha":694,"x_min":115,"x_max":694,"o":"m 115 0 l 115 694 l 232 694 l 232 579 l 347 579 l 347 694 l 579 694 l 579 579 l 347 579 l 347 463 l 232 463 l 232 0 l 115 0 m 463 -232 l 463 -115 l 579 -115 l 579 579 l 694 579 l 694 -115 l 579 -115 l 579 -232 l 463 -232 z "},"Ō":{"ha":694,"x_min":115,"x_max":694,"o":"m 232 1157 l 579 1157 l 579 1042 l 232 1042 l 232 1157 m 232 926 l 579 926 l 579 810 l 232 810 l 232 926 m 579 810 l 694 810 l 694 115 l 579 115 l 579 810 m 232 810 l 232 115 l 115 115 l 115 810 l 232 810 m 579 115 l 579 0 l 232 0 l 232 115 l 579 115 z "},"ō":{"ha":694,"x_min":115,"x_max":694,"o":"m 232 810 l 579 810 l 579 694 l 232 694 l 232 810 m 232 579 l 579 579 l 579 463 l 232 463 l 232 579 m 579 463 l 694 463 l 694 115 l 579 115 l 579 463 m 232 463 l 232 115 l 115 115 l 115 463 l 232 463 m 579 115 l 579 0 l 232 0 l 232 115 l 579 115 z "},"Ŏ":{"ha":694,"x_min":115,"x_max":694,"o":"m 579 1157 l 579 926 l 232 926 l 232 1157 l 347 1157 l 347 1042 l 463 1042 l 463 1157 l 579 1157 m 232 810 l 579 810 l 579 694 l 232 694 l 232 810 m 579 694 l 694 694 l 694 115 l 579 115 l 579 694 m 232 694 l 232 115 l 115 115 l 115 694 l 232 694 m 579 115 l 579 0 l 232 0 l 232 115 l 579 115 z "},"ŏ":{"ha":694,"x_min":115,"x_max":694,"o":"m 579 926 l 579 694 l 232 694 l 232 926 l 347 926 l 347 810 l 463 810 l 463 926 l 579 926 m 232 579 l 579 579 l 579 463 l 232 463 l 232 579 m 579 463 l 694 463 l 694 115 l 579 115 l 579 463 m 232 463 l 232 115 l 115 115 l 115 463 l 232 463 m 579 115 l 579 0 l 232 0 l 232 115 l 579 115 z "},"Ő":{"ha":694,"x_min":115,"x_max":694,"o":"m 463 926 l 463 1042 l 347 1042 l 347 1157 l 463 1157 l 463 1042 l 579 1042 l 579 1157 l 694 1157 l 694 1042 l 579 1042 l 579 926 l 463 926 m 232 926 l 232 1042 l 347 1042 l 347 926 l 232 926 m 232 810 l 579 810 l 579 694 l 232 694 l 232 810 m 579 694 l 694 694 l 694 115 l 579 115 l 579 694 m 232 694 l 232 115 l 115 115 l 115 694 l 232 694 m 579 115 l 579 0 l 232 0 l 232 115 l 579 115 z "},"ő":{"ha":694,"x_min":115,"x_max":694,"o":"m 463 694 l 463 810 l 347 810 l 347 926 l 463 926 l 463 810 l 579 810 l 579 926 l 694 926 l 694 810 l 579 810 l 579 694 l 463 694 m 232 694 l 232 810 l 347 810 l 347 694 l 232 694 m 232 579 l 579 579 l 579 463 l 232 463 l 232 579 m 579 463 l 694 463 l 694 115 l 579 115 l 579 463 m 232 463 l 232 115 l 115 115 l 115 463 l 232 463 m 579 115 l 579 0 l 232 0 l 232 115 l 579 115 z "},"Œ":{"ha":694,"x_min":115,"x_max":694,"o":"m 232 926 l 694 926 l 694 810 l 463 810 l 463 579 l 579 579 l 579 463 l 463 463 l 463 115 l 694 115 l 694 0 l 232 0 l 232 115 l 115 115 l 115 810 l 232 810 l 232 115 l 347 115 l 347 810 l 232 810 l 232 926 z "},"œ":{"ha":694,"x_min":115,"x_max":694,"o":"m 463 0 l 463 115 l 347 115 l 347 579 l 232 579 l 232 694 l 347 694 l 347 579 l 463 579 l 463 463 l 579 463 l 579 579 l 463 579 l 463 694 l 579 694 l 579 579 l 694 579 l 694 347 l 463 347 l 463 115 l 579 115 l 579 232 l 694 232 l 694 115 l 579 115 l 579 0 l 463 0 m 232 0 l 232 115 l 115 115 l 115 579 l 232 579 l 232 115 l 347 115 l 347 0 l 232 0 z "},"Ŕ":{"ha":694,"x_min":115,"x_max":694,"o":"m 347 926 l 347 1042 l 463 1042 l 463 1157 l 579 1157 l 579 1042 l 463 1042 l 463 926 l 347 926 m 579 0 l 579 232 l 463 232 l 463 347 l 232 347 l 232 0 l 115 0 l 115 810 l 579 810 l 579 694 l 694 694 l 694 463 l 579 463 l 579 232 l 694 232 l 694 0 l 579 0 m 579 694 l 232 694 l 232 463 l 579 463 l 579 694 z "},"ŕ":{"ha":694,"x_min":115,"x_max":694,"o":"m 347 810 l 347 926 l 463 926 l 463 1042 l 579 1042 l 579 926 l 463 926 l 463 810 l 347 810 m 579 463 l 579 579 l 232 579 l 232 0 l 115 0 l 115 694 l 579 694 l 579 579 l 694 579 l 694 463 l 579 463 z "},"Ŗ":{"ha":694,"x_min":115,"x_max":694,"o":"m 579 0 l 579 347 l 463 347 l 463 463 l 232 463 l 232 0 l 115 0 l 115 926 l 579 926 l 579 810 l 694 810 l 694 579 l 579 579 l 579 347 l 694 347 l 694 0 l 579 0 m 232 -232 l 232 -115 l 347 -115 l 347 0 l 463 0 l 463 -115 l 347 -115 l 347 -232 l 232 -232 m 579 810 l 232 810 l 232 579 l 579 579 l 579 810 z "},"ŗ":{"ha":694,"x_min":0,"x_max":694,"o":"m 579 463 l 579 579 l 232 579 l 232 0 l 115 0 l 115 694 l 579 694 l 579 579 l 694 579 l 694 463 l 579 463 m 0 -347 l 0 -232 l 115 -232 l 115 -115 l 232 -115 l 232 -232 l 115 -232 l 115 -347 l 0 -347 z "},"Ř":{"ha":694,"x_min":115,"x_max":694,"o":"m 579 0 l 579 232 l 463 232 l 463 347 l 232 347 l 232 0 l 115 0 l 115 810 l 579 810 l 579 694 l 694 694 l 694 463 l 579 463 l 579 232 l 694 232 l 694 0 l 579 0 m 579 1157 l 579 926 l 232 926 l 232 1157 l 347 1157 l 347 1042 l 463 1042 l 463 1157 l 579 1157 m 579 694 l 232 694 l 232 463 l 579 463 l 579 694 z "},"ř":{"ha":694,"x_min":115,"x_max":694,"o":"m 579 463 l 579 579 l 232 579 l 232 0 l 115 0 l 115 694 l 579 694 l 579 579 l 694 579 l 694 463 l 579 463 m 579 1042 l 579 810 l 232 810 l 232 1042 l 347 1042 l 347 926 l 463 926 l 463 1042 l 579 1042 z "},"Ś":{"ha":694,"x_min":115,"x_max":694,"o":"m 347 926 l 347 1042 l 463 1042 l 463 1157 l 579 1157 l 579 1042 l 463 1042 l 463 926 l 347 926 m 579 579 l 579 694 l 232 694 l 232 810 l 579 810 l 579 694 l 694 694 l 694 579 l 579 579 m 232 694 l 232 463 l 115 463 l 115 694 l 232 694 m 232 463 l 579 463 l 579 347 l 232 347 l 232 463 m 579 347 l 694 347 l 694 115 l 579 115 l 579 347 m 579 115 l 579 0 l 232 0 l 232 115 l 115 115 l 115 232 l 232 232 l 232 115 l 579 115 z "},"ś":{"ha":694,"x_min":115,"x_max":694,"o":"m 347 810 l 347 926 l 463 926 l 463 1042 l 579 1042 l 579 926 l 463 926 l 463 810 l 347 810 m 232 694 l 694 694 l 694 579 l 232 579 l 232 694 m 232 579 l 232 463 l 115 463 l 115 579 l 232 579 m 232 463 l 579 463 l 579 347 l 232 347 l 232 463 m 579 347 l 694 347 l 694 115 l 579 115 l 579 347 m 579 115 l 579 0 l 115 0 l 115 115 l 579 115 z "},"Ŝ":{"ha":694,"x_min":115,"x_max":694,"o":"m 463 926 l 463 1042 l 347 1042 l 347 1157 l 463 1157 l 463 1042 l 579 1042 l 579 926 l 463 926 m 232 926 l 232 1042 l 347 1042 l 347 926 l 232 926 m 579 579 l 579 694 l 232 694 l 232 810 l 579 810 l 579 694 l 694 694 l 694 579 l 579 579 m 232 694 l 232 463 l 115 463 l 115 694 l 232 694 m 232 463 l 579 463 l 579 347 l 232 347 l 232 463 m 579 347 l 694 347 l 694 115 l 579 115 l 579 347 m 579 115 l 579 0 l 232 0 l 232 115 l 115 115 l 115 232 l 232 232 l 232 115 l 579 115 z "},"ŝ":{"ha":694,"x_min":115,"x_max":694,"o":"m 463 810 l 463 926 l 347 926 l 347 1042 l 463 1042 l 463 926 l 579 926 l 579 810 l 463 810 m 232 810 l 232 926 l 347 926 l 347 810 l 232 810 m 232 694 l 694 694 l 694 579 l 232 579 l 232 694 m 232 579 l 232 463 l 115 463 l 115 579 l 232 579 m 232 463 l 579 463 l 579 347 l 232 347 l 232 463 m 579 347 l 694 347 l 694 115 l 579 115 l 579 347 m 579 115 l 579 0 l 115 0 l 115 115 l 579 115 z "},"Ş":{"ha":694,"x_min":115,"x_max":694,"o":"m 579 694 l 579 810 l 232 810 l 232 926 l 579 926 l 579 810 l 694 810 l 694 694 l 579 694 m 232 810 l 232 579 l 115 579 l 115 810 l 232 810 m 232 579 l 579 579 l 579 463 l 232 463 l 232 579 m 579 463 l 694 463 l 694 115 l 579 115 l 579 463 m 579 115 l 579 -115 l 463 -115 l 463 0 l 232 0 l 232 115 l 115 115 l 115 232 l 232 232 l 232 115 l 579 115 m 463 -115 l 463 -232 l 232 -232 l 232 -115 l 463 -115 z "},"ş":{"ha":694,"x_min":115,"x_max":694,"o":"m 232 694 l 694 694 l 694 579 l 232 579 l 232 694 m 232 579 l 232 463 l 115 463 l 115 579 l 232 579 m 232 463 l 579 463 l 579 347 l 232 347 l 232 463 m 579 347 l 694 347 l 694 115 l 579 115 l 579 347 m 579 115 l 579 -232 l 347 -232 l 347 -115 l 463 -115 l 463 0 l 115 0 l 115 115 l 579 115 z "},"Š":{"ha":694,"x_min":115,"x_max":694,"o":"m 347 926 l 347 1042 l 232 1042 l 232 1157 l 347 1157 l 347 1042 l 463 1042 l 463 1157 l 579 1157 l 579 1042 l 463 1042 l 463 926 l 347 926 m 579 579 l 579 694 l 232 694 l 232 810 l 579 810 l 579 694 l 694 694 l 694 579 l 579 579 m 232 694 l 232 463 l 115 463 l 115 694 l 232 694 m 232 463 l 579 463 l 579 347 l 232 347 l 232 463 m 579 347 l 694 347 l 694 115 l 579 115 l 579 347 m 579 115 l 579 0 l 232 0 l 232 115 l 115 115 l 115 232 l 232 232 l 232 115 l 579 115 z "},"š":{"ha":694,"x_min":115,"x_max":694,"o":"m 347 810 l 347 926 l 232 926 l 232 1042 l 347 1042 l 347 926 l 463 926 l 463 1042 l 579 1042 l 579 926 l 463 926 l 463 810 l 347 810 m 232 694 l 694 694 l 694 579 l 232 579 l 232 694 m 232 579 l 232 463 l 115 463 l 115 579 l 232 579 m 232 463 l 579 463 l 579 347 l 232 347 l 232 463 m 579 347 l 694 347 l 694 115 l 579 115 l 579 347 m 579 115 l 579 0 l 115 0 l 115 115 l 579 115 z "},"Ţ":{"ha":694,"x_min":115,"x_max":694,"o":"m 115 926 l 694 926 l 694 810 l 463 810 l 463 0 l 347 0 l 347 810 l 115 810 l 115 926 m 463 0 l 579 0 l 579 -232 l 347 -232 l 347 -115 l 463 -115 l 463 0 z "},"ţ":{"ha":694,"x_min":115,"x_max":694,"o":"m 232 694 l 232 926 l 347 926 l 347 694 l 579 694 l 579 579 l 347 579 l 347 115 l 232 115 l 232 579 l 115 579 l 115 694 l 232 694 m 347 115 l 694 115 l 694 0 l 579 0 l 579 -232 l 347 -232 l 347 -115 l 463 -115 l 463 0 l 347 0 l 347 115 z "},"Ť":{"ha":694,"x_min":115,"x_max":694,"o":"m 347 926 l 347 1042 l 232 1042 l 232 1157 l 347 1157 l 347 1042 l 463 1042 l 463 1157 l 579 1157 l 579 1042 l 463 1042 l 463 926 l 347 926 m 347 0 l 347 694 l 115 694 l 115 810 l 694 810 l 694 694 l 463 694 l 463 0 l 347 0 z "},"ť":{"ha":694,"x_min":115,"x_max":694,"o":"m 463 810 l 463 1042 l 579 1042 l 579 810 l 463 810 m 232 694 l 232 926 l 347 926 l 347 694 l 579 694 l 579 579 l 347 579 l 347 115 l 232 115 l 232 579 l 115 579 l 115 694 l 232 694 m 347 115 l 694 115 l 694 0 l 347 0 l 347 115 z "},"Ũ":{"ha":694,"x_min":115,"x_max":694,"o":"m 115 926 l 115 1042 l 232 1042 l 232 1157 l 463 1157 l 463 1042 l 579 1042 l 579 1157 l 694 1157 l 694 1042 l 579 1042 l 579 926 l 347 926 l 347 1042 l 232 1042 l 232 926 l 115 926 m 579 115 l 579 810 l 694 810 l 694 115 l 579 115 m 115 115 l 115 810 l 232 810 l 232 115 l 115 115 m 579 115 l 579 0 l 232 0 l 232 115 l 579 115 z "},"ũ":{"ha":694,"x_min":115,"x_max":694,"o":"m 115 810 l 115 926 l 232 926 l 232 1042 l 463 1042 l 463 926 l 579 926 l 579 1042 l 694 1042 l 694 926 l 579 926 l 579 810 l 347 810 l 347 926 l 232 926 l 232 810 l 115 810 m 579 115 l 579 694 l 694 694 l 694 0 l 232 0 l 232 115 l 115 115 l 115 694 l 232 694 l 232 115 l 579 115 z "},"Ū":{"ha":694,"x_min":115,"x_max":694,"o":"m 232 1157 l 579 1157 l 579 1042 l 232 1042 l 232 1157 m 579 115 l 579 926 l 694 926 l 694 115 l 579 115 m 115 115 l 115 926 l 232 926 l 232 115 l 115 115 m 579 115 l 579 0 l 232 0 l 232 115 l 579 115 z "},"ū":{"ha":694,"x_min":115,"x_max":694,"o":"m 232 926 l 579 926 l 579 810 l 232 810 l 232 926 m 579 115 l 579 694 l 694 694 l 694 0 l 232 0 l 232 115 l 115 115 l 115 694 l 232 694 l 232 115 l 579 115 z "},"Ŭ":{"ha":694,"x_min":115,"x_max":694,"o":"m 347 810 l 347 926 l 232 926 l 232 1042 l 347 1042 l 347 926 l 463 926 l 463 1042 l 347 1042 l 347 1157 l 463 1157 l 463 1042 l 579 1042 l 579 926 l 463 926 l 463 810 l 347 810 m 579 115 l 579 810 l 694 810 l 694 115 l 579 115 m 115 115 l 115 810 l 232 810 l 232 115 l 115 115 m 579 115 l 579 0 l 232 0 l 232 115 l 579 115 z "},"ŭ":{"ha":694,"x_min":115,"x_max":694,"o":"m 347 810 l 347 926 l 232 926 l 232 1042 l 347 1042 l 347 926 l 463 926 l 463 1042 l 347 1042 l 347 1157 l 463 1157 l 463 1042 l 579 1042 l 579 926 l 463 926 l 463 810 l 347 810 m 579 115 l 579 694 l 694 694 l 694 0 l 232 0 l 232 115 l 115 115 l 115 694 l 232 694 l 232 115 l 579 115 z "},"Ů":{"ha":694,"x_min":115,"x_max":694,"o":"m 347 810 l 347 926 l 232 926 l 232 1042 l 347 1042 l 347 926 l 463 926 l 463 1042 l 347 1042 l 347 1157 l 463 1157 l 463 1042 l 579 1042 l 579 926 l 463 926 l 463 810 l 347 810 m 579 115 l 579 810 l 694 810 l 694 115 l 579 115 m 115 115 l 115 810 l 232 810 l 232 115 l 115 115 m 579 115 l 579 0 l 232 0 l 232 115 l 579 115 z "},"ů":{"ha":694,"x_min":115,"x_max":694,"o":"m 347 810 l 347 926 l 232 926 l 232 1042 l 347 1042 l 347 926 l 463 926 l 463 1042 l 347 1042 l 347 1157 l 463 1157 l 463 1042 l 579 1042 l 579 926 l 463 926 l 463 810 l 347 810 m 579 115 l 579 694 l 694 694 l 694 0 l 232 0 l 232 115 l 115 115 l 115 694 l 232 694 l 232 115 l 579 115 z "},"Ű":{"ha":694,"x_min":115,"x_max":694,"o":"m 463 926 l 463 1042 l 347 1042 l 347 1157 l 463 1157 l 463 1042 l 579 1042 l 579 1157 l 694 1157 l 694 1042 l 579 1042 l 579 926 l 463 926 m 232 926 l 232 1042 l 347 1042 l 347 926 l 232 926 m 579 115 l 579 810 l 694 810 l 694 115 l 579 115 m 115 115 l 115 810 l 232 810 l 232 115 l 115 115 m 579 115 l 579 0 l 232 0 l 232 115 l 579 115 z "},"ű":{"ha":694,"x_min":115,"x_max":694,"o":"m 463 810 l 463 926 l 347 926 l 347 1042 l 463 1042 l 463 926 l 579 926 l 579 1042 l 694 1042 l 694 926 l 579 926 l 579 810 l 463 810 m 232 810 l 232 926 l 347 926 l 347 810 l 232 810 m 579 115 l 579 694 l 694 694 l 694 0 l 232 0 l 232 115 l 115 115 l 115 694 l 232 694 l 232 115 l 579 115 z "},"Ÿ":{"ha":694,"x_min":115,"x_max":694,"o":"m 463 926 l 463 1042 l 579 1042 l 579 926 l 463 926 m 232 926 l 232 1042 l 347 1042 l 347 926 l 232 926 m 347 0 l 347 347 l 232 347 l 232 463 l 115 463 l 115 810 l 232 810 l 232 463 l 347 463 l 347 347 l 463 347 l 463 463 l 579 463 l 579 810 l 694 810 l 694 463 l 579 463 l 579 347 l 463 347 l 463 0 l 347 0 z "},"Ź":{"ha":694,"x_min":115,"x_max":694,"o":"m 347 926 l 347 1042 l 463 1042 l 463 1157 l 579 1157 l 579 1042 l 463 1042 l 463 926 l 347 926 m 115 810 l 694 810 l 694 579 l 579 579 l 579 694 l 115 694 l 115 810 m 579 579 l 579 463 l 463 463 l 463 579 l 579 579 m 463 463 l 463 347 l 347 347 l 347 463 l 463 463 m 347 347 l 347 232 l 232 232 l 232 347 l 347 347 m 232 232 l 232 115 l 694 115 l 694 0 l 115 0 l 115 232 l 232 232 z "},"ź":{"ha":694,"x_min":115,"x_max":694,"o":"m 347 810 l 347 926 l 463 926 l 463 1042 l 579 1042 l 579 926 l 463 926 l 463 810 l 347 810 m 115 694 l 694 694 l 694 579 l 579 579 l 579 463 l 463 463 l 463 579 l 115 579 l 115 694 m 463 463 l 463 347 l 347 347 l 347 463 l 463 463 m 347 347 l 347 232 l 232 232 l 232 347 l 347 347 m 232 232 l 232 115 l 694 115 l 694 0 l 115 0 l 115 232 l 232 232 z "},"Ż":{"ha":694,"x_min":115,"x_max":694,"o":"m 347 1042 l 347 1157 l 463 1157 l 463 1042 l 347 1042 m 115 926 l 694 926 l 694 810 l 579 810 l 579 694 l 463 694 l 463 810 l 115 810 l 115 926 m 463 694 l 463 463 l 347 463 l 347 694 l 463 694 m 347 463 l 347 232 l 232 232 l 232 463 l 347 463 m 232 232 l 232 115 l 694 115 l 694 0 l 115 0 l 115 232 l 232 232 z "},"ż":{"ha":694,"x_min":115,"x_max":694,"o":"m 347 810 l 347 926 l 463 926 l 463 810 l 347 810 m 115 694 l 694 694 l 694 579 l 579 579 l 579 463 l 463 463 l 463 579 l 115 579 l 115 694 m 463 463 l 463 347 l 347 347 l 347 463 l 463 463 m 347 347 l 347 232 l 232 232 l 232 347 l 347 347 m 232 232 l 232 115 l 694 115 l 694 0 l 115 0 l 115 232 l 232 232 z "},"Ž":{"ha":694,"x_min":115,"x_max":694,"o":"m 347 926 l 347 1042 l 232 1042 l 232 1157 l 347 1157 l 347 1042 l 463 1042 l 463 1157 l 579 1157 l 579 1042 l 463 1042 l 463 926 l 347 926 m 115 810 l 694 810 l 694 579 l 579 579 l 579 694 l 115 694 l 115 810 m 579 579 l 579 463 l 463 463 l 463 579 l 579 579 m 463 463 l 463 347 l 347 347 l 347 463 l 463 463 m 347 347 l 347 232 l 232 232 l 232 347 l 347 347 m 232 232 l 232 115 l 694 115 l 694 0 l 115 0 l 115 232 l 232 232 z "},"ž":{"ha":694,"x_min":115,"x_max":694,"o":"m 347 810 l 347 926 l 232 926 l 232 1042 l 347 1042 l 347 926 l 463 926 l 463 1042 l 579 1042 l 579 926 l 463 926 l 463 810 l 347 810 m 115 694 l 694 694 l 694 579 l 579 579 l 579 463 l 463 463 l 463 579 l 115 579 l 115 694 m 463 463 l 463 347 l 347 347 l 347 463 l 463 463 m 347 347 l 347 232 l 232 232 l 232 347 l 347 347 m 232 232 l 232 115 l 694 115 l 694 0 l 115 0 l 115 232 l 232 232 z "},"ƒ":{"ha":694,"x_min":115,"x_max":694,"o":"m 463 1042 l 694 1042 l 694 926 l 463 926 l 463 1042 m 463 926 l 463 694 l 694 694 l 694 579 l 463 579 l 463 -115 l 347 -115 l 347 579 l 232 579 l 232 694 l 347 694 l 347 926 l 463 926 m 347 -115 l 347 -232 l 115 -232 l 115 -115 l 347 -115 z "},"ǃ":{"ha":694,"x_min":347,"x_max":463,"o":"m 347 232 l 347 810 l 463 810 l 463 232 l 347 232 m 347 0 l 347 115 l 463 115 l 463 0 l 347 0 z "},"Ɇ":{"ha":694,"x_min":115,"x_max":694,"o":"m 232 -232 l 232 0 l 115 0 l 115 926 l 579 926 l 579 1042 l 694 1042 l 694 694 l 579 694 l 579 579 l 694 579 l 694 463 l 579 463 l 579 347 l 463 347 l 463 115 l 694 115 l 694 0 l 347 0 l 347 -232 l 232 -232 m 579 810 l 232 810 l 232 579 l 463 579 l 463 694 l 579 694 l 579 810 m 463 463 l 232 463 l 232 115 l 347 115 l 347 347 l 463 347 l 463 463 z "},"ɇ":{"ha":694,"x_min":115,"x_max":694,"o":"m 232 -115 l 232 115 l 115 115 l 115 579 l 232 579 l 232 463 l 347 463 l 347 579 l 232 579 l 232 694 l 463 694 l 463 810 l 579 810 l 579 579 l 694 579 l 694 347 l 463 347 l 463 232 l 347 232 l 347 115 l 579 115 l 579 232 l 694 232 l 694 115 l 579 115 l 579 0 l 347 0 l 347 -115 l 232 -115 m 579 579 l 463 579 l 463 463 l 579 463 l 579 579 m 347 347 l 232 347 l 232 232 l 347 232 l 347 347 z "},"ˆ":{"ha":694,"x_min":115,"x_max":694,"o":"m 579 694 l 579 810 l 463 810 l 463 926 l 347 926 l 347 1042 l 463 1042 l 463 926 l 579 926 l 579 810 l 694 810 l 694 694 l 579 694 m 115 694 l 115 810 l 232 810 l 232 926 l 347 926 l 347 810 l 232 810 l 232 694 l 115 694 z "},"˜":{"ha":694,"x_min":115,"x_max":694,"o":"m 115 694 l 115 810 l 232 810 l 232 926 l 463 926 l 463 810 l 579 810 l 579 926 l 694 926 l 694 810 l 579 810 l 579 694 l 347 694 l 347 810 l 232 810 l 232 694 l 115 694 z "},"Α":{"ha":694,"x_min":115,"x_max":694,"o":"m 579 0 l 579 347 l 232 347 l 232 694 l 347 694 l 347 463 l 463 463 l 463 694 l 347 694 l 347 926 l 463 926 l 463 694 l 579 694 l 579 347 l 694 347 l 694 0 l 579 0 m 115 0 l 115 347 l 232 347 l 232 0 l 115 0 z "},"Β":{"ha":694,"x_min":115,"x_max":694,"o":"m 115 926 l 579 926 l 579 810 l 694 810 l 694 579 l 579 579 l 579 463 l 694 463 l 694 115 l 579 115 l 579 0 l 115 0 l 115 926 m 579 810 l 232 810 l 232 579 l 579 579 l 579 810 m 579 463 l 232 463 l 232 115 l 579 115 l 579 463 z "},"Γ":{"ha":694,"x_min":115,"x_max":694,"o":"m 115 0 l 115 926 l 694 926 l 694 810 l 232 810 l 232 0 l 115 0 z "},"Δ":{"ha":694,"x_min":115,"x_max":694,"o":"m 347 694 l 347 926 l 463 926 l 463 694 l 347 694 m 463 694 l 579 694 l 579 347 l 463 347 l 463 694 m 347 694 l 347 347 l 232 347 l 232 694 l 347 694 m 579 347 l 694 347 l 694 0 l 115 0 l 115 347 l 232 347 l 232 115 l 579 115 l 579 347 z "},"Ε":{"ha":694,"x_min":115,"x_max":694,"o":"m 115 926 l 694 926 l 694 810 l 232 810 l 232 579 l 694 579 l 694 463 l 232 463 l 232 115 l 694 115 l 694 0 l 115 0 l 115 926 z "},"Ζ":{"ha":694,"x_min":115,"x_max":694,"o":"m 115 926 l 694 926 l 694 810 l 579 810 l 579 694 l 463 694 l 463 810 l 115 810 l 115 926 m 463 694 l 463 463 l 347 463 l 347 694 l 463 694 m 347 463 l 347 232 l 232 232 l 232 463 l 347 463 m 232 232 l 232 115 l 694 115 l 694 0 l 115 0 l 115 232 l 232 232 z "},"Η":{"ha":694,"x_min":115,"x_max":694,"o":"m 579 0 l 579 463 l 232 463 l 232 0 l 115 0 l 115 926 l 232 926 l 232 579 l 579 579 l 579 926 l 694 926 l 694 0 l 579 0 z "},"Θ":{"ha":694,"x_min":115,"x_max":694,"o":"m 232 926 l 579 926 l 579 810 l 232 810 l 232 926 m 579 810 l 694 810 l 694 115 l 579 115 l 579 347 l 232 347 l 232 115 l 115 115 l 115 810 l 232 810 l 232 463 l 579 463 l 579 810 m 579 115 l 579 0 l 232 0 l 232 115 l 579 115 z "},"Ι":{"ha":694,"x_min":232,"x_max":579,"o":"m 232 926 l 579 926 l 579 810 l 463 810 l 463 115 l 579 115 l 579 0 l 232 0 l 232 115 l 347 115 l 347 810 l 232 810 l 232 926 z "},"Κ":{"ha":694,"x_min":115,"x_max":694,"o":"m 579 0 l 579 115 l 463 115 l 463 232 l 347 232 l 347 347 l 232 347 l 232 0 l 115 0 l 115 926 l 232 926 l 232 579 l 347 579 l 347 694 l 463 694 l 463 810 l 579 810 l 579 926 l 694 926 l 694 810 l 579 810 l 579 694 l 463 694 l 463 579 l 347 579 l 347 347 l 463 347 l 463 232 l 579 232 l 579 115 l 694 115 l 694 0 l 579 0 z "},"Λ":{"ha":694,"x_min":115,"x_max":694,"o":"m 579 0 l 579 347 l 463 347 l 463 694 l 347 694 l 347 926 l 463 926 l 463 694 l 579 694 l 579 347 l 694 347 l 694 0 l 579 0 m 115 0 l 115 347 l 232 347 l 232 694 l 347 694 l 347 347 l 232 347 l 232 0 l 115 0 z "},"Μ":{"ha":694,"x_min":115,"x_max":694,"o":"m 347 232 l 347 463 l 232 463 l 232 0 l 115 0 l 115 926 l 232 926 l 232 694 l 347 694 l 347 463 l 463 463 l 463 694 l 579 694 l 579 926 l 694 926 l 694 0 l 579 0 l 579 463 l 463 463 l 463 232 l 347 232 z "},"Ν":{"ha":694,"x_min":115,"x_max":694,"o":"m 579 0 l 579 115 l 463 115 l 463 347 l 347 347 l 347 579 l 232 579 l 232 0 l 115 0 l 115 926 l 232 926 l 232 810 l 347 810 l 347 579 l 463 579 l 463 347 l 579 347 l 579 926 l 694 926 l 694 0 l 579 0 z "},"Ξ":{"ha":694,"x_min":115,"x_max":694,"o":"m 115 926 l 694 926 l 694 810 l 115 810 l 115 926 m 232 579 l 579 579 l 579 463 l 232 463 l 232 579 m 115 115 l 694 115 l 694 0 l 115 0 l 115 115 z "},"Ο":{"ha":694,"x_min":115,"x_max":694,"o":"m 232 926 l 579 926 l 579 810 l 232 810 l 232 926 m 579 810 l 694 810 l 694 115 l 579 115 l 579 810 m 232 810 l 232 115 l 115 115 l 115 810 l 232 810 m 579 115 l 579 0 l 232 0 l 232 115 l 579 115 z "},"Π":{"ha":694,"x_min":115,"x_max":694,"o":"m 579 0 l 579 810 l 232 810 l 232 0 l 115 0 l 115 926 l 694 926 l 694 0 l 579 0 z "},"Ρ":{"ha":694,"x_min":115,"x_max":694,"o":"m 115 0 l 115 926 l 579 926 l 579 810 l 694 810 l 694 463 l 579 463 l 579 347 l 232 347 l 232 0 l 115 0 m 579 810 l 232 810 l 232 463 l 579 463 l 579 810 z "},"Σ":{"ha":694,"x_min":115,"x_max":694,"o":"m 579 694 l 579 810 l 232 810 l 232 694 l 115 694 l 115 926 l 694 926 l 694 694 l 579 694 m 232 694 l 347 694 l 347 579 l 232 579 l 232 694 m 347 579 l 463 579 l 463 347 l 347 347 l 347 579 m 347 347 l 347 232 l 232 232 l 232 347 l 347 347 m 232 232 l 232 115 l 579 115 l 579 232 l 694 232 l 694 0 l 115 0 l 115 232 l 232 232 z "},"Τ":{"ha":694,"x_min":115,"x_max":694,"o":"m 347 0 l 347 810 l 115 810 l 115 926 l 694 926 l 694 810 l 463 810 l 463 0 l 347 0 z "},"Υ":{"ha":694,"x_min":115,"x_max":694,"o":"m 347 0 l 347 463 l 232 463 l 232 579 l 115 579 l 115 926 l 232 926 l 232 579 l 347 579 l 347 463 l 463 463 l 463 579 l 579 579 l 579 926 l 694 926 l 694 579 l 579 579 l 579 463 l 463 463 l 463 0 l 347 0 z "},"Φ":{"ha":694,"x_min":115,"x_max":694,"o":"m 347 -115 l 347 115 l 232 115 l 232 232 l 115 232 l 115 579 l 232 579 l 232 232 l 347 232 l 347 579 l 232 579 l 232 694 l 347 694 l 347 926 l 463 926 l 463 694 l 579 694 l 579 579 l 694 579 l 694 232 l 579 232 l 579 115 l 463 115 l 463 -115 l 347 -115 m 579 579 l 463 579 l 463 232 l 579 232 l 579 579 z "},"Χ":{"ha":694,"x_min":115,"x_max":694,"o":"m 579 0 l 579 232 l 463 232 l 463 347 l 347 347 l 347 579 l 232 579 l 232 694 l 115 694 l 115 926 l 232 926 l 232 694 l 347 694 l 347 579 l 463 579 l 463 694 l 579 694 l 579 926 l 694 926 l 694 694 l 579 694 l 579 579 l 463 579 l 463 347 l 579 347 l 579 232 l 694 232 l 694 0 l 579 0 m 115 0 l 115 232 l 232 232 l 232 347 l 347 347 l 347 232 l 232 232 l 232 0 l 115 0 z "},"Ψ":{"ha":694,"x_min":115,"x_max":694,"o":"m 347 0 l 347 232 l 232 232 l 232 347 l 115 347 l 115 926 l 232 926 l 232 347 l 347 347 l 347 926 l 463 926 l 463 347 l 579 347 l 579 926 l 694 926 l 694 347 l 579 347 l 579 232 l 463 232 l 463 0 l 347 0 z "},"Ω":{"ha":694,"x_min":115,"x_max":694,"o":"m 232 926 l 579 926 l 579 810 l 232 810 l 232 926 m 579 810 l 694 810 l 694 232 l 579 232 l 579 115 l 694 115 l 694 0 l 463 0 l 463 347 l 579 347 l 579 810 m 232 810 l 232 347 l 347 347 l 347 0 l 115 0 l 115 115 l 232 115 l 232 232 l 115 232 l 115 810 l 232 810 z "},"Ϊ":{"ha":694,"x_min":232,"x_max":579,"o":"m 463 926 l 463 1042 l 579 1042 l 579 926 l 463 926 m 232 926 l 232 1042 l 347 1042 l 347 926 l 232 926 m 232 810 l 579 810 l 579 694 l 463 694 l 463 115 l 579 115 l 579 0 l 232 0 l 232 115 l 347 115 l 347 694 l 232 694 l 232 810 z "},"Ϋ":{"ha":694,"x_min":115,"x_max":694,"o":"m 463 926 l 463 1042 l 579 1042 l 579 926 l 463 926 m 232 926 l 232 1042 l 347 1042 l 347 926 l 232 926 m 347 0 l 347 463 l 232 463 l 232 579 l 115 579 l 115 810 l 232 810 l 232 579 l 347 579 l 347 463 l 463 463 l 463 579 l 579 579 l 579 810 l 694 810 l 694 579 l 579 579 l 579 463 l 463 463 l 463 0 l 347 0 z "},"ά":{"ha":694,"x_min":115,"x_max":694,"o":"m 347 810 l 347 926 l 463 926 l 463 1042 l 579 1042 l 579 926 l 463 926 l 463 810 l 347 810 m 579 0 l 579 115 l 463 115 l 463 579 l 232 579 l 232 694 l 463 694 l 463 579 l 579 579 l 579 694 l 694 694 l 694 463 l 579 463 l 579 115 l 694 115 l 694 0 l 579 0 m 232 579 l 232 115 l 115 115 l 115 579 l 232 579 m 463 115 l 463 0 l 232 0 l 232 115 l 463 115 z "},"α":{"ha":694,"x_min":115,"x_max":694,"o":"m 579 0 l 579 115 l 463 115 l 463 579 l 232 579 l 232 694 l 463 694 l 463 579 l 579 579 l 579 694 l 694 694 l 694 463 l 579 463 l 579 115 l 694 115 l 694 0 l 579 0 m 232 579 l 232 115 l 115 115 l 115 579 l 232 579 m 463 115 l 463 0 l 232 0 l 232 115 l 463 115 z "},"β":{"ha":694,"x_min":115,"x_max":694,"o":"m 115 -347 l 115 926 l 579 926 l 579 810 l 694 810 l 694 579 l 579 579 l 579 463 l 694 463 l 694 115 l 579 115 l 579 0 l 232 0 l 232 -347 l 115 -347 m 579 810 l 232 810 l 232 115 l 579 115 l 579 463 l 347 463 l 347 579 l 579 579 l 579 810 z "},"γ":{"ha":694,"x_min":115,"x_max":694,"o":"m 115 347 l 115 463 l 232 463 l 232 579 l 579 579 l 579 810 l 694 810 l 694 579 l 579 579 l 579 -232 l 463 -232 l 463 -347 l 347 -347 l 347 -232 l 232 -232 l 232 115 l 347 115 l 347 -115 l 463 -115 l 463 115 l 347 115 l 347 463 l 232 463 l 232 347 l 115 347 z "},"δ":{"ha":694,"x_min":115,"x_max":694,"o":"m 115 810 l 694 810 l 694 694 l 232 694 l 232 579 l 115 579 l 115 810 m 232 579 l 579 579 l 579 463 l 232 463 l 232 579 m 579 463 l 694 463 l 694 115 l 579 115 l 579 463 m 232 463 l 232 115 l 115 115 l 115 463 l 232 463 m 579 115 l 579 0 l 232 0 l 232 115 l 579 115 z "},"ε":{"ha":694,"x_min":115,"x_max":694,"o":"m 579 463 l 579 579 l 232 579 l 232 694 l 579 694 l 579 579 l 694 579 l 694 463 l 579 463 m 232 579 l 232 463 l 115 463 l 115 579 l 232 579 m 232 463 l 463 463 l 463 347 l 232 347 l 232 463 m 232 347 l 232 115 l 115 115 l 115 347 l 232 347 m 579 115 l 579 232 l 694 232 l 694 115 l 579 115 m 579 115 l 579 0 l 232 0 l 232 115 l 579 115 z "},"ζ":{"ha":694,"x_min":115,"x_max":694,"o":"m 463 -232 l 463 -115 l 579 -115 l 579 0 l 232 0 l 232 115 l 115 115 l 115 463 l 232 463 l 232 579 l 347 579 l 347 694 l 115 694 l 115 810 l 694 810 l 694 694 l 579 694 l 579 579 l 347 579 l 347 463 l 232 463 l 232 115 l 694 115 l 694 -115 l 579 -115 l 579 -232 l 463 -232 z "},"η":{"ha":694,"x_min":115,"x_max":694,"o":"m 115 0 l 115 694 l 579 694 l 579 579 l 232 579 l 232 0 l 115 0 m 579 -232 l 579 579 l 694 579 l 694 -232 l 579 -232 z "},"θ":{"ha":694,"x_min":115,"x_max":694,"o":"m 232 694 l 579 694 l 579 579 l 232 579 l 232 694 m 579 579 l 694 579 l 694 115 l 579 115 l 579 232 l 232 232 l 232 115 l 115 115 l 115 579 l 232 579 l 232 347 l 579 347 l 579 579 m 579 115 l 579 0 l 232 0 l 232 115 l 579 115 z "},"ι":{"ha":694,"x_min":232,"x_max":579,"o":"m 463 0 l 463 115 l 347 115 l 347 579 l 232 579 l 232 694 l 463 694 l 463 115 l 579 115 l 579 0 l 463 0 z "},"κ":{"ha":694,"x_min":115,"x_max":694,"o":"m 579 0 l 579 115 l 463 115 l 463 232 l 232 232 l 232 0 l 115 0 l 115 694 l 232 694 l 232 347 l 347 347 l 347 463 l 463 463 l 463 579 l 579 579 l 579 694 l 694 694 l 694 579 l 579 579 l 579 463 l 463 463 l 463 232 l 579 232 l 579 115 l 694 115 l 694 0 l 579 0 z "},"λ":{"ha":694,"x_min":115,"x_max":694,"o":"m 579 0 l 579 232 l 463 232 l 463 463 l 347 463 l 347 810 l 115 810 l 115 926 l 347 926 l 347 810 l 463 810 l 463 463 l 579 463 l 579 232 l 694 232 l 694 0 l 579 0 m 115 0 l 115 232 l 232 232 l 232 463 l 347 463 l 347 232 l 232 232 l 232 0 l 115 0 z "},"μ":{"ha":694,"x_min":115,"x_max":694,"o":"m 579 0 l 579 115 l 463 115 l 463 232 l 579 232 l 579 694 l 694 694 l 694 0 l 579 0 m 115 -347 l 115 694 l 232 694 l 232 115 l 463 115 l 463 0 l 232 0 l 232 -347 l 115 -347 z "},"ν":{"ha":694,"x_min":115,"x_max":694,"o":"m 347 0 l 347 232 l 232 232 l 232 463 l 115 463 l 115 694 l 232 694 l 232 463 l 347 463 l 347 232 l 579 232 l 579 579 l 347 579 l 347 694 l 579 694 l 579 579 l 694 579 l 694 232 l 579 232 l 579 115 l 463 115 l 463 0 l 347 0 z "},"ξ":{"ha":694,"x_min":115,"x_max":694,"o":"m 463 -232 l 463 -115 l 579 -115 l 579 0 l 232 0 l 232 115 l 115 115 l 115 463 l 232 463 l 232 694 l 115 694 l 115 810 l 694 810 l 694 694 l 347 694 l 347 579 l 694 579 l 694 463 l 232 463 l 232 115 l 694 115 l 694 -115 l 579 -115 l 579 -232 l 463 -232 z "},"ο":{"ha":694,"x_min":115,"x_max":694,"o":"m 232 694 l 579 694 l 579 579 l 232 579 l 232 694 m 579 579 l 694 579 l 694 115 l 579 115 l 579 579 m 232 579 l 232 115 l 115 115 l 115 579 l 232 579 m 579 115 l 579 0 l 232 0 l 232 115 l 579 115 z "},"π":{"ha":694,"x_min":115,"x_max":694,"o":"m 579 0 l 579 115 l 463 115 l 463 579 l 347 579 l 347 0 l 232 0 l 232 579 l 115 579 l 115 694 l 694 694 l 694 579 l 579 579 l 579 115 l 694 115 l 694 0 l 579 0 z "},"ρ":{"ha":694,"x_min":115,"x_max":694,"o":"m 115 -347 l 115 579 l 232 579 l 232 694 l 579 694 l 579 579 l 232 579 l 232 232 l 347 232 l 347 115 l 232 115 l 232 -347 l 115 -347 m 579 579 l 694 579 l 694 115 l 579 115 l 579 579 m 579 115 l 579 0 l 347 0 l 347 115 l 579 115 z "},"ς":{"ha":694,"x_min":115,"x_max":694,"o":"m 579 463 l 579 579 l 232 579 l 232 694 l 579 694 l 579 579 l 694 579 l 694 463 l 579 463 m 463 -347 l 463 -232 l 579 -232 l 579 0 l 232 0 l 232 115 l 115 115 l 115 579 l 232 579 l 232 115 l 694 115 l 694 -232 l 579 -232 l 579 -347 l 463 -347 z "},"σ":{"ha":694,"x_min":115,"x_max":694,"o":"m 232 694 l 694 694 l 694 579 l 579 579 l 579 463 l 463 463 l 463 579 l 232 579 l 232 694 m 232 579 l 232 115 l 115 115 l 115 579 l 232 579 m 579 463 l 694 463 l 694 115 l 579 115 l 579 463 m 579 115 l 579 0 l 232 0 l 232 115 l 579 115 z "},"τ":{"ha":694,"x_min":115,"x_max":694,"o":"m 115 694 l 694 694 l 694 579 l 463 579 l 463 115 l 347 115 l 347 579 l 115 579 l 115 694 m 463 115 l 694 115 l 694 0 l 463 0 l 463 115 z "},"υ":{"ha":694,"x_min":115,"x_max":694,"o":"m 579 579 l 463 579 l 463 694 l 579 694 l 579 579 m 579 579 l 694 579 l 694 232 l 579 232 l 579 579 m 115 115 l 115 694 l 232 694 l 232 115 l 115 115 m 579 232 l 579 115 l 463 115 l 463 232 l 579 232 m 463 115 l 463 0 l 232 0 l 232 115 l 463 115 z "},"φ":{"ha":694,"x_min":115,"x_max":694,"o":"m 347 -347 l 347 0 l 232 0 l 232 115 l 115 115 l 115 579 l 232 579 l 232 115 l 347 115 l 347 694 l 579 694 l 579 579 l 694 579 l 694 115 l 579 115 l 579 0 l 463 0 l 463 -347 l 347 -347 m 579 579 l 463 579 l 463 115 l 579 115 l 579 579 z "},"χ":{"ha":694,"x_min":115,"x_max":694,"o":"m 579 -232 l 579 -115 l 463 -115 l 463 115 l 347 115 l 347 347 l 232 347 l 232 579 l 115 579 l 115 694 l 232 694 l 232 579 l 347 579 l 347 347 l 463 347 l 463 463 l 579 463 l 579 694 l 694 694 l 694 463 l 579 463 l 579 347 l 463 347 l 463 115 l 579 115 l 579 -115 l 694 -115 l 694 -232 l 579 -232 m 115 -232 l 115 0 l 232 0 l 232 115 l 347 115 l 347 0 l 232 0 l 232 -232 l 115 -232 z "},"ψ":{"ha":694,"x_min":115,"x_max":694,"o":"m 347 -347 l 347 0 l 232 0 l 232 115 l 115 115 l 115 694 l 232 694 l 232 115 l 347 115 l 347 694 l 463 694 l 463 115 l 579 115 l 579 694 l 694 694 l 694 115 l 579 115 l 579 0 l 463 0 l 463 -347 l 347 -347 z "},"ω":{"ha":694,"x_min":115,"x_max":694,"o":"m 463 0 l 463 115 l 347 115 l 347 347 l 463 347 l 463 115 l 579 115 l 579 579 l 463 579 l 463 694 l 579 694 l 579 579 l 694 579 l 694 115 l 579 115 l 579 0 l 463 0 m 232 0 l 232 115 l 115 115 l 115 579 l 232 579 l 232 694 l 347 694 l 347 579 l 232 579 l 232 115 l 347 115 l 347 0 l 232 0 z "},"Ѐ":{"ha":694,"x_min":115,"x_max":694,"o":"m 347 926 l 347 1042 l 232 1042 l 232 1157 l 347 1157 l 347 1042 l 463 1042 l 463 926 l 347 926 m 115 810 l 694 810 l 694 694 l 232 694 l 232 463 l 579 463 l 579 347 l 232 347 l 232 115 l 694 115 l 694 0 l 115 0 l 115 810 z "},"Ё":{"ha":694,"x_min":115,"x_max":694,"o":"m 463 1042 l 463 1157 l 579 1157 l 579 1042 l 463 1042 m 232 1042 l 232 1157 l 347 1157 l 347 1042 l 232 1042 m 115 926 l 694 926 l 694 810 l 232 810 l 232 579 l 579 579 l 579 463 l 232 463 l 232 115 l 694 115 l 694 0 l 115 0 l 115 926 z "},"Ђ":{"ha":694,"x_min":115,"x_max":694,"o":"m 232 0 l 232 810 l 115 810 l 115 926 l 579 926 l 579 810 l 347 810 l 347 463 l 463 463 l 463 579 l 694 579 l 694 -115 l 579 -115 l 579 463 l 463 463 l 463 347 l 347 347 l 347 0 l 232 0 m 579 -115 l 579 -232 l 347 -232 l 347 -115 l 579 -115 z "},"Ѓ":{"ha":694,"x_min":232,"x_max":694,"o":"m 347 926 l 347 1042 l 463 1042 l 463 1157 l 579 1157 l 579 1042 l 463 1042 l 463 926 l 347 926 m 232 0 l 232 810 l 694 810 l 694 694 l 347 694 l 347 0 l 232 0 z "},"Є":{"ha":694,"x_min":115,"x_max":694,"o":"m 579 694 l 579 810 l 347 810 l 347 926 l 579 926 l 579 810 l 694 810 l 694 694 l 579 694 m 347 810 l 347 694 l 232 694 l 232 810 l 347 810 m 232 694 l 232 579 l 579 579 l 579 463 l 232 463 l 232 232 l 115 232 l 115 694 l 232 694 m 232 232 l 347 232 l 347 115 l 232 115 l 232 232 m 579 115 l 579 232 l 694 232 l 694 115 l 579 115 m 579 115 l 579 0 l 347 0 l 347 115 l 579 115 z "},"Ѕ":{"ha":694,"x_min":115,"x_max":694,"o":"m 579 694 l 579 810 l 232 810 l 232 926 l 579 926 l 579 810 l 694 810 l 694 694 l 579 694 m 232 810 l 232 579 l 115 579 l 115 810 l 232 810 m 232 579 l 579 579 l 579 463 l 232 463 l 232 579 m 579 463 l 694 463 l 694 115 l 579 115 l 579 463 m 579 115 l 579 0 l 232 0 l 232 115 l 115 115 l 115 232 l 232 232 l 232 115 l 579 115 z "},"І":{"ha":694,"x_min":232,"x_max":579,"o":"m 232 926 l 579 926 l 579 810 l 463 810 l 463 115 l 579 115 l 579 0 l 232 0 l 232 115 l 347 115 l 347 810 l 232 810 l 232 926 z "},"Ї":{"ha":694,"x_min":232,"x_max":579,"o":"m 463 1042 l 463 1157 l 579 1157 l 579 1042 l 463 1042 m 232 1042 l 232 1157 l 347 1157 l 347 1042 l 232 1042 m 232 926 l 579 926 l 579 810 l 463 810 l 463 115 l 579 115 l 579 0 l 232 0 l 232 115 l 347 115 l 347 810 l 232 810 l 232 926 z "},"Ј":{"ha":694,"x_min":232,"x_max":694,"o":"m 347 926 l 694 926 l 694 810 l 579 810 l 579 115 l 463 115 l 463 810 l 347 810 l 347 926 m 463 115 l 463 0 l 232 0 l 232 115 l 463 115 z "},"Љ":{"ha":694,"x_min":0,"x_max":694,"o":"m 0 0 l 0 115 l 115 115 l 115 926 l 463 926 l 463 579 l 579 579 l 579 463 l 694 463 l 694 115 l 579 115 l 579 0 l 347 0 l 347 810 l 232 810 l 232 115 l 115 115 l 115 0 l 0 0 m 579 463 l 463 463 l 463 115 l 579 115 l 579 463 z "},"Њ":{"ha":694,"x_min":115,"x_max":694,"o":"m 115 0 l 115 926 l 232 926 l 232 579 l 347 579 l 347 926 l 463 926 l 463 579 l 579 579 l 579 463 l 694 463 l 694 115 l 579 115 l 579 0 l 347 0 l 347 463 l 232 463 l 232 0 l 115 0 m 579 463 l 463 463 l 463 115 l 579 115 l 579 463 z "},"Ћ":{"ha":694,"x_min":115,"x_max":694,"o":"m 579 0 l 579 463 l 463 463 l 463 579 l 694 579 l 694 0 l 579 0 m 232 0 l 232 810 l 115 810 l 115 926 l 579 926 l 579 810 l 347 810 l 347 463 l 463 463 l 463 347 l 347 347 l 347 0 l 232 0 z "},"Ќ":{"ha":694,"x_min":115,"x_max":694,"o":"m 347 926 l 347 1042 l 463 1042 l 463 1157 l 579 1157 l 579 1042 l 463 1042 l 463 926 l 347 926 m 579 0 l 579 232 l 463 232 l 463 463 l 347 463 l 347 579 l 463 579 l 463 694 l 579 694 l 579 926 l 694 926 l 694 694 l 579 694 l 579 579 l 463 579 l 463 463 l 579 463 l 579 232 l 694 232 l 694 0 l 579 0 m 115 0 l 115 926 l 232 926 l 232 463 l 347 463 l 347 347 l 232 347 l 232 0 l 115 0 z "},"Ѝ":{"ha":694,"x_min":115,"x_max":694,"o":"m 347 926 l 347 1042 l 232 1042 l 232 1157 l 347 1157 l 347 1042 l 463 1042 l 463 926 l 347 926 m 579 0 l 579 579 l 463 579 l 463 810 l 579 810 l 579 926 l 694 926 l 694 0 l 579 0 m 115 0 l 115 926 l 232 926 l 232 347 l 347 347 l 347 579 l 463 579 l 463 347 l 347 347 l 347 115 l 232 115 l 232 0 l 115 0 z "},"Ў":{"ha":694,"x_min":115,"x_max":694,"o":"m 347 926 l 347 1042 l 232 1042 l 232 1157 l 347 1157 l 347 1042 l 463 1042 l 463 1157 l 579 1157 l 579 1042 l 463 1042 l 463 926 l 347 926 m 579 579 l 579 926 l 694 926 l 694 579 l 579 579 m 115 579 l 115 926 l 232 926 l 232 579 l 115 579 m 579 579 l 579 347 l 463 347 l 463 579 l 579 579 m 232 579 l 347 579 l 347 347 l 232 347 l 232 579 m 347 347 l 463 347 l 463 115 l 347 115 l 347 347 m 347 115 l 347 0 l 115 0 l 115 115 l 347 115 z "},"Џ":{"ha":694,"x_min":115,"x_max":694,"o":"m 347 -232 l 347 0 l 115 0 l 115 926 l 232 926 l 232 115 l 579 115 l 579 926 l 694 926 l 694 0 l 463 0 l 463 -232 l 347 -232 z "},"А":{"ha":694,"x_min":115,"x_max":694,"o":"m 579 0 l 579 347 l 232 347 l 232 694 l 347 694 l 347 463 l 463 463 l 463 694 l 347 694 l 347 926 l 463 926 l 463 694 l 579 694 l 579 347 l 694 347 l 694 0 l 579 0 m 115 0 l 115 347 l 232 347 l 232 0 l 115 0 z "},"Б":{"ha":694,"x_min":115,"x_max":694,"o":"m 115 926 l 579 926 l 579 810 l 232 810 l 232 579 l 579 579 l 579 463 l 694 463 l 694 115 l 579 115 l 579 0 l 115 0 l 115 926 m 579 463 l 232 463 l 232 115 l 579 115 l 579 463 z "},"В":{"ha":694,"x_min":115,"x_max":694,"o":"m 115 926 l 579 926 l 579 810 l 694 810 l 694 579 l 579 579 l 579 463 l 694 463 l 694 115 l 579 115 l 579 0 l 115 0 l 115 926 m 579 810 l 232 810 l 232 579 l 579 579 l 579 810 m 579 463 l 232 463 l 232 115 l 579 115 l 579 463 z "},"Г":{"ha":694,"x_min":232,"x_max":694,"o":"m 232 0 l 232 926 l 694 926 l 694 810 l 347 810 l 347 0 l 232 0 z "},"Д":{"ha":694,"x_min":115,"x_max":694,"o":"m 579 -115 l 579 0 l 232 0 l 232 -115 l 115 -115 l 115 232 l 232 232 l 232 115 l 463 115 l 463 810 l 347 810 l 347 232 l 232 232 l 232 926 l 579 926 l 579 115 l 694 115 l 694 -115 l 579 -115 z "},"Е":{"ha":694,"x_min":115,"x_max":694,"o":"m 115 926 l 694 926 l 694 810 l 232 810 l 232 579 l 579 579 l 579 463 l 232 463 l 232 115 l 694 115 l 694 0 l 115 0 l 115 926 z "},"Ж":{"ha":694,"x_min":115,"x_max":694,"o":"m 579 0 l 579 347 l 463 347 l 463 0 l 347 0 l 347 347 l 232 347 l 232 579 l 115 579 l 115 926 l 232 926 l 232 579 l 347 579 l 347 926 l 463 926 l 463 579 l 579 579 l 579 926 l 694 926 l 694 579 l 579 579 l 579 347 l 694 347 l 694 0 l 579 0 m 115 0 l 115 347 l 232 347 l 232 0 l 115 0 z "},"З":{"ha":694,"x_min":115,"x_max":694,"o":"m 115 694 l 115 926 l 579 926 l 579 810 l 232 810 l 232 694 l 115 694 m 579 810 l 694 810 l 694 579 l 579 579 l 579 810 m 579 579 l 579 463 l 347 463 l 347 579 l 579 579 m 579 463 l 694 463 l 694 115 l 579 115 l 579 463 m 579 115 l 579 0 l 232 0 l 232 115 l 115 115 l 115 232 l 232 232 l 232 115 l 579 115 z "},"И":{"ha":694,"x_min":115,"x_max":694,"o":"m 579 0 l 579 579 l 463 579 l 463 810 l 579 810 l 579 926 l 694 926 l 694 0 l 579 0 m 115 0 l 115 926 l 232 926 l 232 347 l 347 347 l 347 579 l 463 579 l 463 347 l 347 347 l 347 115 l 232 115 l 232 0 l 115 0 z "},"Й":{"ha":694,"x_min":115,"x_max":694,"o":"m 347 926 l 347 1042 l 232 1042 l 232 1157 l 347 1157 l 347 1042 l 463 1042 l 463 1157 l 579 1157 l 579 1042 l 463 1042 l 463 926 l 347 926 m 579 0 l 579 579 l 463 579 l 463 810 l 579 810 l 579 926 l 694 926 l 694 0 l 579 0 m 115 0 l 115 926 l 232 926 l 232 347 l 347 347 l 347 579 l 463 579 l 463 347 l 347 347 l 347 115 l 232 115 l 232 0 l 115 0 z "},"К":{"ha":694,"x_min":115,"x_max":694,"o":"m 579 0 l 579 232 l 463 232 l 463 463 l 347 463 l 347 579 l 463 579 l 463 694 l 579 694 l 579 926 l 694 926 l 694 694 l 579 694 l 579 579 l 463 579 l 463 463 l 579 463 l 579 232 l 694 232 l 694 0 l 579 0 m 115 0 l 115 926 l 232 926 l 232 463 l 347 463 l 347 347 l 232 347 l 232 0 l 115 0 z "},"Л":{"ha":694,"x_min":115,"x_max":694,"o":"m 579 0 l 579 810 l 347 810 l 347 115 l 232 115 l 232 926 l 694 926 l 694 0 l 579 0 m 115 0 l 115 115 l 232 115 l 232 0 l 115 0 z "},"М":{"ha":694,"x_min":115,"x_max":694,"o":"m 347 232 l 347 463 l 232 463 l 232 0 l 115 0 l 115 926 l 232 926 l 232 694 l 347 694 l 347 463 l 463 463 l 463 694 l 579 694 l 579 926 l 694 926 l 694 0 l 579 0 l 579 463 l 463 463 l 463 232 l 347 232 z "},"Н":{"ha":694,"x_min":115,"x_max":694,"o":"m 579 0 l 579 463 l 232 463 l 232 0 l 115 0 l 115 926 l 232 926 l 232 579 l 579 579 l 579 926 l 694 926 l 694 0 l 579 0 z "},"О":{"ha":694,"x_min":115,"x_max":694,"o":"m 232 926 l 579 926 l 579 810 l 232 810 l 232 926 m 579 810 l 694 810 l 694 115 l 579 115 l 579 810 m 232 810 l 232 115 l 115 115 l 115 810 l 232 810 m 579 115 l 579 0 l 232 0 l 232 115 l 579 115 z "},"П":{"ha":694,"x_min":115,"x_max":694,"o":"m 579 0 l 579 810 l 232 810 l 232 0 l 115 0 l 115 926 l 694 926 l 694 0 l 579 0 z "},"Р":{"ha":694,"x_min":115,"x_max":694,"o":"m 115 0 l 115 926 l 579 926 l 579 810 l 694 810 l 694 463 l 579 463 l 579 347 l 232 347 l 232 0 l 115 0 m 579 810 l 232 810 l 232 463 l 579 463 l 579 810 z "},"С":{"ha":694,"x_min":115,"x_max":694,"o":"m 579 694 l 579 810 l 232 810 l 232 926 l 579 926 l 579 810 l 694 810 l 694 694 l 579 694 m 232 810 l 232 115 l 115 115 l 115 810 l 232 810 m 579 115 l 579 232 l 694 232 l 694 115 l 579 115 m 579 115 l 579 0 l 232 0 l 232 115 l 579 115 z "},"Т":{"ha":694,"x_min":115,"x_max":694,"o":"m 347 0 l 347 810 l 115 810 l 115 926 l 694 926 l 694 810 l 463 810 l 463 0 l 347 0 z "},"У":{"ha":694,"x_min":115,"x_max":694,"o":"m 579 463 l 579 926 l 694 926 l 694 463 l 579 463 m 115 463 l 115 926 l 232 926 l 232 463 l 115 463 m 579 463 l 579 232 l 463 232 l 463 463 l 579 463 m 232 463 l 347 463 l 347 232 l 232 232 l 232 463 m 347 232 l 463 232 l 463 115 l 347 115 l 347 232 m 347 115 l 347 0 l 115 0 l 115 115 l 347 115 z "},"Ф":{"ha":694,"x_min":115,"x_max":694,"o":"m 347 0 l 347 115 l 232 115 l 232 232 l 115 232 l 115 694 l 232 694 l 232 232 l 347 232 l 347 694 l 232 694 l 232 810 l 347 810 l 347 926 l 463 926 l 463 810 l 579 810 l 579 694 l 694 694 l 694 232 l 579 232 l 579 115 l 463 115 l 463 0 l 347 0 m 579 694 l 463 694 l 463 232 l 579 232 l 579 694 z "},"Х":{"ha":694,"x_min":115,"x_max":694,"o":"m 579 0 l 579 232 l 463 232 l 463 347 l 347 347 l 347 579 l 232 579 l 232 694 l 115 694 l 115 926 l 232 926 l 232 694 l 347 694 l 347 579 l 463 579 l 463 694 l 579 694 l 579 926 l 694 926 l 694 694 l 579 694 l 579 579 l 463 579 l 463 347 l 579 347 l 579 232 l 694 232 l 694 0 l 579 0 m 115 0 l 115 232 l 232 232 l 232 347 l 347 347 l 347 232 l 232 232 l 232 0 l 115 0 z "},"Ц":{"ha":694,"x_min":115,"x_max":694,"o":"m 579 -115 l 579 0 l 115 0 l 115 926 l 232 926 l 232 115 l 463 115 l 463 926 l 579 926 l 579 115 l 694 115 l 694 -115 l 579 -115 z "},"Ч":{"ha":694,"x_min":115,"x_max":694,"o":"m 579 0 l 579 347 l 232 347 l 232 463 l 115 463 l 115 926 l 232 926 l 232 463 l 579 463 l 579 926 l 694 926 l 694 0 l 579 0 z "},"Ш":{"ha":694,"x_min":115,"x_max":694,"o":"m 579 115 l 579 926 l 694 926 l 694 0 l 115 0 l 115 926 l 232 926 l 232 115 l 347 115 l 347 926 l 463 926 l 463 115 l 579 115 z "},"Щ":{"ha":694,"x_min":115,"x_max":810,"o":"m 579 115 l 579 926 l 694 926 l 694 0 l 115 0 l 115 926 l 232 926 l 232 115 l 347 115 l 347 926 l 463 926 l 463 115 l 579 115 m 694 0 l 810 0 l 810 -232 l 463 -232 l 463 -115 l 694 -115 l 694 0 z "},"Ъ":{"ha":694,"x_min":0,"x_max":694,"o":"m 0 926 l 347 926 l 347 579 l 579 579 l 579 463 l 694 463 l 694 115 l 579 115 l 579 0 l 232 0 l 232 810 l 0 810 l 0 926 m 579 463 l 347 463 l 347 115 l 579 115 l 579 463 z "},"Ы":{"ha":694,"x_min":115,"x_max":694,"o":"m 579 0 l 579 926 l 694 926 l 694 0 l 579 0 m 115 0 l 115 926 l 232 926 l 232 579 l 347 579 l 347 463 l 463 463 l 463 115 l 347 115 l 347 0 l 115 0 m 347 463 l 232 463 l 232 115 l 347 115 l 347 463 z "},"Ь":{"ha":694,"x_min":115,"x_max":694,"o":"m 115 0 l 115 926 l 232 926 l 232 579 l 579 579 l 579 463 l 694 463 l 694 115 l 579 115 l 579 0 l 115 0 m 579 463 l 232 463 l 232 115 l 579 115 l 579 463 z "},"Э":{"ha":694,"x_min":115,"x_max":694,"o":"m 115 694 l 115 810 l 232 810 l 232 926 l 463 926 l 463 810 l 232 810 l 232 694 l 115 694 m 463 810 l 579 810 l 579 694 l 463 694 l 463 810 m 579 694 l 694 694 l 694 232 l 579 232 l 579 463 l 232 463 l 232 579 l 579 579 l 579 694 m 579 232 l 579 115 l 463 115 l 463 232 l 579 232 m 463 115 l 463 0 l 232 0 l 232 115 l 115 115 l 115 232 l 232 232 l 232 115 l 463 115 z "},"Ю":{"ha":694,"x_min":115,"x_max":694,"o":"m 463 0 l 463 115 l 347 115 l 347 463 l 232 463 l 232 0 l 115 0 l 115 926 l 232 926 l 232 579 l 347 579 l 347 810 l 463 810 l 463 115 l 579 115 l 579 810 l 463 810 l 463 926 l 579 926 l 579 810 l 694 810 l 694 115 l 579 115 l 579 0 l 463 0 z "},"Я":{"ha":694,"x_min":115,"x_max":694,"o":"m 579 0 l 579 347 l 463 347 l 463 232 l 347 232 l 347 347 l 232 347 l 232 463 l 115 463 l 115 810 l 232 810 l 232 463 l 579 463 l 579 810 l 232 810 l 232 926 l 694 926 l 694 0 l 579 0 m 115 0 l 115 115 l 232 115 l 232 232 l 347 232 l 347 115 l 232 115 l 232 0 l 115 0 z "},"а":{"ha":694,"x_min":115,"x_max":694,"o":"m 579 0 l 579 115 l 463 115 l 463 232 l 579 232 l 579 347 l 232 347 l 232 463 l 579 463 l 579 579 l 232 579 l 232 694 l 579 694 l 579 579 l 694 579 l 694 0 l 579 0 m 232 347 l 232 115 l 115 115 l 115 347 l 232 347 m 463 115 l 463 0 l 232 0 l 232 115 l 463 115 z "},"б":{"ha":694,"x_min":115,"x_max":694,"o":"m 579 926 l 579 1042 l 694 1042 l 694 926 l 579 926 m 579 926 l 579 810 l 232 810 l 232 926 l 579 926 m 232 810 l 232 579 l 347 579 l 347 694 l 579 694 l 579 579 l 347 579 l 347 463 l 232 463 l 232 115 l 115 115 l 115 810 l 232 810 m 579 579 l 694 579 l 694 115 l 579 115 l 579 579 m 579 115 l 579 0 l 232 0 l 232 115 l 579 115 z "},"в":{"ha":694,"x_min":115,"x_max":694,"o":"m 115 694 l 579 694 l 579 579 l 694 579 l 694 463 l 579 463 l 579 347 l 694 347 l 694 115 l 579 115 l 579 0 l 115 0 l 115 694 m 579 579 l 232 579 l 232 463 l 579 463 l 579 579 m 579 347 l 232 347 l 232 115 l 579 115 l 579 347 z "},"г":{"ha":694,"x_min":232,"x_max":694,"o":"m 232 0 l 232 694 l 694 694 l 694 579 l 347 579 l 347 0 l 232 0 z "},"д":{"ha":694,"x_min":115,"x_max":694,"o":"m 579 -115 l 579 0 l 232 0 l 232 -115 l 115 -115 l 115 232 l 232 232 l 232 115 l 463 115 l 463 579 l 347 579 l 347 232 l 232 232 l 232 694 l 579 694 l 579 115 l 694 115 l 694 -115 l 579 -115 z "},"е":{"ha":694,"x_min":115,"x_max":694,"o":"m 232 694 l 579 694 l 579 579 l 232 579 l 232 694 m 579 579 l 694 579 l 694 347 l 232 347 l 232 115 l 115 115 l 115 579 l 232 579 l 232 463 l 579 463 l 579 579 m 579 115 l 579 232 l 694 232 l 694 115 l 579 115 m 579 115 l 579 0 l 232 0 l 232 115 l 579 115 z "},"ж":{"ha":694,"x_min":115,"x_max":694,"o":"m 579 0 l 579 232 l 463 232 l 463 0 l 347 0 l 347 232 l 232 232 l 232 463 l 115 463 l 115 694 l 232 694 l 232 463 l 347 463 l 347 694 l 463 694 l 463 463 l 579 463 l 579 694 l 694 694 l 694 463 l 579 463 l 579 232 l 694 232 l 694 0 l 579 0 m 115 0 l 115 232 l 232 232 l 232 0 l 115 0 z "},"з":{"ha":694,"x_min":115,"x_max":694,"o":"m 115 463 l 115 579 l 232 579 l 232 694 l 579 694 l 579 579 l 232 579 l 232 463 l 115 463 m 579 579 l 694 579 l 694 463 l 579 463 l 579 579 m 579 463 l 579 347 l 347 347 l 347 463 l 579 463 m 579 347 l 694 347 l 694 115 l 579 115 l 579 347 m 579 115 l 579 0 l 232 0 l 232 115 l 115 115 l 115 232 l 232 232 l 232 115 l 579 115 z "},"и":{"ha":694,"x_min":115,"x_max":694,"o":"m 579 0 l 579 463 l 463 463 l 463 694 l 694 694 l 694 0 l 579 0 m 115 0 l 115 694 l 232 694 l 232 232 l 347 232 l 347 463 l 463 463 l 463 232 l 347 232 l 347 0 l 115 0 z "},"й":{"ha":694,"x_min":115,"x_max":694,"o":"m 347 810 l 347 926 l 232 926 l 232 1042 l 347 1042 l 347 926 l 463 926 l 463 1042 l 579 1042 l 579 926 l 463 926 l 463 810 l 347 810 m 579 0 l 579 463 l 463 463 l 463 694 l 694 694 l 694 0 l 579 0 m 115 0 l 115 694 l 232 694 l 232 232 l 347 232 l 347 463 l 463 463 l 463 232 l 347 232 l 347 0 l 115 0 z "},"к":{"ha":694,"x_min":115,"x_max":694,"o":"m 579 0 l 579 115 l 463 115 l 463 347 l 347 347 l 347 463 l 463 463 l 463 579 l 579 579 l 579 694 l 694 694 l 694 579 l 579 579 l 579 463 l 463 463 l 463 347 l 579 347 l 579 115 l 694 115 l 694 0 l 579 0 m 115 0 l 115 694 l 232 694 l 232 347 l 347 347 l 347 232 l 232 232 l 232 0 l 115 0 z "},"л":{"ha":694,"x_min":115,"x_max":694,"o":"m 579 0 l 579 579 l 347 579 l 347 115 l 232 115 l 232 694 l 694 694 l 694 0 l 579 0 m 115 0 l 115 115 l 232 115 l 232 0 l 115 0 z "},"м":{"ha":694,"x_min":115,"x_max":694,"o":"m 347 115 l 347 347 l 232 347 l 232 0 l 115 0 l 115 694 l 232 694 l 232 579 l 347 579 l 347 347 l 463 347 l 463 579 l 579 579 l 579 694 l 694 694 l 694 0 l 579 0 l 579 347 l 463 347 l 463 115 l 347 115 z "},"н":{"ha":694,"x_min":115,"x_max":694,"o":"m 579 0 l 579 232 l 232 232 l 232 0 l 115 0 l 115 694 l 232 694 l 232 347 l 579 347 l 579 694 l 694 694 l 694 0 l 579 0 z "},"о":{"ha":694,"x_min":115,"x_max":694,"o":"m 232 694 l 579 694 l 579 579 l 232 579 l 232 694 m 579 579 l 694 579 l 694 115 l 579 115 l 579 579 m 232 579 l 232 115 l 115 115 l 115 579 l 232 579 m 579 115 l 579 0 l 232 0 l 232 115 l 579 115 z "},"п":{"ha":694,"x_min":115,"x_max":694,"o":"m 579 0 l 579 579 l 232 579 l 232 0 l 115 0 l 115 694 l 694 694 l 694 0 l 579 0 z "},"р":{"ha":694,"x_min":115,"x_max":694,"o":"m 115 -347 l 115 694 l 232 694 l 232 579 l 347 579 l 347 694 l 579 694 l 579 579 l 347 579 l 347 463 l 232 463 l 232 232 l 347 232 l 347 115 l 232 115 l 232 -347 l 115 -347 m 579 579 l 694 579 l 694 115 l 579 115 l 579 579 m 579 115 l 579 0 l 347 0 l 347 115 l 579 115 z "},"с":{"ha":694,"x_min":115,"x_max":694,"o":"m 579 463 l 579 579 l 232 579 l 232 694 l 579 694 l 579 579 l 694 579 l 694 463 l 579 463 m 232 579 l 232 115 l 115 115 l 115 579 l 232 579 m 579 115 l 579 232 l 694 232 l 694 115 l 579 115 m 579 115 l 579 0 l 232 0 l 232 115 l 579 115 z "},"т":{"ha":694,"x_min":115,"x_max":694,"o":"m 347 0 l 347 579 l 115 579 l 115 694 l 694 694 l 694 579 l 463 579 l 463 0 l 347 0 z "},"у":{"ha":694,"x_min":115,"x_max":694,"o":"m 579 347 l 579 694 l 694 694 l 694 347 l 579 347 m 115 347 l 115 694 l 232 694 l 232 347 l 115 347 m 579 347 l 579 115 l 463 115 l 463 347 l 579 347 m 232 347 l 347 347 l 347 115 l 232 115 l 232 347 m 347 115 l 463 115 l 463 -115 l 347 -115 l 347 115 m 347 -115 l 347 -232 l 115 -232 l 115 -115 l 347 -115 z "},"ф":{"ha":694,"x_min":115,"x_max":694,"o":"m 347 -232 l 347 0 l 232 0 l 232 115 l 115 115 l 115 579 l 232 579 l 232 115 l 347 115 l 347 579 l 232 579 l 232 694 l 347 694 l 347 926 l 463 926 l 463 694 l 579 694 l 579 579 l 694 579 l 694 115 l 579 115 l 579 0 l 463 0 l 463 -232 l 347 -232 m 579 579 l 463 579 l 463 115 l 579 115 l 579 579 z "},"х":{"ha":694,"x_min":115,"x_max":694,"o":"m 579 0 l 579 115 l 463 115 l 463 232 l 347 232 l 347 463 l 232 463 l 232 579 l 115 579 l 115 694 l 232 694 l 232 579 l 347 579 l 347 463 l 463 463 l 463 579 l 579 579 l 579 694 l 694 694 l 694 579 l 579 579 l 579 463 l 463 463 l 463 232 l 579 232 l 579 115 l 694 115 l 694 0 l 579 0 m 115 0 l 115 115 l 232 115 l 232 232 l 347 232 l 347 115 l 232 115 l 232 0 l 115 0 z "},"ц":{"ha":694,"x_min":115,"x_max":694,"o":"m 579 -115 l 579 0 l 115 0 l 115 694 l 232 694 l 232 115 l 463 115 l 463 694 l 579 694 l 579 115 l 694 115 l 694 -115 l 579 -115 z "},"ч":{"ha":694,"x_min":115,"x_max":694,"o":"m 579 0 l 579 232 l 232 232 l 232 347 l 115 347 l 115 694 l 232 694 l 232 347 l 579 347 l 579 694 l 694 694 l 694 0 l 579 0 z "},"ш":{"ha":694,"x_min":115,"x_max":694,"o":"m 579 115 l 579 694 l 694 694 l 694 0 l 115 0 l 115 694 l 232 694 l 232 115 l 347 115 l 347 694 l 463 694 l 463 115 l 579 115 z "},"щ":{"ha":694,"x_min":115,"x_max":810,"o":"m 579 115 l 579 694 l 694 694 l 694 0 l 115 0 l 115 694 l 232 694 l 232 115 l 347 115 l 347 694 l 463 694 l 463 115 l 579 115 m 694 0 l 810 0 l 810 -232 l 463 -232 l 463 -115 l 694 -115 l 694 0 z "},"ъ":{"ha":694,"x_min":115,"x_max":694,"o":"m 115 694 l 347 694 l 347 463 l 579 463 l 579 347 l 694 347 l 694 115 l 579 115 l 579 0 l 232 0 l 232 579 l 115 579 l 115 694 m 579 347 l 347 347 l 347 115 l 579 115 l 579 347 z "},"ы":{"ha":694,"x_min":115,"x_max":694,"o":"m 579 0 l 579 694 l 694 694 l 694 0 l 579 0 m 115 0 l 115 694 l 232 694 l 232 463 l 347 463 l 347 347 l 463 347 l 463 115 l 347 115 l 347 0 l 115 0 m 347 347 l 232 347 l 232 115 l 347 115 l 347 347 z "},"ь":{"ha":694,"x_min":232,"x_max":694,"o":"m 232 0 l 232 694 l 347 694 l 347 463 l 579 463 l 579 347 l 694 347 l 694 115 l 579 115 l 579 0 l 232 0 m 579 347 l 347 347 l 347 115 l 579 115 l 579 347 z "},"э":{"ha":694,"x_min":115,"x_max":694,"o":"m 115 694 l 579 694 l 579 579 l 115 579 l 115 694 m 579 579 l 694 579 l 694 115 l 579 115 l 579 347 l 232 347 l 232 463 l 579 463 l 579 579 m 579 115 l 579 0 l 115 0 l 115 115 l 579 115 z "},"ю":{"ha":694,"x_min":115,"x_max":694,"o":"m 463 0 l 463 115 l 347 115 l 347 347 l 232 347 l 232 0 l 115 0 l 115 694 l 232 694 l 232 463 l 347 463 l 347 579 l 463 579 l 463 115 l 579 115 l 579 579 l 463 579 l 463 694 l 579 694 l 579 579 l 694 579 l 694 115 l 579 115 l 579 0 l 463 0 z "},"я":{"ha":694,"x_min":115,"x_max":694,"o":"m 579 0 l 579 232 l 347 232 l 347 115 l 232 115 l 232 347 l 115 347 l 115 579 l 232 579 l 232 347 l 579 347 l 579 579 l 232 579 l 232 694 l 694 694 l 694 0 l 579 0 m 115 0 l 115 115 l 232 115 l 232 0 l 115 0 z "},"ѐ":{"ha":694,"x_min":115,"x_max":694,"o":"m 347 810 l 347 926 l 232 926 l 232 1042 l 347 1042 l 347 926 l 463 926 l 463 810 l 347 810 m 232 694 l 579 694 l 579 579 l 232 579 l 232 694 m 579 579 l 694 579 l 694 347 l 232 347 l 232 115 l 115 115 l 115 579 l 232 579 l 232 463 l 579 463 l 579 579 m 579 115 l 579 232 l 694 232 l 694 115 l 579 115 m 579 115 l 579 0 l 232 0 l 232 115 l 579 115 z "},"ё":{"ha":694,"x_min":115,"x_max":694,"o":"m 463 926 l 463 1042 l 579 1042 l 579 926 l 463 926 m 232 926 l 232 1042 l 347 1042 l 347 926 l 232 926 m 232 694 l 579 694 l 579 579 l 232 579 l 232 694 m 579 579 l 694 579 l 694 347 l 232 347 l 232 115 l 115 115 l 115 579 l 232 579 l 232 463 l 579 463 l 579 579 m 579 115 l 579 232 l 694 232 l 694 115 l 579 115 m 579 115 l 579 0 l 232 0 l 232 115 l 579 115 z "},"ђ":{"ha":694,"x_min":115,"x_max":694,"o":"m 232 0 l 232 579 l 115 579 l 115 694 l 232 694 l 232 926 l 347 926 l 347 694 l 579 694 l 579 579 l 347 579 l 347 347 l 463 347 l 463 463 l 694 463 l 694 -115 l 579 -115 l 579 347 l 463 347 l 463 232 l 347 232 l 347 0 l 232 0 m 579 -115 l 579 -232 l 347 -232 l 347 -115 l 579 -115 z "},"ѓ":{"ha":694,"x_min":232,"x_max":694,"o":"m 347 810 l 347 926 l 463 926 l 463 1042 l 579 1042 l 579 926 l 463 926 l 463 810 l 347 810 m 232 0 l 232 694 l 694 694 l 694 579 l 347 579 l 347 0 l 232 0 z "},"є":{"ha":694,"x_min":115,"x_max":694,"o":"m 579 463 l 579 579 l 232 579 l 232 694 l 579 694 l 579 579 l 694 579 l 694 463 l 579 463 m 232 579 l 232 463 l 463 463 l 463 347 l 232 347 l 232 115 l 115 115 l 115 579 l 232 579 m 579 115 l 579 232 l 694 232 l 694 115 l 579 115 m 579 115 l 579 0 l 232 0 l 232 115 l 579 115 z "},"ѕ":{"ha":694,"x_min":115,"x_max":694,"o":"m 579 463 l 579 579 l 232 579 l 232 694 l 579 694 l 579 579 l 694 579 l 694 463 l 579 463 m 232 579 l 232 463 l 115 463 l 115 579 l 232 579 m 232 463 l 463 463 l 463 347 l 232 347 l 232 463 m 463 347 l 579 347 l 579 232 l 463 232 l 463 347 m 579 232 l 694 232 l 694 115 l 579 115 l 579 232 m 579 115 l 579 0 l 232 0 l 232 115 l 115 115 l 115 232 l 232 232 l 232 115 l 579 115 z "},"і":{"ha":694,"x_min":232,"x_max":579,"o":"m 347 810 l 347 926 l 463 926 l 463 810 l 347 810 m 463 694 l 463 115 l 579 115 l 579 0 l 232 0 l 232 115 l 347 115 l 347 463 l 232 463 l 232 579 l 347 579 l 347 694 l 463 694 z "},"ї":{"ha":694,"x_min":232,"x_max":579,"o":"m 463 810 l 463 926 l 579 926 l 579 810 l 463 810 m 232 810 l 232 926 l 347 926 l 347 810 l 232 810 m 463 694 l 463 115 l 579 115 l 579 0 l 232 0 l 232 115 l 347 115 l 347 463 l 232 463 l 232 579 l 347 579 l 347 694 l 463 694 z "},"ј":{"ha":694,"x_min":232,"x_max":579,"o":"m 463 810 l 463 926 l 579 926 l 579 810 l 463 810 m 347 -232 l 347 -115 l 232 -115 l 232 0 l 347 0 l 347 -115 l 463 -115 l 463 579 l 347 579 l 347 694 l 579 694 l 579 -115 l 463 -115 l 463 -232 l 347 -232 z "},"љ":{"ha":694,"x_min":0,"x_max":694,"o":"m 0 0 l 0 115 l 115 115 l 115 694 l 463 694 l 463 463 l 579 463 l 579 347 l 694 347 l 694 115 l 579 115 l 579 0 l 347 0 l 347 579 l 232 579 l 232 115 l 115 115 l 115 0 l 0 0 m 579 347 l 463 347 l 463 115 l 579 115 l 579 347 z "},"њ":{"ha":694,"x_min":115,"x_max":694,"o":"m 115 0 l 115 694 l 232 694 l 232 463 l 347 463 l 347 694 l 463 694 l 463 463 l 579 463 l 579 347 l 694 347 l 694 115 l 579 115 l 579 0 l 347 0 l 347 347 l 232 347 l 232 0 l 115 0 m 579 347 l 463 347 l 463 115 l 579 115 l 579 347 z "},"ћ":{"ha":694,"x_min":115,"x_max":694,"o":"m 579 0 l 579 347 l 463 347 l 463 463 l 694 463 l 694 0 l 579 0 m 232 0 l 232 579 l 115 579 l 115 694 l 232 694 l 232 926 l 347 926 l 347 694 l 579 694 l 579 579 l 347 579 l 347 347 l 463 347 l 463 232 l 347 232 l 347 0 l 232 0 z "},"ќ":{"ha":694,"x_min":115,"x_max":694,"o":"m 347 810 l 347 926 l 463 926 l 463 1042 l 579 1042 l 579 926 l 463 926 l 463 810 l 347 810 m 579 0 l 579 115 l 463 115 l 463 347 l 347 347 l 347 463 l 463 463 l 463 579 l 579 579 l 579 694 l 694 694 l 694 579 l 579 579 l 579 463 l 463 463 l 463 347 l 579 347 l 579 115 l 694 115 l 694 0 l 579 0 m 115 0 l 115 694 l 232 694 l 232 347 l 347 347 l 347 232 l 232 232 l 232 0 l 115 0 z "},"ѝ":{"ha":694,"x_min":115,"x_max":694,"o":"m 347 810 l 347 926 l 232 926 l 232 1042 l 347 1042 l 347 926 l 463 926 l 463 810 l 347 810 m 579 0 l 579 463 l 463 463 l 463 694 l 694 694 l 694 0 l 579 0 m 115 0 l 115 694 l 232 694 l 232 232 l 347 232 l 347 463 l 463 463 l 463 232 l 347 232 l 347 0 l 115 0 z "},"ў":{"ha":694,"x_min":115,"x_max":694,"o":"m 347 810 l 347 926 l 232 926 l 232 1042 l 347 1042 l 347 926 l 463 926 l 463 1042 l 579 1042 l 579 926 l 463 926 l 463 810 l 347 810 m 579 347 l 579 694 l 694 694 l 694 347 l 579 347 m 115 347 l 115 694 l 232 694 l 232 347 l 115 347 m 579 347 l 579 115 l 463 115 l 463 347 l 579 347 m 232 347 l 347 347 l 347 115 l 232 115 l 232 347 m 347 115 l 463 115 l 463 -115 l 347 -115 l 347 115 m 347 -115 l 347 -232 l 115 -232 l 115 -115 l 347 -115 z "},"џ":{"ha":694,"x_min":115,"x_max":694,"o":"m 347 -232 l 347 0 l 115 0 l 115 694 l 232 694 l 232 115 l 579 115 l 579 694 l 694 694 l 694 0 l 463 0 l 463 -232 l 347 -232 z "},"Ѡ":{"ha":694,"x_min":115,"x_max":694,"o":"m 463 0 l 463 115 l 347 115 l 347 579 l 463 579 l 463 115 l 579 115 l 579 810 l 463 810 l 463 926 l 579 926 l 579 810 l 694 810 l 694 115 l 579 115 l 579 0 l 463 0 m 232 0 l 232 115 l 115 115 l 115 810 l 232 810 l 232 926 l 347 926 l 347 810 l 232 810 l 232 115 l 347 115 l 347 0 l 232 0 z "},"ѡ":{"ha":694,"x_min":115,"x_max":694,"o":"m 463 0 l 463 115 l 347 115 l 347 347 l 463 347 l 463 115 l 579 115 l 579 579 l 463 579 l 463 694 l 579 694 l 579 579 l 694 579 l 694 115 l 579 115 l 579 0 l 463 0 m 232 0 l 232 115 l 115 115 l 115 579 l 232 579 l 232 694 l 347 694 l 347 579 l 232 579 l 232 115 l 347 115 l 347 0 l 232 0 z "},"Ѣ":{"ha":694,"x_min":115,"x_max":694,"o":"m 347 810 l 579 810 l 579 694 l 347 694 l 347 579 l 579 579 l 579 463 l 694 463 l 694 115 l 579 115 l 579 0 l 115 0 l 115 115 l 232 115 l 232 694 l 115 694 l 115 810 l 232 810 l 232 926 l 347 926 l 347 810 m 579 463 l 347 463 l 347 115 l 579 115 l 579 463 z "},"ѣ":{"ha":694,"x_min":115,"x_max":694,"o":"m 232 694 l 232 926 l 347 926 l 347 694 l 579 694 l 579 579 l 347 579 l 347 463 l 579 463 l 579 347 l 694 347 l 694 115 l 579 115 l 579 0 l 232 0 l 232 579 l 115 579 l 115 694 l 232 694 m 579 347 l 347 347 l 347 115 l 579 115 l 579 347 z "},"Ѥ":{"ha":694,"x_min":115,"x_max":694,"o":"m 115 0 l 115 926 l 232 926 l 232 579 l 347 579 l 347 810 l 463 810 l 463 926 l 694 926 l 694 810 l 463 810 l 463 579 l 579 579 l 579 463 l 463 463 l 463 115 l 347 115 l 347 463 l 232 463 l 232 0 l 115 0 m 463 115 l 694 115 l 694 0 l 463 0 l 463 115 z "},"ѥ":{"ha":694,"x_min":115,"x_max":694,"o":"m 115 0 l 115 694 l 232 694 l 232 463 l 347 463 l 347 579 l 463 579 l 463 694 l 694 694 l 694 579 l 463 579 l 463 463 l 579 463 l 579 347 l 463 347 l 463 115 l 347 115 l 347 347 l 232 347 l 232 0 l 115 0 m 463 115 l 694 115 l 694 0 l 463 0 l 463 115 z "},"Ѧ":{"ha":694,"x_min":115,"x_max":694,"o":"m 579 0 l 579 347 l 463 347 l 463 0 l 347 0 l 347 347 l 232 347 l 232 694 l 347 694 l 347 463 l 463 463 l 463 694 l 347 694 l 347 926 l 463 926 l 463 694 l 579 694 l 579 347 l 694 347 l 694 0 l 579 0 m 115 0 l 115 347 l 232 347 l 232 0 l 115 0 z "},"ѧ":{"ha":694,"x_min":115,"x_max":694,"o":"m 579 0 l 579 232 l 463 232 l 463 0 l 347 0 l 347 232 l 232 232 l 232 0 l 115 0 l 115 347 l 232 347 l 232 579 l 347 579 l 347 347 l 463 347 l 463 579 l 347 579 l 347 694 l 463 694 l 463 579 l 579 579 l 579 347 l 694 347 l 694 0 l 579 0 z "},"Ѩ":{"ha":694,"x_min":115,"x_max":694,"o":"m 579 0 l 579 347 l 463 347 l 463 0 l 347 0 l 347 347 l 232 347 l 232 0 l 115 0 l 115 926 l 232 926 l 232 694 l 347 694 l 347 463 l 463 463 l 463 694 l 347 694 l 347 926 l 463 926 l 463 694 l 579 694 l 579 347 l 694 347 l 694 0 l 579 0 z "},"ѩ":{"ha":694,"x_min":115,"x_max":694,"o":"m 579 0 l 579 232 l 463 232 l 463 0 l 347 0 l 347 232 l 232 232 l 232 0 l 115 0 l 115 694 l 232 694 l 232 463 l 347 463 l 347 347 l 463 347 l 463 463 l 347 463 l 347 694 l 463 694 l 463 463 l 579 463 l 579 232 l 694 232 l 694 0 l 579 0 z "},"Ѫ":{"ha":694,"x_min":115,"x_max":694,"o":"m 579 0 l 579 347 l 463 347 l 463 0 l 347 0 l 347 347 l 232 347 l 232 694 l 347 694 l 347 463 l 463 463 l 463 694 l 579 694 l 579 810 l 232 810 l 232 694 l 115 694 l 115 926 l 694 926 l 694 694 l 579 694 l 579 347 l 694 347 l 694 0 l 579 0 m 115 0 l 115 347 l 232 347 l 232 0 l 115 0 z "},"ѫ":{"ha":694,"x_min":115,"x_max":694,"o":"m 579 0 l 579 232 l 463 232 l 463 0 l 347 0 l 347 232 l 232 232 l 232 463 l 347 463 l 347 347 l 463 347 l 463 463 l 579 463 l 579 579 l 232 579 l 232 463 l 115 463 l 115 694 l 694 694 l 694 463 l 579 463 l 579 232 l 694 232 l 694 0 l 579 0 m 115 0 l 115 232 l 232 232 l 232 0 l 115 0 z "},"Ѭ":{"ha":694,"x_min":115,"x_max":694,"o":"m 579 0 l 579 347 l 463 347 l 463 0 l 347 0 l 347 347 l 232 347 l 232 0 l 115 0 l 115 926 l 694 926 l 694 694 l 579 694 l 579 347 l 694 347 l 694 0 l 579 0 m 579 810 l 232 810 l 232 694 l 347 694 l 347 463 l 463 463 l 463 694 l 579 694 l 579 810 z "},"ѭ":{"ha":694,"x_min":115,"x_max":694,"o":"m 579 0 l 579 232 l 463 232 l 463 0 l 347 0 l 347 232 l 232 232 l 232 0 l 115 0 l 115 694 l 694 694 l 694 463 l 579 463 l 579 232 l 694 232 l 694 0 l 579 0 m 579 579 l 232 579 l 232 463 l 347 463 l 347 347 l 463 347 l 463 463 l 579 463 l 579 579 z "},"Ѯ":{"ha":694,"x_min":115,"x_max":694,"o":"m 115 694 l 115 810 l 232 810 l 232 926 l 347 926 l 347 1042 l 232 1042 l 232 1157 l 347 1157 l 347 1042 l 463 1042 l 463 1157 l 579 1157 l 579 1042 l 463 1042 l 463 926 l 579 926 l 579 810 l 232 810 l 232 694 l 115 694 m 579 810 l 694 810 l 694 579 l 579 579 l 579 810 m 579 579 l 579 463 l 347 463 l 347 579 l 579 579 m 579 463 l 694 463 l 694 115 l 579 115 l 579 463 m 579 115 l 579 0 l 232 0 l 232 115 l 579 115 m 232 0 l 232 -115 l 115 -115 l 115 0 l 232 0 m 232 -115 l 579 -115 l 579 -232 l 232 -232 l 232 -115 z "},"ѯ":{"ha":694,"x_min":115,"x_max":694,"o":"m 115 463 l 115 579 l 232 579 l 232 694 l 347 694 l 347 810 l 232 810 l 232 926 l 347 926 l 347 810 l 463 810 l 463 926 l 579 926 l 579 810 l 463 810 l 463 694 l 579 694 l 579 579 l 232 579 l 232 463 l 115 463 m 579 579 l 694 579 l 694 463 l 579 463 l 579 579 m 579 463 l 579 347 l 347 347 l 347 463 l 579 463 m 579 347 l 694 347 l 694 115 l 579 115 l 579 347 m 579 115 l 579 0 l 232 0 l 232 115 l 579 115 m 232 0 l 232 -115 l 115 -115 l 115 0 l 232 0 m 232 -115 l 579 -115 l 579 -232 l 232 -232 l 232 -115 z "},"Ѱ":{"ha":694,"x_min":115,"x_max":810,"o":"m 347 0 l 347 115 l 232 115 l 232 232 l 115 232 l 115 926 l 232 926 l 232 232 l 347 232 l 347 926 l 463 926 l 463 232 l 579 232 l 579 926 l 810 926 l 810 810 l 694 810 l 694 232 l 579 232 l 579 115 l 463 115 l 463 0 l 347 0 z "},"ѱ":{"ha":694,"x_min":115,"x_max":694,"o":"m 347 -232 l 347 0 l 232 0 l 232 115 l 115 115 l 115 694 l 232 694 l 232 115 l 347 115 l 347 694 l 463 694 l 463 115 l 579 115 l 579 694 l 694 694 l 694 115 l 579 115 l 579 0 l 463 0 l 463 -232 l 347 -232 z "},"Ѳ":{"ha":694,"x_min":115,"x_max":694,"o":"m 232 926 l 579 926 l 579 810 l 232 810 l 232 926 m 579 810 l 694 810 l 694 115 l 579 115 l 579 463 l 232 463 l 232 115 l 115 115 l 115 810 l 232 810 l 232 579 l 579 579 l 579 810 m 579 115 l 579 0 l 232 0 l 232 115 l 579 115 z "},"ѳ":{"ha":694,"x_min":115,"x_max":694,"o":"m 232 694 l 579 694 l 579 579 l 232 579 l 232 694 m 579 579 l 694 579 l 694 115 l 579 115 l 579 347 l 232 347 l 232 115 l 115 115 l 115 579 l 232 579 l 232 463 l 579 463 l 579 579 m 579 115 l 579 0 l 232 0 l 232 115 l 579 115 z "},"Ѵ":{"ha":694,"x_min":115,"x_max":810,"o":"m 347 0 l 347 232 l 232 232 l 232 579 l 115 579 l 115 926 l 232 926 l 232 579 l 347 579 l 347 232 l 463 232 l 463 579 l 579 579 l 579 926 l 810 926 l 810 810 l 694 810 l 694 579 l 579 579 l 579 232 l 463 232 l 463 0 l 347 0 z "},"ѵ":{"ha":694,"x_min":115,"x_max":694,"o":"m 347 0 l 347 232 l 232 232 l 232 463 l 115 463 l 115 694 l 232 694 l 232 463 l 347 463 l 347 232 l 463 232 l 463 463 l 579 463 l 579 694 l 694 694 l 694 463 l 579 463 l 579 232 l 463 232 l 463 0 l 347 0 z "},"Ѷ":{"ha":694,"x_min":115,"x_max":810,"o":"m 463 926 l 463 1042 l 347 1042 l 347 1157 l 463 1157 l 463 1042 l 579 1042 l 579 926 l 463 926 m 232 926 l 232 1042 l 115 1042 l 115 1157 l 232 1157 l 232 1042 l 347 1042 l 347 926 l 232 926 m 347 0 l 347 232 l 232 232 l 232 579 l 115 579 l 115 810 l 232 810 l 232 579 l 347 579 l 347 232 l 463 232 l 463 579 l 579 579 l 579 810 l 810 810 l 810 694 l 694 694 l 694 579 l 579 579 l 579 232 l 463 232 l 463 0 l 347 0 z "},"ѷ":{"ha":694,"x_min":115,"x_max":694,"o":"m 463 810 l 463 926 l 347 926 l 347 1042 l 463 1042 l 463 926 l 579 926 l 579 810 l 463 810 m 232 810 l 232 926 l 115 926 l 115 1042 l 232 1042 l 232 926 l 347 926 l 347 810 l 232 810 m 347 0 l 347 232 l 232 232 l 232 463 l 115 463 l 115 694 l 232 694 l 232 463 l 347 463 l 347 232 l 463 232 l 463 463 l 579 463 l 579 694 l 694 694 l 694 463 l 579 463 l 579 232 l 463 232 l 463 0 l 347 0 z "},"Ѹ":{"ha":694,"x_min":115,"x_max":694,"o":"m 347 232 l 347 347 l 232 347 l 232 463 l 347 463 l 347 579 l 232 579 l 232 694 l 115 694 l 115 926 l 232 926 l 232 694 l 347 694 l 347 579 l 463 579 l 463 694 l 579 694 l 579 926 l 694 926 l 694 694 l 579 694 l 579 579 l 463 579 l 463 463 l 579 463 l 579 347 l 463 347 l 463 232 l 347 232 m 579 347 l 694 347 l 694 115 l 579 115 l 579 347 m 232 347 l 232 115 l 115 115 l 115 347 l 232 347 m 579 115 l 579 0 l 232 0 l 232 115 l 579 115 z "},"ѹ":{"ha":694,"x_min":115,"x_max":694,"o":"m 579 463 l 579 694 l 694 694 l 694 463 l 579 463 m 115 463 l 115 694 l 232 694 l 232 463 l 115 463 m 579 463 l 579 347 l 232 347 l 232 463 l 579 463 m 579 347 l 694 347 l 694 115 l 579 115 l 579 347 m 232 347 l 232 115 l 115 115 l 115 347 l 232 347 m 579 115 l 579 0 l 232 0 l 232 115 l 579 115 z "},"Ѻ":{"ha":694,"x_min":115,"x_max":694,"o":"m 347 694 l 347 810 l 232 810 l 232 926 l 579 926 l 579 810 l 463 810 l 463 694 l 347 694 m 579 810 l 694 810 l 694 115 l 579 115 l 579 810 m 232 810 l 232 115 l 115 115 l 115 810 l 232 810 m 579 115 l 579 0 l 232 0 l 232 115 l 347 115 l 347 232 l 463 232 l 463 115 l 579 115 z "},"ѻ":{"ha":694,"x_min":115,"x_max":694,"o":"m 347 463 l 347 579 l 232 579 l 232 694 l 579 694 l 579 579 l 463 579 l 463 463 l 347 463 m 579 579 l 694 579 l 694 115 l 579 115 l 579 579 m 232 579 l 232 115 l 115 115 l 115 579 l 232 579 m 579 115 l 579 0 l 232 0 l 232 115 l 347 115 l 347 232 l 463 232 l 463 115 l 579 115 z "},"Ѽ":{"ha":694,"x_min":115,"x_max":694,"o":"m 347 810 l 347 926 l 463 926 l 463 810 l 347 810 m 463 0 l 463 115 l 347 115 l 347 232 l 463 232 l 463 115 l 579 115 l 579 810 l 694 810 l 694 115 l 579 115 l 579 0 l 463 0 m 232 0 l 232 115 l 115 115 l 115 810 l 232 810 l 232 115 l 347 115 l 347 0 l 232 0 m 232 1157 l 579 1157 l 579 1042 l 232 1042 l 232 1157 z "},"ѽ":{"ha":694,"x_min":115,"x_max":694,"o":"m 347 579 l 347 694 l 463 694 l 463 579 l 347 579 m 463 0 l 463 115 l 347 115 l 347 232 l 463 232 l 463 115 l 579 115 l 579 694 l 694 694 l 694 115 l 579 115 l 579 0 l 463 0 m 232 0 l 232 115 l 115 115 l 115 694 l 232 694 l 232 115 l 347 115 l 347 0 l 232 0 m 232 926 l 579 926 l 579 810 l 232 810 l 232 926 z "},"Ѿ":{"ha":694,"x_min":115,"x_max":694,"o":"m 579 926 l 579 1042 l 463 1042 l 463 926 l 347 926 l 347 1042 l 232 1042 l 232 926 l 115 926 l 115 1157 l 694 1157 l 694 926 l 579 926 m 463 0 l 463 115 l 347 115 l 347 347 l 463 347 l 463 115 l 579 115 l 579 810 l 694 810 l 694 115 l 579 115 l 579 0 l 463 0 m 232 0 l 232 115 l 115 115 l 115 810 l 232 810 l 232 115 l 347 115 l 347 0 l 232 0 z "},"ѿ":{"ha":694,"x_min":115,"x_max":694,"o":"m 579 810 l 579 926 l 463 926 l 463 810 l 347 810 l 347 926 l 232 926 l 232 810 l 115 810 l 115 1042 l 694 1042 l 694 810 l 579 810 m 463 0 l 463 115 l 347 115 l 347 0 l 232 0 l 232 232 l 115 232 l 115 694 l 232 694 l 232 232 l 347 232 l 347 694 l 463 694 l 463 232 l 579 232 l 579 694 l 694 694 l 694 232 l 579 232 l 579 0 l 463 0 z "},"Ҁ":{"ha":694,"x_min":115,"x_max":694,"o":"m 579 694 l 579 810 l 232 810 l 232 926 l 579 926 l 579 810 l 694 810 l 694 694 l 579 694 m 463 -232 l 463 0 l 232 0 l 232 115 l 115 115 l 115 810 l 232 810 l 232 115 l 579 115 l 579 -232 l 463 -232 z "},"ҁ":{"ha":694,"x_min":115,"x_max":694,"o":"m 579 463 l 579 579 l 232 579 l 232 694 l 579 694 l 579 579 l 694 579 l 694 463 l 579 463 m 463 -232 l 463 0 l 232 0 l 232 115 l 115 115 l 115 579 l 232 579 l 232 115 l 579 115 l 579 -232 l 463 -232 z "},"҂":{"ha":694,"x_min":115,"x_max":694,"o":"m 232 0 l 232 232 l 347 232 l 347 347 l 115 347 l 115 463 l 347 463 l 347 579 l 115 579 l 115 694 l 463 694 l 463 926 l 579 926 l 579 694 l 463 694 l 463 579 l 694 579 l 694 463 l 463 463 l 463 347 l 694 347 l 694 232 l 347 232 l 347 0 l 232 0 z "},"Ҋ":{"ha":694,"x_min":115,"x_max":694,"o":"m 347 926 l 347 1042 l 232 1042 l 232 1157 l 347 1157 l 347 1042 l 463 1042 l 463 1157 l 579 1157 l 579 1042 l 463 1042 l 463 926 l 347 926 m 115 0 l 115 926 l 232 926 l 232 347 l 347 347 l 347 579 l 463 579 l 463 810 l 579 810 l 579 926 l 694 926 l 694 -115 l 579 -115 l 579 579 l 463 579 l 463 347 l 347 347 l 347 115 l 232 115 l 232 0 l 115 0 m 463 -232 l 463 -115 l 579 -115 l 579 -232 l 463 -232 z "},"ҋ":{"ha":694,"x_min":115,"x_max":694,"o":"m 347 810 l 347 926 l 232 926 l 232 1042 l 347 1042 l 347 926 l 463 926 l 463 1042 l 579 1042 l 579 926 l 463 926 l 463 810 l 347 810 m 463 -232 l 463 -115 l 579 -115 l 579 463 l 463 463 l 463 694 l 694 694 l 694 -115 l 579 -115 l 579 -232 l 463 -232 m 115 0 l 115 694 l 232 694 l 232 232 l 347 232 l 347 463 l 463 463 l 463 232 l 347 232 l 347 0 l 115 0 z "},"Ҍ":{"ha":694,"x_min":115,"x_max":694,"o":"m 232 694 l 232 926 l 347 926 l 347 694 l 463 694 l 463 579 l 347 579 l 347 463 l 579 463 l 579 347 l 694 347 l 694 115 l 579 115 l 579 0 l 115 0 l 115 115 l 232 115 l 232 579 l 115 579 l 115 694 l 232 694 m 579 347 l 347 347 l 347 115 l 579 115 l 579 347 z "},"ҍ":{"ha":694,"x_min":115,"x_max":694,"o":"m 232 579 l 232 926 l 347 926 l 347 579 l 463 579 l 463 463 l 347 463 l 347 347 l 579 347 l 579 232 l 694 232 l 694 115 l 579 115 l 579 0 l 232 0 l 232 463 l 115 463 l 115 579 l 232 579 m 579 232 l 347 232 l 347 115 l 579 115 l 579 232 z "},"Ҏ":{"ha":694,"x_min":115,"x_max":694,"o":"m 579 232 l 579 347 l 232 347 l 232 0 l 115 0 l 115 926 l 579 926 l 579 810 l 694 810 l 694 463 l 579 463 l 579 347 l 694 347 l 694 232 l 579 232 m 579 810 l 232 810 l 232 463 l 347 463 l 347 579 l 463 579 l 463 463 l 579 463 l 579 810 z "},"ҏ":{"ha":694,"x_min":115,"x_max":694,"o":"m 579 -115 l 579 0 l 232 0 l 232 -347 l 115 -347 l 115 694 l 232 694 l 232 579 l 347 579 l 347 463 l 232 463 l 232 115 l 347 115 l 347 232 l 463 232 l 463 115 l 579 115 l 579 579 l 347 579 l 347 694 l 579 694 l 579 579 l 694 579 l 694 115 l 579 115 l 579 0 l 694 0 l 694 -115 l 579 -115 z "},"Ґ":{"ha":694,"x_min":232,"x_max":694,"o":"m 232 0 l 232 926 l 579 926 l 579 1042 l 694 1042 l 694 810 l 347 810 l 347 0 l 232 0 z "},"ґ":{"ha":694,"x_min":232,"x_max":694,"o":"m 232 0 l 232 694 l 579 694 l 579 810 l 694 810 l 694 579 l 347 579 l 347 0 l 232 0 z "},"Ғ":{"ha":694,"x_min":115,"x_max":694,"o":"m 232 0 l 232 347 l 115 347 l 115 463 l 232 463 l 232 926 l 694 926 l 694 810 l 347 810 l 347 463 l 579 463 l 579 347 l 347 347 l 347 0 l 232 0 z "},"ғ":{"ha":694,"x_min":115,"x_max":694,"o":"m 232 0 l 232 347 l 115 347 l 115 463 l 232 463 l 232 694 l 694 694 l 694 579 l 347 579 l 347 463 l 579 463 l 579 347 l 347 347 l 347 0 l 232 0 z "},"Ҕ":{"ha":694,"x_min":232,"x_max":694,"o":"m 232 0 l 232 926 l 694 926 l 694 810 l 347 810 l 347 463 l 579 463 l 579 347 l 347 347 l 347 0 l 232 0 m 463 -232 l 463 -115 l 579 -115 l 579 347 l 694 347 l 694 -115 l 579 -115 l 579 -232 l 463 -232 z "},"ҕ":{"ha":694,"x_min":232,"x_max":694,"o":"m 232 0 l 232 694 l 694 694 l 694 579 l 347 579 l 347 347 l 579 347 l 579 232 l 347 232 l 347 0 l 232 0 m 463 -232 l 463 -115 l 579 -115 l 579 232 l 694 232 l 694 -115 l 579 -115 l 579 -232 l 463 -232 z "},"Җ":{"ha":694,"x_min":115,"x_max":694,"o":"m 347 0 l 347 347 l 232 347 l 232 579 l 115 579 l 115 926 l 232 926 l 232 579 l 347 579 l 347 926 l 463 926 l 463 579 l 579 579 l 579 926 l 694 926 l 694 579 l 579 579 l 579 347 l 463 347 l 463 0 l 347 0 m 115 0 l 115 347 l 232 347 l 232 0 l 115 0 m 579 -232 l 579 347 l 694 347 l 694 -232 l 579 -232 z "},"җ":{"ha":694,"x_min":115,"x_max":694,"o":"m 347 0 l 347 232 l 232 232 l 232 463 l 115 463 l 115 694 l 232 694 l 232 463 l 347 463 l 347 694 l 463 694 l 463 463 l 579 463 l 579 694 l 694 694 l 694 463 l 579 463 l 579 232 l 463 232 l 463 0 l 347 0 m 115 0 l 115 232 l 232 232 l 232 0 l 115 0 m 579 -232 l 579 232 l 694 232 l 694 -232 l 579 -232 z "},"Ҙ":{"ha":694,"x_min":115,"x_max":694,"o":"m 115 694 l 115 926 l 579 926 l 579 810 l 232 810 l 232 694 l 115 694 m 579 810 l 694 810 l 694 579 l 579 579 l 579 810 m 579 579 l 579 463 l 347 463 l 347 579 l 579 579 m 579 463 l 694 463 l 694 115 l 579 115 l 579 463 m 579 115 l 579 0 l 463 0 l 463 -232 l 232 -232 l 232 -115 l 347 -115 l 347 0 l 232 0 l 232 115 l 115 115 l 115 232 l 232 232 l 232 115 l 579 115 z "},"ҙ":{"ha":694,"x_min":115,"x_max":694,"o":"m 115 463 l 115 579 l 232 579 l 232 694 l 579 694 l 579 579 l 232 579 l 232 463 l 115 463 m 579 579 l 694 579 l 694 463 l 579 463 l 579 579 m 579 463 l 579 347 l 347 347 l 347 463 l 579 463 m 579 347 l 694 347 l 694 115 l 579 115 l 579 347 m 579 115 l 579 0 l 463 0 l 463 -232 l 232 -232 l 232 -115 l 347 -115 l 347 0 l 232 0 l 232 115 l 115 115 l 115 232 l 232 232 l 232 115 l 579 115 z "},"Қ":{"ha":694,"x_min":115,"x_max":694,"o":"m 115 0 l 115 926 l 232 926 l 232 463 l 347 463 l 347 579 l 463 579 l 463 926 l 579 926 l 579 579 l 463 579 l 463 232 l 347 232 l 347 347 l 232 347 l 232 0 l 115 0 m 579 -232 l 579 0 l 463 0 l 463 232 l 579 232 l 579 115 l 694 115 l 694 -232 l 579 -232 z "},"қ":{"ha":694,"x_min":115,"x_max":694,"o":"m 115 0 l 115 694 l 232 694 l 232 347 l 347 347 l 347 463 l 463 463 l 463 694 l 579 694 l 579 463 l 463 463 l 463 232 l 232 232 l 232 0 l 115 0 m 579 -232 l 579 0 l 463 0 l 463 232 l 579 232 l 579 115 l 694 115 l 694 -232 l 579 -232 z "},"Ҝ":{"ha":694,"x_min":115,"x_max":694,"o":"m 347 115 l 347 347 l 232 347 l 232 0 l 115 0 l 115 926 l 232 926 l 232 463 l 347 463 l 347 810 l 463 810 l 463 694 l 579 694 l 579 926 l 694 926 l 694 694 l 579 694 l 579 579 l 463 579 l 463 463 l 579 463 l 579 232 l 463 232 l 463 115 l 347 115 m 579 0 l 579 232 l 694 232 l 694 0 l 579 0 z "},"ҝ":{"ha":694,"x_min":115,"x_max":694,"o":"m 347 115 l 347 232 l 232 232 l 232 0 l 115 0 l 115 694 l 232 694 l 232 347 l 347 347 l 347 579 l 463 579 l 463 463 l 579 463 l 579 694 l 694 694 l 694 463 l 579 463 l 579 232 l 463 232 l 463 115 l 347 115 m 579 0 l 579 232 l 694 232 l 694 0 l 579 0 z "},"Ҟ":{"ha":694,"x_min":0,"x_max":694,"o":"m 579 0 l 579 232 l 463 232 l 463 463 l 347 463 l 347 579 l 463 579 l 463 694 l 579 694 l 579 926 l 694 926 l 694 694 l 579 694 l 579 579 l 463 579 l 463 463 l 579 463 l 579 232 l 694 232 l 694 0 l 579 0 m 115 0 l 115 694 l 0 694 l 0 810 l 115 810 l 115 926 l 232 926 l 232 810 l 347 810 l 347 694 l 232 694 l 232 463 l 347 463 l 347 347 l 232 347 l 232 0 l 115 0 z "},"ҟ":{"ha":694,"x_min":0,"x_max":694,"o":"m 579 0 l 579 115 l 463 115 l 463 347 l 347 347 l 347 463 l 463 463 l 463 579 l 579 579 l 579 694 l 694 694 l 694 579 l 579 579 l 579 463 l 463 463 l 463 347 l 579 347 l 579 115 l 694 115 l 694 0 l 579 0 m 115 0 l 115 694 l 0 694 l 0 810 l 115 810 l 115 926 l 232 926 l 232 810 l 463 810 l 463 694 l 232 694 l 232 347 l 347 347 l 347 232 l 232 232 l 232 0 l 115 0 z "},"Ҡ":{"ha":694,"x_min":0,"x_max":694,"o":"m 579 0 l 579 347 l 347 347 l 347 0 l 232 0 l 232 810 l 0 810 l 0 926 l 347 926 l 347 463 l 463 463 l 463 694 l 579 694 l 579 926 l 694 926 l 694 694 l 579 694 l 579 347 l 694 347 l 694 0 l 579 0 z "},"ҡ":{"ha":694,"x_min":0,"x_max":694,"o":"m 579 0 l 579 232 l 347 232 l 347 0 l 232 0 l 232 579 l 0 579 l 0 694 l 347 694 l 347 347 l 463 347 l 463 579 l 579 579 l 579 694 l 694 694 l 694 579 l 579 579 l 579 232 l 694 232 l 694 0 l 579 0 z "},"Ң":{"ha":694,"x_min":115,"x_max":694,"o":"m 115 0 l 115 926 l 232 926 l 232 579 l 463 579 l 463 926 l 579 926 l 579 115 l 694 115 l 694 -232 l 579 -232 l 579 0 l 463 0 l 463 463 l 232 463 l 232 0 l 115 0 z "},"ң":{"ha":694,"x_min":115,"x_max":694,"o":"m 115 0 l 115 694 l 232 694 l 232 463 l 463 463 l 463 694 l 579 694 l 579 115 l 694 115 l 694 -232 l 579 -232 l 579 0 l 463 0 l 463 347 l 232 347 l 232 0 l 115 0 z "},"Ҥ":{"ha":694,"x_min":115,"x_max":810,"o":"m 463 0 l 463 463 l 232 463 l 232 0 l 115 0 l 115 926 l 232 926 l 232 579 l 463 579 l 463 926 l 810 926 l 810 810 l 579 810 l 579 0 l 463 0 z "},"ҥ":{"ha":694,"x_min":115,"x_max":810,"o":"m 463 0 l 463 347 l 232 347 l 232 0 l 115 0 l 115 694 l 232 694 l 232 463 l 463 463 l 463 694 l 810 694 l 810 579 l 579 579 l 579 0 l 463 0 z "},"Ҧ":{"ha":694,"x_min":115,"x_max":694,"o":"m 347 0 l 347 810 l 232 810 l 232 0 l 115 0 l 115 926 l 463 926 l 463 463 l 579 463 l 579 347 l 463 347 l 463 0 l 347 0 m 463 -232 l 463 -115 l 579 -115 l 579 347 l 694 347 l 694 -115 l 579 -115 l 579 -232 l 463 -232 z "},"ҧ":{"ha":694,"x_min":115,"x_max":694,"o":"m 347 0 l 347 579 l 232 579 l 232 0 l 115 0 l 115 694 l 463 694 l 463 347 l 579 347 l 579 232 l 463 232 l 463 0 l 347 0 m 463 -232 l 463 -115 l 579 -115 l 579 232 l 694 232 l 694 -115 l 579 -115 l 579 -232 l 463 -232 z "},"Ҩ":{"ha":694,"x_min":115,"x_max":694,"o":"m 579 0 l 579 115 l 463 115 l 463 232 l 347 232 l 347 694 l 463 694 l 463 232 l 579 232 l 579 694 l 463 694 l 463 810 l 579 810 l 579 694 l 694 694 l 694 232 l 579 232 l 579 115 l 694 115 l 694 0 l 579 0 m 232 810 l 232 926 l 347 926 l 347 810 l 232 810 m 232 810 l 232 115 l 115 115 l 115 810 l 232 810 m 463 115 l 463 0 l 232 0 l 232 115 l 463 115 z "},"ҩ":{"ha":694,"x_min":115,"x_max":694,"o":"m 579 0 l 579 115 l 463 115 l 463 232 l 347 232 l 347 463 l 463 463 l 463 232 l 579 232 l 579 463 l 463 463 l 463 579 l 579 579 l 579 463 l 694 463 l 694 232 l 579 232 l 579 115 l 694 115 l 694 0 l 579 0 m 232 579 l 232 694 l 347 694 l 347 579 l 232 579 m 232 579 l 232 115 l 115 115 l 115 579 l 232 579 m 463 115 l 463 0 l 232 0 l 232 115 l 463 115 z "},"Ҫ":{"ha":694,"x_min":115,"x_max":694,"o":"m 579 694 l 579 810 l 232 810 l 232 926 l 579 926 l 579 810 l 694 810 l 694 694 l 579 694 m 232 810 l 232 115 l 115 115 l 115 810 l 232 810 m 579 115 l 579 232 l 694 232 l 694 115 l 579 115 m 579 115 l 579 -232 l 347 -232 l 347 -115 l 463 -115 l 463 0 l 232 0 l 232 115 l 579 115 z "},"ҫ":{"ha":694,"x_min":115,"x_max":694,"o":"m 579 463 l 579 579 l 232 579 l 232 694 l 579 694 l 579 579 l 694 579 l 694 463 l 579 463 m 232 579 l 232 115 l 115 115 l 115 579 l 232 579 m 579 115 l 579 232 l 694 232 l 694 115 l 579 115 m 579 115 l 579 -232 l 347 -232 l 347 -115 l 463 -115 l 463 0 l 232 0 l 232 115 l 579 115 z "},"Ҭ":{"ha":694,"x_min":115,"x_max":694,"o":"m 463 -232 l 463 0 l 347 0 l 347 810 l 115 810 l 115 926 l 694 926 l 694 810 l 463 810 l 463 115 l 579 115 l 579 -232 l 463 -232 z "},"ҭ":{"ha":694,"x_min":115,"x_max":694,"o":"m 463 -232 l 463 0 l 347 0 l 347 579 l 115 579 l 115 694 l 694 694 l 694 579 l 463 579 l 463 115 l 579 115 l 579 -232 l 463 -232 z "},"Ү":{"ha":694,"x_min":115,"x_max":694,"o":"m 347 0 l 347 463 l 232 463 l 232 694 l 115 694 l 115 926 l 232 926 l 232 694 l 347 694 l 347 463 l 463 463 l 463 694 l 579 694 l 579 926 l 694 926 l 694 694 l 579 694 l 579 463 l 463 463 l 463 0 l 347 0 z "},"ү":{"ha":694,"x_min":115,"x_max":694,"o":"m 347 -232 l 347 232 l 232 232 l 232 463 l 115 463 l 115 694 l 232 694 l 232 463 l 347 463 l 347 232 l 463 232 l 463 463 l 579 463 l 579 694 l 694 694 l 694 463 l 579 463 l 579 232 l 463 232 l 463 -232 l 347 -232 z "},"Ұ":{"ha":694,"x_min":115,"x_max":694,"o":"m 347 0 l 347 232 l 232 232 l 232 347 l 347 347 l 347 463 l 232 463 l 232 694 l 115 694 l 115 926 l 232 926 l 232 694 l 347 694 l 347 463 l 463 463 l 463 694 l 579 694 l 579 926 l 694 926 l 694 694 l 579 694 l 579 463 l 463 463 l 463 347 l 579 347 l 579 232 l 463 232 l 463 0 l 347 0 z "},"ұ":{"ha":694,"x_min":115,"x_max":694,"o":"m 347 -232 l 347 0 l 232 0 l 232 115 l 347 115 l 347 232 l 232 232 l 232 463 l 115 463 l 115 694 l 232 694 l 232 463 l 347 463 l 347 232 l 463 232 l 463 463 l 579 463 l 579 694 l 694 694 l 694 463 l 579 463 l 579 232 l 463 232 l 463 115 l 579 115 l 579 0 l 463 0 l 463 -232 l 347 -232 z "},"Ҳ":{"ha":694,"x_min":115,"x_max":694,"o":"m 115 0 l 115 232 l 232 232 l 232 347 l 347 347 l 347 579 l 232 579 l 232 694 l 115 694 l 115 926 l 232 926 l 232 694 l 347 694 l 347 579 l 463 579 l 463 694 l 579 694 l 579 926 l 694 926 l 694 694 l 579 694 l 579 579 l 463 579 l 463 347 l 347 347 l 347 232 l 232 232 l 232 0 l 115 0 m 579 -232 l 579 232 l 463 232 l 463 347 l 579 347 l 579 232 l 694 232 l 694 -232 l 579 -232 z "},"ҳ":{"ha":694,"x_min":115,"x_max":694,"o":"m 115 0 l 115 115 l 232 115 l 232 232 l 347 232 l 347 463 l 232 463 l 232 579 l 115 579 l 115 694 l 232 694 l 232 579 l 347 579 l 347 463 l 463 463 l 463 579 l 579 579 l 579 694 l 694 694 l 694 579 l 579 579 l 579 463 l 463 463 l 463 232 l 347 232 l 347 115 l 232 115 l 232 0 l 115 0 m 579 -232 l 579 115 l 463 115 l 463 232 l 579 232 l 579 115 l 694 115 l 694 -232 l 579 -232 z "},"Ҵ":{"ha":694,"x_min":115,"x_max":810,"o":"m 694 -115 l 694 0 l 232 0 l 232 810 l 115 810 l 115 926 l 463 926 l 463 810 l 347 810 l 347 115 l 579 115 l 579 926 l 694 926 l 694 115 l 810 115 l 810 -115 l 694 -115 z "},"ҵ":{"ha":694,"x_min":115,"x_max":810,"o":"m 694 -115 l 694 0 l 232 0 l 232 579 l 115 579 l 115 694 l 463 694 l 463 579 l 347 579 l 347 115 l 579 115 l 579 694 l 694 694 l 694 115 l 810 115 l 810 -115 l 694 -115 z "},"Ҷ":{"ha":694,"x_min":115,"x_max":694,"o":"m 579 -232 l 579 0 l 463 0 l 463 347 l 232 347 l 232 463 l 115 463 l 115 926 l 232 926 l 232 463 l 463 463 l 463 926 l 579 926 l 579 115 l 694 115 l 694 -232 l 579 -232 z "},"ҷ":{"ha":694,"x_min":115,"x_max":694,"o":"m 579 -232 l 579 0 l 463 0 l 463 232 l 232 232 l 232 347 l 115 347 l 115 694 l 232 694 l 232 347 l 463 347 l 463 694 l 579 694 l 579 115 l 694 115 l 694 -232 l 579 -232 z "},"Ҹ":{"ha":694,"x_min":115,"x_max":694,"o":"m 347 232 l 347 347 l 232 347 l 232 463 l 115 463 l 115 926 l 232 926 l 232 463 l 347 463 l 347 579 l 463 579 l 463 463 l 579 463 l 579 926 l 694 926 l 694 0 l 579 0 l 579 347 l 463 347 l 463 232 l 347 232 z "},"ҹ":{"ha":694,"x_min":115,"x_max":694,"o":"m 347 115 l 347 232 l 232 232 l 232 347 l 115 347 l 115 694 l 232 694 l 232 347 l 347 347 l 347 463 l 463 463 l 463 347 l 579 347 l 579 694 l 694 694 l 694 0 l 579 0 l 579 232 l 463 232 l 463 115 l 347 115 z "},"Һ":{"ha":694,"x_min":115,"x_max":694,"o":"m 579 0 l 579 463 l 232 463 l 232 0 l 115 0 l 115 926 l 232 926 l 232 579 l 579 579 l 579 463 l 694 463 l 694 0 l 579 0 z "},"һ":{"ha":694,"x_min":115,"x_max":694,"o":"m 579 0 l 579 347 l 232 347 l 232 0 l 115 0 l 115 694 l 232 694 l 232 463 l 579 463 l 579 347 l 694 347 l 694 0 l 579 0 z "},"Ҽ":{"ha":694,"x_min":115,"x_max":694,"o":"m 463 0 l 463 115 l 347 115 l 347 463 l 232 463 l 232 579 l 115 579 l 115 694 l 232 694 l 232 579 l 347 579 l 347 810 l 463 810 l 463 579 l 579 579 l 579 810 l 463 810 l 463 926 l 579 926 l 579 810 l 694 810 l 694 463 l 463 463 l 463 115 l 579 115 l 579 232 l 694 232 l 694 115 l 579 115 l 579 0 l 463 0 z "},"ҽ":{"ha":694,"x_min":115,"x_max":694,"o":"m 463 0 l 463 115 l 347 115 l 347 347 l 232 347 l 232 463 l 115 463 l 115 579 l 232 579 l 232 463 l 347 463 l 347 579 l 463 579 l 463 463 l 579 463 l 579 579 l 463 579 l 463 694 l 579 694 l 579 579 l 694 579 l 694 347 l 463 347 l 463 115 l 579 115 l 579 232 l 694 232 l 694 115 l 579 115 l 579 0 l 463 0 z "},"Ҿ":{"ha":694,"x_min":115,"x_max":694,"o":"m 463 -232 l 463 115 l 347 115 l 347 463 l 232 463 l 232 579 l 115 579 l 115 694 l 232 694 l 232 579 l 347 579 l 347 810 l 463 810 l 463 579 l 579 579 l 579 810 l 463 810 l 463 926 l 579 926 l 579 810 l 694 810 l 694 463 l 463 463 l 463 115 l 579 115 l 579 232 l 694 232 l 694 115 l 579 115 l 579 -232 l 463 -232 z "},"ҿ":{"ha":694,"x_min":115,"x_max":694,"o":"m 463 -232 l 463 115 l 347 115 l 347 347 l 232 347 l 232 463 l 115 463 l 115 579 l 232 579 l 232 463 l 347 463 l 347 579 l 463 579 l 463 463 l 579 463 l 579 579 l 463 579 l 463 694 l 579 694 l 579 579 l 694 579 l 694 347 l 463 347 l 463 115 l 579 115 l 579 232 l 694 232 l 694 115 l 579 115 l 579 -232 l 463 -232 z "},"Ӏ":{"ha":694,"x_min":232,"x_max":579,"o":"m 232 926 l 579 926 l 579 810 l 463 810 l 463 115 l 579 115 l 579 0 l 232 0 l 232 115 l 347 115 l 347 810 l 232 810 l 232 926 z "},"Ӂ":{"ha":694,"x_min":115,"x_max":694,"o":"m 347 926 l 347 1042 l 232 1042 l 232 1157 l 347 1157 l 347 1042 l 463 1042 l 463 1157 l 579 1157 l 579 1042 l 463 1042 l 463 926 l 347 926 m 579 0 l 579 347 l 463 347 l 463 0 l 347 0 l 347 347 l 232 347 l 232 463 l 115 463 l 115 810 l 232 810 l 232 463 l 347 463 l 347 810 l 463 810 l 463 463 l 579 463 l 579 810 l 694 810 l 694 463 l 579 463 l 579 347 l 694 347 l 694 0 l 579 0 m 115 0 l 115 347 l 232 347 l 232 0 l 115 0 z "},"ӂ":{"ha":694,"x_min":115,"x_max":694,"o":"m 347 810 l 347 926 l 232 926 l 232 1042 l 347 1042 l 347 926 l 463 926 l 463 1042 l 579 1042 l 579 926 l 463 926 l 463 810 l 347 810 m 579 0 l 579 232 l 463 232 l 463 0 l 347 0 l 347 232 l 232 232 l 232 463 l 115 463 l 115 694 l 232 694 l 232 463 l 347 463 l 347 694 l 463 694 l 463 463 l 579 463 l 579 694 l 694 694 l 694 463 l 579 463 l 579 232 l 694 232 l 694 0 l 579 0 m 115 0 l 115 232 l 232 232 l 232 0 l 115 0 z "},"Ӄ":{"ha":694,"x_min":115,"x_max":694,"o":"m 115 0 l 115 926 l 232 926 l 232 463 l 347 463 l 347 579 l 463 579 l 463 694 l 579 694 l 579 926 l 694 926 l 694 694 l 579 694 l 579 579 l 463 579 l 463 463 l 347 463 l 347 347 l 232 347 l 232 0 l 115 0 m 463 463 l 579 463 l 579 232 l 463 232 l 463 463 m 579 232 l 694 232 l 694 -115 l 579 -115 l 579 232 m 579 -115 l 579 -232 l 347 -232 l 347 -115 l 579 -115 z "},"ӄ":{"ha":694,"x_min":115,"x_max":694,"o":"m 115 0 l 115 694 l 232 694 l 232 347 l 347 347 l 347 463 l 463 463 l 463 579 l 579 579 l 579 694 l 694 694 l 694 579 l 579 579 l 579 463 l 463 463 l 463 347 l 347 347 l 347 232 l 232 232 l 232 0 l 115 0 m 463 347 l 579 347 l 579 115 l 463 115 l 463 347 m 579 115 l 694 115 l 694 -115 l 579 -115 l 579 115 m 579 -115 l 579 -232 l 347 -232 l 347 -115 l 579 -115 z "},"Ӆ":{"ha":694,"x_min":115,"x_max":694,"o":"m 115 0 l 115 115 l 232 115 l 232 926 l 694 926 l 694 -115 l 579 -115 l 579 810 l 347 810 l 347 115 l 232 115 l 232 0 l 115 0 m 463 -232 l 463 -115 l 579 -115 l 579 -232 l 463 -232 z "},"ӆ":{"ha":694,"x_min":115,"x_max":694,"o":"m 115 0 l 115 115 l 232 115 l 232 694 l 694 694 l 694 -115 l 579 -115 l 579 579 l 347 579 l 347 115 l 232 115 l 232 0 l 115 0 m 463 -232 l 463 -115 l 579 -115 l 579 -232 l 463 -232 z "},"Ӈ":{"ha":694,"x_min":115,"x_max":694,"o":"m 115 0 l 115 926 l 232 926 l 232 579 l 579 579 l 579 926 l 694 926 l 694 0 l 579 0 l 579 463 l 232 463 l 232 0 l 115 0 m 579 0 l 579 -115 l 347 -115 l 347 0 l 579 0 z "},"ӈ":{"ha":694,"x_min":115,"x_max":694,"o":"m 115 0 l 115 694 l 232 694 l 232 347 l 579 347 l 579 694 l 694 694 l 694 0 l 579 0 l 579 232 l 232 232 l 232 0 l 115 0 m 579 0 l 579 -115 l 347 -115 l 347 0 l 579 0 z "},"Ӊ":{"ha":694,"x_min":115,"x_max":694,"o":"m 115 0 l 115 926 l 232 926 l 232 579 l 579 579 l 579 926 l 694 926 l 694 -115 l 579 -115 l 579 463 l 232 463 l 232 0 l 115 0 m 463 -232 l 463 -115 l 579 -115 l 579 -232 l 463 -232 z "},"ӊ":{"ha":694,"x_min":115,"x_max":694,"o":"m 115 0 l 115 694 l 232 694 l 232 347 l 579 347 l 579 694 l 694 694 l 694 -115 l 579 -115 l 579 232 l 232 232 l 232 0 l 115 0 m 463 -232 l 463 -115 l 579 -115 l 579 -232 l 463 -232 z "},"Ӌ":{"ha":694,"x_min":115,"x_max":694,"o":"m 463 -232 l 463 115 l 579 115 l 579 347 l 232 347 l 232 463 l 115 463 l 115 926 l 232 926 l 232 463 l 579 463 l 579 926 l 694 926 l 694 0 l 579 0 l 579 -232 l 463 -232 z "},"ӌ":{"ha":694,"x_min":115,"x_max":694,"o":"m 463 -115 l 463 115 l 579 115 l 579 232 l 232 232 l 232 347 l 115 347 l 115 694 l 232 694 l 232 347 l 579 347 l 579 694 l 694 694 l 694 0 l 579 0 l 579 -115 l 463 -115 z "},"Ӎ":{"ha":694,"x_min":115,"x_max":694,"o":"m 347 232 l 347 463 l 232 463 l 232 0 l 115 0 l 115 926 l 232 926 l 232 694 l 347 694 l 347 463 l 463 463 l 463 694 l 579 694 l 579 926 l 694 926 l 694 -115 l 579 -115 l 579 463 l 463 463 l 463 232 l 347 232 m 463 -232 l 463 -115 l 579 -115 l 579 -232 l 463 -232 z "},"ӎ":{"ha":694,"x_min":115,"x_max":694,"o":"m 347 115 l 347 347 l 232 347 l 232 0 l 115 0 l 115 694 l 232 694 l 232 579 l 347 579 l 347 347 l 463 347 l 463 579 l 579 579 l 579 694 l 694 694 l 694 -115 l 579 -115 l 579 347 l 463 347 l 463 115 l 347 115 m 463 -232 l 463 -115 l 579 -115 l 579 -232 l 463 -232 z "},"ӏ":{"ha":694,"x_min":232,"x_max":463,"o":"m 347 0 l 347 810 l 232 810 l 232 926 l 463 926 l 463 0 l 347 0 z "},"Ӑ":{"ha":694,"x_min":115,"x_max":694,"o":"m 347 926 l 347 1042 l 232 1042 l 232 1157 l 347 1157 l 347 1042 l 463 1042 l 463 1157 l 579 1157 l 579 1042 l 463 1042 l 463 926 l 347 926 m 579 0 l 579 232 l 463 232 l 463 347 l 347 347 l 347 232 l 232 232 l 232 579 l 347 579 l 347 463 l 463 463 l 463 579 l 347 579 l 347 810 l 463 810 l 463 579 l 579 579 l 579 232 l 694 232 l 694 0 l 579 0 m 115 0 l 115 232 l 232 232 l 232 0 l 115 0 z "},"ӑ":{"ha":694,"x_min":115,"x_max":694,"o":"m 347 810 l 347 926 l 232 926 l 232 1042 l 347 1042 l 347 926 l 463 926 l 463 1042 l 579 1042 l 579 926 l 463 926 l 463 810 l 347 810 m 579 0 l 579 115 l 463 115 l 463 232 l 579 232 l 579 347 l 232 347 l 232 463 l 579 463 l 579 579 l 232 579 l 232 694 l 579 694 l 579 579 l 694 579 l 694 0 l 579 0 m 232 347 l 232 115 l 115 115 l 115 347 l 232 347 m 463 115 l 463 0 l 232 0 l 232 115 l 463 115 z "},"Ӓ":{"ha":694,"x_min":115,"x_max":694,"o":"m 463 1042 l 463 1157 l 579 1157 l 579 1042 l 463 1042 m 232 1042 l 232 1157 l 347 1157 l 347 1042 l 232 1042 m 579 0 l 579 347 l 232 347 l 232 694 l 347 694 l 347 463 l 463 463 l 463 694 l 347 694 l 347 926 l 463 926 l 463 694 l 579 694 l 579 347 l 694 347 l 694 0 l 579 0 m 115 0 l 115 347 l 232 347 l 232 0 l 115 0 z "},"ӓ":{"ha":694,"x_min":115,"x_max":694,"o":"m 463 810 l 463 926 l 579 926 l 579 810 l 463 810 m 232 810 l 232 926 l 347 926 l 347 810 l 232 810 m 579 0 l 579 115 l 463 115 l 463 232 l 579 232 l 579 347 l 232 347 l 232 463 l 579 463 l 579 579 l 232 579 l 232 694 l 579 694 l 579 579 l 694 579 l 694 0 l 579 0 m 232 347 l 232 115 l 115 115 l 115 347 l 232 347 m 463 115 l 463 0 l 232 0 l 232 115 l 463 115 z "},"Ӕ":{"ha":694,"x_min":115,"x_max":694,"o":"m 115 0 l 115 232 l 232 232 l 232 694 l 347 694 l 347 463 l 463 463 l 463 694 l 347 694 l 347 926 l 694 926 l 694 810 l 579 810 l 579 579 l 694 579 l 694 463 l 579 463 l 579 115 l 694 115 l 694 0 l 463 0 l 463 347 l 347 347 l 347 232 l 232 232 l 232 0 l 115 0 z "},"ӕ":{"ha":694,"x_min":115,"x_max":694,"o":"m 463 0 l 463 115 l 347 115 l 347 347 l 232 347 l 232 463 l 347 463 l 347 579 l 115 579 l 115 694 l 347 694 l 347 579 l 463 579 l 463 463 l 579 463 l 579 579 l 463 579 l 463 694 l 579 694 l 579 579 l 694 579 l 694 347 l 463 347 l 463 115 l 579 115 l 579 232 l 694 232 l 694 115 l 579 115 l 579 0 l 463 0 m 232 0 l 232 115 l 115 115 l 115 347 l 232 347 l 232 115 l 347 115 l 347 0 l 232 0 z "},"Ӗ":{"ha":694,"x_min":115,"x_max":694,"o":"m 347 926 l 347 1042 l 232 1042 l 232 1157 l 347 1157 l 347 1042 l 463 1042 l 463 1157 l 579 1157 l 579 1042 l 463 1042 l 463 926 l 347 926 m 115 810 l 694 810 l 694 694 l 232 694 l 232 463 l 579 463 l 579 347 l 232 347 l 232 115 l 694 115 l 694 0 l 115 0 l 115 810 z "},"ӗ":{"ha":694,"x_min":115,"x_max":694,"o":"m 347 810 l 347 926 l 232 926 l 232 1042 l 347 1042 l 347 926 l 463 926 l 463 1042 l 579 1042 l 579 926 l 463 926 l 463 810 l 347 810 m 232 694 l 579 694 l 579 579 l 232 579 l 232 694 m 579 579 l 694 579 l 694 347 l 232 347 l 232 115 l 115 115 l 115 579 l 232 579 l 232 463 l 579 463 l 579 579 m 579 115 l 579 232 l 694 232 l 694 115 l 579 115 m 579 115 l 579 0 l 232 0 l 232 115 l 579 115 z "},"Ә":{"ha":694,"x_min":115,"x_max":694,"o":"m 115 694 l 115 810 l 232 810 l 232 926 l 579 926 l 579 810 l 232 810 l 232 694 l 115 694 m 579 810 l 694 810 l 694 115 l 579 115 l 579 347 l 232 347 l 232 115 l 115 115 l 115 463 l 579 463 l 579 810 m 579 115 l 579 0 l 232 0 l 232 115 l 579 115 z "},"ә":{"ha":694,"x_min":115,"x_max":694,"o":"m 115 463 l 115 579 l 232 579 l 232 694 l 579 694 l 579 579 l 232 579 l 232 463 l 115 463 m 579 579 l 694 579 l 694 115 l 579 115 l 579 232 l 232 232 l 232 115 l 115 115 l 115 347 l 579 347 l 579 579 m 579 115 l 579 0 l 232 0 l 232 115 l 579 115 z "},"Ӛ":{"ha":694,"x_min":115,"x_max":694,"o":"m 463 1042 l 463 1157 l 579 1157 l 579 1042 l 463 1042 m 232 1042 l 232 1157 l 347 1157 l 347 1042 l 232 1042 m 115 694 l 115 810 l 232 810 l 232 926 l 579 926 l 579 810 l 232 810 l 232 694 l 115 694 m 579 810 l 694 810 l 694 115 l 579 115 l 579 347 l 232 347 l 232 115 l 115 115 l 115 463 l 579 463 l 579 810 m 579 115 l 579 0 l 232 0 l 232 115 l 579 115 z "},"ӛ":{"ha":694,"x_min":115,"x_max":694,"o":"m 463 810 l 463 926 l 579 926 l 579 810 l 463 810 m 232 810 l 232 926 l 347 926 l 347 810 l 232 810 m 115 463 l 115 579 l 232 579 l 232 694 l 579 694 l 579 579 l 232 579 l 232 463 l 115 463 m 579 579 l 694 579 l 694 115 l 579 115 l 579 232 l 232 232 l 232 115 l 115 115 l 115 347 l 579 347 l 579 579 m 579 115 l 579 0 l 232 0 l 232 115 l 579 115 z "},"Ӝ":{"ha":694,"x_min":115,"x_max":694,"o":"m 463 1042 l 463 1157 l 579 1157 l 579 1042 l 463 1042 m 232 1042 l 232 1157 l 347 1157 l 347 1042 l 232 1042 m 579 0 l 579 347 l 463 347 l 463 0 l 347 0 l 347 347 l 232 347 l 232 579 l 115 579 l 115 926 l 232 926 l 232 579 l 347 579 l 347 926 l 463 926 l 463 579 l 579 579 l 579 926 l 694 926 l 694 579 l 579 579 l 579 347 l 694 347 l 694 0 l 579 0 m 115 0 l 115 347 l 232 347 l 232 0 l 115 0 z "},"ӝ":{"ha":694,"x_min":115,"x_max":694,"o":"m 463 810 l 463 926 l 579 926 l 579 810 l 463 810 m 232 810 l 232 926 l 347 926 l 347 810 l 232 810 m 579 0 l 579 232 l 463 232 l 463 0 l 347 0 l 347 232 l 232 232 l 232 463 l 115 463 l 115 694 l 232 694 l 232 463 l 347 463 l 347 694 l 463 694 l 463 463 l 579 463 l 579 694 l 694 694 l 694 463 l 579 463 l 579 232 l 694 232 l 694 0 l 579 0 m 115 0 l 115 232 l 232 232 l 232 0 l 115 0 z "},"Ӟ":{"ha":694,"x_min":115,"x_max":694,"o":"m 463 1042 l 463 1157 l 579 1157 l 579 1042 l 463 1042 m 232 1042 l 232 1157 l 347 1157 l 347 1042 l 232 1042 m 115 694 l 115 926 l 579 926 l 579 810 l 232 810 l 232 694 l 115 694 m 579 810 l 694 810 l 694 579 l 579 579 l 579 810 m 579 579 l 579 463 l 347 463 l 347 579 l 579 579 m 579 463 l 694 463 l 694 115 l 579 115 l 579 463 m 579 115 l 579 0 l 232 0 l 232 115 l 115 115 l 115 232 l 232 232 l 232 115 l 579 115 z "},"ӟ":{"ha":694,"x_min":115,"x_max":694,"o":"m 463 810 l 463 926 l 579 926 l 579 810 l 463 810 m 232 810 l 232 926 l 347 926 l 347 810 l 232 810 m 115 463 l 115 579 l 232 579 l 232 694 l 579 694 l 579 579 l 232 579 l 232 463 l 115 463 m 579 579 l 694 579 l 694 463 l 579 463 l 579 579 m 579 463 l 579 347 l 347 347 l 347 463 l 579 463 m 579 347 l 694 347 l 694 115 l 579 115 l 579 347 m 579 115 l 579 0 l 232 0 l 232 115 l 115 115 l 115 232 l 232 232 l 232 115 l 579 115 z "},"Ӡ":{"ha":694,"x_min":115,"x_max":694,"o":"m 115 926 l 694 926 l 694 694 l 579 694 l 579 810 l 115 810 l 115 926 m 579 694 l 579 463 l 347 463 l 347 579 l 463 579 l 463 694 l 579 694 m 579 463 l 694 463 l 694 115 l 579 115 l 579 463 m 579 115 l 579 0 l 232 0 l 232 115 l 115 115 l 115 232 l 232 232 l 232 115 l 579 115 z "},"ӡ":{"ha":694,"x_min":115,"x_max":694,"o":"m 115 694 l 694 694 l 694 463 l 579 463 l 579 579 l 115 579 l 115 694 m 579 463 l 579 347 l 463 347 l 463 463 l 579 463 m 463 347 l 463 232 l 579 232 l 579 115 l 232 115 l 232 232 l 347 232 l 347 347 l 463 347 m 579 115 l 694 115 l 694 -115 l 579 -115 l 579 115 m 579 -115 l 579 -232 l 232 -232 l 232 -115 l 115 -115 l 115 0 l 232 0 l 232 -115 l 579 -115 z "},"Ӣ":{"ha":694,"x_min":115,"x_max":694,"o":"m 579 0 l 579 579 l 463 579 l 463 810 l 579 810 l 579 926 l 694 926 l 694 0 l 579 0 m 115 0 l 115 926 l 232 926 l 232 347 l 347 347 l 347 579 l 463 579 l 463 347 l 347 347 l 347 115 l 232 115 l 232 0 l 115 0 m 232 1157 l 579 1157 l 579 1042 l 232 1042 l 232 1157 z "},"ӣ":{"ha":694,"x_min":115,"x_max":694,"o":"m 579 0 l 579 463 l 463 463 l 463 694 l 694 694 l 694 0 l 579 0 m 232 926 l 579 926 l 579 810 l 232 810 l 232 926 m 115 0 l 115 694 l 232 694 l 232 232 l 347 232 l 347 463 l 463 463 l 463 232 l 347 232 l 347 0 l 115 0 z "},"Ӥ":{"ha":694,"x_min":115,"x_max":694,"o":"m 463 1042 l 463 1157 l 579 1157 l 579 1042 l 463 1042 m 232 1042 l 232 1157 l 347 1157 l 347 1042 l 232 1042 m 579 0 l 579 579 l 463 579 l 463 810 l 579 810 l 579 926 l 694 926 l 694 0 l 579 0 m 115 0 l 115 926 l 232 926 l 232 347 l 347 347 l 347 579 l 463 579 l 463 347 l 347 347 l 347 115 l 232 115 l 232 0 l 115 0 z "},"ӥ":{"ha":694,"x_min":115,"x_max":694,"o":"m 463 810 l 463 926 l 579 926 l 579 810 l 463 810 m 232 810 l 232 926 l 347 926 l 347 810 l 232 810 m 579 0 l 579 463 l 463 463 l 463 694 l 694 694 l 694 0 l 579 0 m 115 0 l 115 694 l 232 694 l 232 232 l 347 232 l 347 463 l 463 463 l 463 232 l 347 232 l 347 0 l 115 0 z "},"Ӧ":{"ha":694,"x_min":115,"x_max":694,"o":"m 463 1042 l 463 1157 l 579 1157 l 579 1042 l 463 1042 m 232 1042 l 232 1157 l 347 1157 l 347 1042 l 232 1042 m 232 926 l 579 926 l 579 810 l 232 810 l 232 926 m 579 810 l 694 810 l 694 115 l 579 115 l 579 810 m 232 810 l 232 115 l 115 115 l 115 810 l 232 810 m 579 115 l 579 0 l 232 0 l 232 115 l 579 115 z "},"ӧ":{"ha":694,"x_min":115,"x_max":694,"o":"m 463 810 l 463 926 l 579 926 l 579 810 l 463 810 m 232 810 l 232 926 l 347 926 l 347 810 l 232 810 m 232 694 l 579 694 l 579 579 l 232 579 l 232 694 m 579 579 l 694 579 l 694 115 l 579 115 l 579 579 m 232 579 l 232 115 l 115 115 l 115 579 l 232 579 m 579 115 l 579 0 l 232 0 l 232 115 l 579 115 z "},"Ө":{"ha":694,"x_min":115,"x_max":694,"o":"m 232 926 l 579 926 l 579 810 l 232 810 l 232 926 m 579 810 l 694 810 l 694 115 l 579 115 l 579 347 l 232 347 l 232 115 l 115 115 l 115 810 l 232 810 l 232 463 l 579 463 l 579 810 m 579 115 l 579 0 l 232 0 l 232 115 l 579 115 z "},"ө":{"ha":694,"x_min":115,"x_max":694,"o":"m 232 694 l 579 694 l 579 579 l 232 579 l 232 694 m 579 579 l 694 579 l 694 115 l 579 115 l 579 232 l 232 232 l 232 115 l 115 115 l 115 579 l 232 579 l 232 347 l 579 347 l 579 579 m 579 115 l 579 0 l 232 0 l 232 115 l 579 115 z "},"Ӫ":{"ha":694,"x_min":115,"x_max":694,"o":"m 463 1042 l 463 1157 l 579 1157 l 579 1042 l 463 1042 m 232 1042 l 232 1157 l 347 1157 l 347 1042 l 232 1042 m 232 926 l 579 926 l 579 810 l 232 810 l 232 926 m 579 810 l 694 810 l 694 115 l 579 115 l 579 347 l 232 347 l 232 115 l 115 115 l 115 810 l 232 810 l 232 463 l 579 463 l 579 810 m 579 115 l 579 0 l 232 0 l 232 115 l 579 115 z "},"ӫ":{"ha":694,"x_min":115,"x_max":694,"o":"m 463 810 l 463 926 l 579 926 l 579 810 l 463 810 m 232 810 l 232 926 l 347 926 l 347 810 l 232 810 m 232 694 l 579 694 l 579 579 l 232 579 l 232 694 m 579 579 l 694 579 l 694 115 l 579 115 l 579 232 l 232 232 l 232 115 l 115 115 l 115 579 l 232 579 l 232 347 l 579 347 l 579 579 m 579 115 l 579 0 l 232 0 l 232 115 l 579 115 z "},"Ӭ":{"ha":694,"x_min":115,"x_max":694,"o":"m 463 1042 l 463 1157 l 579 1157 l 579 1042 l 463 1042 m 232 1042 l 232 1157 l 347 1157 l 347 1042 l 232 1042 m 115 694 l 115 810 l 232 810 l 232 926 l 463 926 l 463 810 l 232 810 l 232 694 l 115 694 m 463 810 l 579 810 l 579 694 l 463 694 l 463 810 m 579 694 l 694 694 l 694 232 l 579 232 l 579 463 l 232 463 l 232 579 l 579 579 l 579 694 m 579 232 l 579 115 l 463 115 l 463 232 l 579 232 m 463 115 l 463 0 l 232 0 l 232 115 l 115 115 l 115 232 l 232 232 l 232 115 l 463 115 z "},"ӭ":{"ha":694,"x_min":115,"x_max":694,"o":"m 463 810 l 463 926 l 579 926 l 579 810 l 463 810 m 232 810 l 232 926 l 347 926 l 347 810 l 232 810 m 115 694 l 579 694 l 579 579 l 115 579 l 115 694 m 579 579 l 694 579 l 694 115 l 579 115 l 579 347 l 232 347 l 232 463 l 579 463 l 579 579 m 579 115 l 579 0 l 115 0 l 115 115 l 579 115 z "},"Ӯ":{"ha":694,"x_min":115,"x_max":694,"o":"m 232 1157 l 579 1157 l 579 1042 l 232 1042 l 232 1157 m 579 463 l 579 926 l 694 926 l 694 463 l 579 463 m 115 463 l 115 926 l 232 926 l 232 463 l 115 463 m 579 463 l 579 232 l 463 232 l 463 463 l 579 463 m 232 463 l 347 463 l 347 232 l 232 232 l 232 463 m 347 232 l 463 232 l 463 115 l 347 115 l 347 232 m 347 115 l 347 0 l 115 0 l 115 115 l 347 115 z "},"ӯ":{"ha":694,"x_min":115,"x_max":694,"o":"m 232 926 l 579 926 l 579 810 l 232 810 l 232 926 m 579 347 l 579 694 l 694 694 l 694 347 l 579 347 m 115 347 l 115 694 l 232 694 l 232 347 l 115 347 m 579 347 l 579 115 l 463 115 l 463 347 l 579 347 m 232 347 l 347 347 l 347 115 l 232 115 l 232 347 m 347 115 l 463 115 l 463 -115 l 347 -115 l 347 115 m 347 -115 l 347 -232 l 115 -232 l 115 -115 l 347 -115 z "},"Ӱ":{"ha":694,"x_min":115,"x_max":694,"o":"m 463 1042 l 463 1157 l 579 1157 l 579 1042 l 463 1042 m 232 1042 l 232 1157 l 347 1157 l 347 1042 l 232 1042 m 579 463 l 579 926 l 694 926 l 694 463 l 579 463 m 115 463 l 115 926 l 232 926 l 232 463 l 115 463 m 579 463 l 579 232 l 463 232 l 463 463 l 579 463 m 232 463 l 347 463 l 347 232 l 232 232 l 232 463 m 347 232 l 463 232 l 463 115 l 347 115 l 347 232 m 347 115 l 347 0 l 115 0 l 115 115 l 347 115 z "},"ӱ":{"ha":694,"x_min":115,"x_max":694,"o":"m 463 810 l 463 926 l 579 926 l 579 810 l 463 810 m 232 810 l 232 926 l 347 926 l 347 810 l 232 810 m 579 347 l 579 694 l 694 694 l 694 347 l 579 347 m 115 347 l 115 694 l 232 694 l 232 347 l 115 347 m 579 347 l 579 115 l 463 115 l 463 347 l 579 347 m 232 347 l 347 347 l 347 115 l 232 115 l 232 347 m 347 115 l 463 115 l 463 -115 l 347 -115 l 347 115 m 347 -115 l 347 -232 l 115 -232 l 115 -115 l 347 -115 z "},"Ӳ":{"ha":694,"x_min":115,"x_max":694,"o":"m 463 926 l 463 1042 l 347 1042 l 347 1157 l 463 1157 l 463 1042 l 579 1042 l 579 1157 l 694 1157 l 694 1042 l 579 1042 l 579 926 l 463 926 m 232 926 l 232 1042 l 347 1042 l 347 926 l 232 926 m 579 463 l 579 810 l 694 810 l 694 463 l 579 463 m 115 463 l 115 810 l 232 810 l 232 463 l 115 463 m 579 463 l 579 232 l 463 232 l 463 463 l 579 463 m 232 463 l 347 463 l 347 232 l 232 232 l 232 463 m 347 232 l 463 232 l 463 115 l 347 115 l 347 232 m 347 115 l 347 0 l 115 0 l 115 115 l 347 115 z "},"ӳ":{"ha":694,"x_min":115,"x_max":694,"o":"m 463 810 l 463 926 l 347 926 l 347 1042 l 463 1042 l 463 926 l 579 926 l 579 1042 l 694 1042 l 694 926 l 579 926 l 579 810 l 463 810 m 232 810 l 232 926 l 347 926 l 347 810 l 232 810 m 579 347 l 579 694 l 694 694 l 694 347 l 579 347 m 115 347 l 115 694 l 232 694 l 232 347 l 115 347 m 579 347 l 579 115 l 463 115 l 463 347 l 579 347 m 232 347 l 347 347 l 347 115 l 232 115 l 232 347 m 347 115 l 463 115 l 463 -115 l 347 -115 l 347 115 m 347 -115 l 347 -232 l 115 -232 l 115 -115 l 347 -115 z "},"Ӵ":{"ha":694,"x_min":115,"x_max":694,"o":"m 463 1042 l 463 1157 l 579 1157 l 579 1042 l 463 1042 m 232 1042 l 232 1157 l 347 1157 l 347 1042 l 232 1042 m 579 0 l 579 347 l 232 347 l 232 463 l 115 463 l 115 926 l 232 926 l 232 463 l 579 463 l 579 926 l 694 926 l 694 0 l 579 0 z "},"ӵ":{"ha":694,"x_min":115,"x_max":694,"o":"m 463 810 l 463 926 l 579 926 l 579 810 l 463 810 m 232 810 l 232 926 l 347 926 l 347 810 l 232 810 m 579 0 l 579 232 l 232 232 l 232 347 l 115 347 l 115 694 l 232 694 l 232 347 l 579 347 l 579 694 l 694 694 l 694 0 l 579 0 z "},"Ӷ":{"ha":694,"x_min":232,"x_max":694,"o":"m 347 -232 l 347 0 l 232 0 l 232 926 l 694 926 l 694 810 l 347 810 l 347 115 l 463 115 l 463 -232 l 347 -232 z "},"ӷ":{"ha":694,"x_min":232,"x_max":694,"o":"m 347 -232 l 347 0 l 232 0 l 232 694 l 694 694 l 694 579 l 347 579 l 347 115 l 463 115 l 463 -232 l 347 -232 z "},"Ӹ":{"ha":694,"x_min":115,"x_max":694,"o":"m 463 1042 l 463 1157 l 579 1157 l 579 1042 l 463 1042 m 232 1042 l 232 1157 l 347 1157 l 347 1042 l 232 1042 m 579 0 l 579 926 l 694 926 l 694 0 l 579 0 m 115 0 l 115 926 l 232 926 l 232 579 l 347 579 l 347 463 l 463 463 l 463 115 l 347 115 l 347 0 l 115 0 m 347 463 l 232 463 l 232 115 l 347 115 l 347 463 z "},"ӹ":{"ha":694,"x_min":115,"x_max":694,"o":"m 463 810 l 463 926 l 579 926 l 579 810 l 463 810 m 232 810 l 232 926 l 347 926 l 347 810 l 232 810 m 579 0 l 579 694 l 694 694 l 694 0 l 579 0 m 115 0 l 115 694 l 232 694 l 232 463 l 347 463 l 347 347 l 463 347 l 463 115 l 347 115 l 347 0 l 115 0 m 347 347 l 232 347 l 232 115 l 347 115 l 347 347 z "},"Ӻ":{"ha":694,"x_min":115,"x_max":694,"o":"m 232 926 l 694 926 l 694 810 l 347 810 l 347 463 l 579 463 l 579 347 l 347 347 l 347 115 l 579 115 l 579 -115 l 463 -115 l 463 0 l 232 0 l 232 347 l 115 347 l 115 463 l 232 463 l 232 926 m 463 -115 l 463 -232 l 232 -232 l 232 -115 l 463 -115 z "},"ӻ":{"ha":694,"x_min":115,"x_max":694,"o":"m 232 694 l 694 694 l 694 579 l 347 579 l 347 463 l 579 463 l 579 347 l 347 347 l 347 115 l 579 115 l 579 -115 l 463 -115 l 463 0 l 232 0 l 232 347 l 115 347 l 115 463 l 232 463 l 232 694 m 463 -115 l 463 -232 l 232 -232 l 232 -115 l 463 -115 z "},"Ӽ":{"ha":694,"x_min":115,"x_max":694,"o":"m 115 0 l 115 232 l 232 232 l 232 347 l 347 347 l 347 579 l 232 579 l 232 694 l 115 694 l 115 926 l 232 926 l 232 694 l 347 694 l 347 579 l 463 579 l 463 694 l 579 694 l 579 926 l 694 926 l 694 694 l 579 694 l 579 579 l 463 579 l 463 347 l 347 347 l 347 232 l 232 232 l 232 0 l 115 0 m 463 347 l 579 347 l 579 232 l 463 232 l 463 347 m 579 232 l 694 232 l 694 -115 l 579 -115 l 579 232 m 579 -115 l 579 -232 l 347 -232 l 347 -115 l 579 -115 z "},"ӽ":{"ha":694,"x_min":115,"x_max":694,"o":"m 115 0 l 115 115 l 232 115 l 232 232 l 347 232 l 347 463 l 232 463 l 232 579 l 115 579 l 115 694 l 232 694 l 232 579 l 347 579 l 347 463 l 463 463 l 463 579 l 579 579 l 579 694 l 694 694 l 694 579 l 579 579 l 579 463 l 463 463 l 463 232 l 347 232 l 347 115 l 232 115 l 232 0 l 115 0 m 463 232 l 579 232 l 579 115 l 463 115 l 463 232 m 579 115 l 694 115 l 694 -115 l 579 -115 l 579 115 m 579 -115 l 579 -232 l 347 -232 l 347 -115 l 579 -115 z "},"Ӿ":{"ha":694,"x_min":115,"x_max":694,"o":"m 579 0 l 579 232 l 463 232 l 463 347 l 347 347 l 347 232 l 232 232 l 232 463 l 115 463 l 115 579 l 232 579 l 232 694 l 115 694 l 115 926 l 232 926 l 232 694 l 347 694 l 347 579 l 463 579 l 463 694 l 579 694 l 579 926 l 694 926 l 694 694 l 579 694 l 579 579 l 694 579 l 694 463 l 579 463 l 579 232 l 694 232 l 694 0 l 579 0 m 115 0 l 115 232 l 232 232 l 232 0 l 115 0 z "},"ӿ":{"ha":694,"x_min":115,"x_max":694,"o":"m 579 0 l 579 115 l 463 115 l 463 232 l 347 232 l 347 115 l 232 115 l 232 347 l 115 347 l 115 463 l 232 463 l 232 579 l 115 579 l 115 694 l 232 694 l 232 579 l 347 579 l 347 463 l 463 463 l 463 579 l 579 579 l 579 694 l 694 694 l 694 579 l 579 579 l 579 463 l 694 463 l 694 347 l 579 347 l 579 115 l 694 115 l 694 0 l 579 0 m 115 0 l 115 115 l 232 115 l 232 0 l 115 0 z "},"Ԁ":{"ha":694,"x_min":115,"x_max":694,"o":"m 347 926 l 694 926 l 694 810 l 579 810 l 579 115 l 694 115 l 694 0 l 232 0 l 232 115 l 115 115 l 115 579 l 232 579 l 232 115 l 463 115 l 463 579 l 232 579 l 232 694 l 463 694 l 463 810 l 347 810 l 347 926 z "},"ԁ":{"ha":694,"x_min":115,"x_max":694,"o":"m 579 0 l 579 115 l 463 115 l 463 232 l 579 232 l 579 579 l 463 579 l 463 694 l 232 694 l 232 810 l 463 810 l 463 694 l 579 694 l 579 926 l 694 926 l 694 0 l 579 0 m 232 694 l 232 115 l 115 115 l 115 694 l 232 694 m 463 115 l 463 0 l 232 0 l 232 115 l 463 115 z "},"Ԃ":{"ha":694,"x_min":115,"x_max":694,"o":"m 232 926 l 579 926 l 579 810 l 463 810 l 463 115 l 579 115 l 579 579 l 694 579 l 694 115 l 579 115 l 579 0 l 232 0 l 232 115 l 115 115 l 115 579 l 232 579 l 232 115 l 347 115 l 347 579 l 232 579 l 232 694 l 347 694 l 347 810 l 232 810 l 232 926 z "},"ԃ":{"ha":694,"x_min":115,"x_max":694,"o":"m 347 694 l 347 926 l 463 926 l 463 115 l 579 115 l 579 347 l 694 347 l 694 115 l 579 115 l 579 0 l 232 0 l 232 115 l 115 115 l 115 579 l 232 579 l 232 115 l 347 115 l 347 579 l 232 579 l 232 694 l 347 694 z "},"Ԅ":{"ha":694,"x_min":115,"x_max":694,"o":"m 463 0 l 463 115 l 347 115 l 347 463 l 115 463 l 115 579 l 347 579 l 347 810 l 115 810 l 115 926 l 347 926 l 347 810 l 463 810 l 463 579 l 347 579 l 347 463 l 463 463 l 463 115 l 579 115 l 579 579 l 694 579 l 694 115 l 579 115 l 579 0 l 463 0 z "},"ԅ":{"ha":694,"x_min":115,"x_max":694,"o":"m 463 0 l 463 115 l 347 115 l 347 232 l 115 232 l 115 347 l 347 347 l 347 579 l 115 579 l 115 694 l 347 694 l 347 579 l 463 579 l 463 347 l 347 347 l 347 232 l 463 232 l 463 115 l 579 115 l 579 463 l 694 463 l 694 115 l 579 115 l 579 0 l 463 0 z "},"Ԇ":{"ha":694,"x_min":115,"x_max":694,"o":"m 115 694 l 115 926 l 579 926 l 579 810 l 232 810 l 232 694 l 115 694 m 579 810 l 694 810 l 694 579 l 579 579 l 579 810 m 579 579 l 579 463 l 347 463 l 347 579 l 579 579 m 579 463 l 694 463 l 694 115 l 579 115 l 579 463 m 579 115 l 579 0 l 232 0 l 232 115 l 115 115 l 115 232 l 232 232 l 232 115 l 579 115 z "},"ԇ":{"ha":694,"x_min":115,"x_max":694,"o":"m 115 463 l 115 579 l 232 579 l 232 694 l 579 694 l 579 579 l 232 579 l 232 463 l 115 463 m 579 579 l 694 579 l 694 463 l 579 463 l 579 579 m 579 463 l 579 347 l 347 347 l 347 463 l 579 463 m 579 347 l 694 347 l 694 115 l 579 115 l 579 347 m 579 115 l 579 0 l 232 0 l 232 115 l 115 115 l 115 232 l 232 232 l 232 115 l 579 115 z "},"Ԉ":{"ha":694,"x_min":0,"x_max":694,"o":"m 463 0 l 463 115 l 347 115 l 347 810 l 232 810 l 232 115 l 115 115 l 115 926 l 463 926 l 463 115 l 579 115 l 579 694 l 694 694 l 694 115 l 579 115 l 579 0 l 463 0 m 0 0 l 0 115 l 115 115 l 115 0 l 0 0 z "},"ԉ":{"ha":694,"x_min":0,"x_max":694,"o":"m 463 0 l 463 115 l 347 115 l 347 579 l 232 579 l 232 115 l 115 115 l 115 694 l 463 694 l 463 115 l 579 115 l 579 463 l 694 463 l 694 115 l 579 115 l 579 0 l 463 0 m 0 0 l 0 115 l 115 115 l 115 0 l 0 0 z "},"Ԋ":{"ha":694,"x_min":115,"x_max":694,"o":"m 463 0 l 463 115 l 347 115 l 347 463 l 232 463 l 232 0 l 115 0 l 115 926 l 232 926 l 232 579 l 347 579 l 347 926 l 463 926 l 463 115 l 579 115 l 579 694 l 694 694 l 694 115 l 579 115 l 579 0 l 463 0 z "},"ԋ":{"ha":694,"x_min":115,"x_max":694,"o":"m 463 0 l 463 115 l 347 115 l 347 347 l 232 347 l 232 0 l 115 0 l 115 694 l 232 694 l 232 463 l 347 463 l 347 694 l 463 694 l 463 115 l 579 115 l 579 463 l 694 463 l 694 115 l 579 115 l 579 0 l 463 0 z "},"Ԍ":{"ha":694,"x_min":115,"x_max":694,"o":"m 579 694 l 579 810 l 232 810 l 232 926 l 579 926 l 579 810 l 694 810 l 694 694 l 579 694 m 232 810 l 232 115 l 115 115 l 115 810 l 232 810 m 579 115 l 579 579 l 694 579 l 694 115 l 579 115 m 579 115 l 579 0 l 232 0 l 232 115 l 579 115 z "},"ԍ":{"ha":694,"x_min":115,"x_max":694,"o":"m 579 463 l 579 579 l 232 579 l 232 694 l 579 694 l 579 579 l 694 579 l 694 463 l 579 463 m 232 579 l 232 115 l 115 115 l 115 579 l 232 579 m 579 115 l 579 347 l 694 347 l 694 115 l 579 115 m 579 115 l 579 0 l 232 0 l 232 115 l 579 115 z "},"Ԏ":{"ha":694,"x_min":115,"x_max":694,"o":"m 463 0 l 463 115 l 347 115 l 347 810 l 115 810 l 115 926 l 694 926 l 694 810 l 463 810 l 463 115 l 579 115 l 579 579 l 694 579 l 694 115 l 579 115 l 579 0 l 463 0 z "},"ԏ":{"ha":694,"x_min":115,"x_max":694,"o":"m 463 0 l 463 115 l 347 115 l 347 579 l 115 579 l 115 694 l 694 694 l 694 579 l 463 579 l 463 115 l 579 115 l 579 463 l 694 463 l 694 115 l 579 115 l 579 0 l 463 0 z "},"Ԑ":{"ha":694,"x_min":115,"x_max":694,"o":"m 579 694 l 579 810 l 232 810 l 232 926 l 694 926 l 694 694 l 579 694 m 232 810 l 232 579 l 115 579 l 115 810 l 232 810 m 232 579 l 463 579 l 463 463 l 232 463 l 232 579 m 232 463 l 232 115 l 115 115 l 115 463 l 232 463 m 579 115 l 579 232 l 694 232 l 694 115 l 579 115 m 579 115 l 579 0 l 232 0 l 232 115 l 579 115 z "},"ԑ":{"ha":694,"x_min":115,"x_max":694,"o":"m 579 463 l 579 579 l 232 579 l 232 694 l 579 694 l 579 579 l 694 579 l 694 463 l 579 463 m 232 579 l 232 463 l 115 463 l 115 579 l 232 579 m 232 463 l 463 463 l 463 347 l 232 347 l 232 463 m 232 347 l 232 115 l 115 115 l 115 347 l 232 347 m 579 115 l 579 232 l 694 232 l 694 115 l 579 115 m 579 115 l 579 0 l 232 0 l 232 115 l 579 115 z "},"Ԓ":{"ha":694,"x_min":115,"x_max":694,"o":"m 115 0 l 115 115 l 232 115 l 232 926 l 694 926 l 694 0 l 579 0 l 579 810 l 347 810 l 347 115 l 232 115 l 232 0 l 115 0 m 579 0 l 579 -115 l 347 -115 l 347 0 l 579 0 z "},"ԓ":{"ha":694,"x_min":115,"x_max":694,"o":"m 115 0 l 115 115 l 232 115 l 232 694 l 694 694 l 694 0 l 579 0 l 579 579 l 347 579 l 347 115 l 232 115 l 232 0 l 115 0 m 579 0 l 579 -115 l 347 -115 l 347 0 l 579 0 z "},"Ԕ":{"ha":694,"x_min":0,"x_max":694,"o":"m 579 0 l 579 347 l 463 347 l 463 579 l 347 579 l 347 810 l 232 810 l 232 115 l 115 115 l 115 926 l 463 926 l 463 579 l 579 579 l 579 926 l 694 926 l 694 579 l 579 579 l 579 347 l 694 347 l 694 0 l 579 0 m 347 0 l 347 347 l 463 347 l 463 0 l 347 0 m 0 0 l 0 115 l 115 115 l 115 0 l 0 0 z "},"ԕ":{"ha":694,"x_min":0,"x_max":694,"o":"m 579 0 l 579 232 l 463 232 l 463 463 l 347 463 l 347 579 l 232 579 l 232 115 l 115 115 l 115 694 l 463 694 l 463 463 l 579 463 l 579 694 l 694 694 l 694 463 l 579 463 l 579 232 l 694 232 l 694 0 l 579 0 m 347 0 l 347 232 l 463 232 l 463 0 l 347 0 m 0 0 l 0 115 l 115 115 l 115 0 l 0 0 z "},"Ԗ":{"ha":694,"x_min":115,"x_max":694,"o":"m 579 0 l 579 232 l 463 232 l 463 347 l 232 347 l 232 0 l 115 0 l 115 926 l 347 926 l 347 810 l 463 810 l 463 694 l 579 694 l 579 926 l 694 926 l 694 694 l 579 694 l 579 579 l 463 579 l 463 347 l 579 347 l 579 232 l 694 232 l 694 0 l 579 0 m 347 810 l 232 810 l 232 463 l 347 463 l 347 810 z "},"ԗ":{"ha":694,"x_min":115,"x_max":694,"o":"m 579 0 l 579 232 l 463 232 l 463 115 l 347 115 l 347 0 l 232 0 l 232 -347 l 115 -347 l 115 694 l 347 694 l 347 579 l 463 579 l 463 463 l 579 463 l 579 694 l 694 694 l 694 463 l 579 463 l 579 232 l 694 232 l 694 0 l 579 0 m 347 579 l 232 579 l 232 115 l 347 115 l 347 579 z "},"Ԙ":{"ha":694,"x_min":115,"x_max":694,"o":"m 115 0 l 115 115 l 232 115 l 232 347 l 347 347 l 347 463 l 232 463 l 232 579 l 115 579 l 115 810 l 232 810 l 232 579 l 463 579 l 463 810 l 232 810 l 232 926 l 694 926 l 694 810 l 579 810 l 579 579 l 694 579 l 694 463 l 579 463 l 579 115 l 694 115 l 694 0 l 463 0 l 463 347 l 347 347 l 347 115 l 232 115 l 232 0 l 115 0 z "},"ԙ":{"ha":694,"x_min":115,"x_max":694,"o":"m 463 0 l 463 115 l 347 115 l 347 232 l 232 232 l 232 463 l 115 463 l 115 579 l 232 579 l 232 463 l 347 463 l 347 579 l 232 579 l 232 694 l 579 694 l 579 579 l 694 579 l 694 347 l 463 347 l 463 115 l 579 115 l 579 232 l 694 232 l 694 115 l 579 115 l 579 0 l 463 0 m 115 0 l 115 232 l 232 232 l 232 0 l 115 0 m 579 579 l 463 579 l 463 463 l 579 463 l 579 579 z "},"Ԛ":{"ha":694,"x_min":115,"x_max":694,"o":"m 463 -232 l 463 -115 l 347 -115 l 347 0 l 232 0 l 232 115 l 115 115 l 115 810 l 232 810 l 232 115 l 579 115 l 579 810 l 232 810 l 232 926 l 579 926 l 579 810 l 694 810 l 694 115 l 579 115 l 579 0 l 463 0 l 463 -115 l 579 -115 l 579 -232 l 463 -232 z "},"ԛ":{"ha":694,"x_min":115,"x_max":810,"o":"m 232 694 l 694 694 l 694 -232 l 810 -232 l 810 -347 l 579 -347 l 579 0 l 232 0 l 232 115 l 115 115 l 115 579 l 232 579 l 232 115 l 579 115 l 579 579 l 232 579 l 232 694 z "},"Ԝ":{"ha":694,"x_min":115,"x_max":694,"o":"m 463 0 l 463 347 l 347 347 l 347 926 l 463 926 l 463 347 l 579 347 l 579 926 l 694 926 l 694 347 l 579 347 l 579 0 l 463 0 m 232 0 l 232 347 l 115 347 l 115 926 l 232 926 l 232 347 l 347 347 l 347 0 l 232 0 z "}}}
